Bitter-Bold.ufo
<glyph name="exclam" format="1">
  <advance width="340"/>
  <unicode hex="0021"/>
  <outline>
    <contour>
      <point x="247" y="765" type="line"/>
      <point x="91" y="765" type="line"/>
      <point x="109" y="256" type="line"/>
      <point x="229" y="261" type="line"/>
    </contour>
    <contour>
      <point x="85" y="20"/>
      <point x="113" y="-13"/>
      <point x="168" y="-13" type="curve" smooth="yes"/>
      <point x="213" y="-13"/>
      <point x="255" y="20"/>
      <point x="255" y="78" type="curve" smooth="yes"/>
      <point x="255" y="135"/>
      <point x="226" y="168"/>
      <point x="171" y="168" type="curve" smooth="yes"/>
      <point x="126" y="168"/>
      <point x="85" y="135"/>
      <point x="85" y="78" type="curve" smooth="yes"/>
    </contour>
  </outline>
</glyph>
<glyph name="quotedbl" format="1">
  <advance width="441"/>
  <unicode hex="0022"/>
  <outline>
    <contour>
      <point x="394" y="782" type="line"/>
      <point x="258" y="782" type="line"/>
      <point x="258" y="500" type="line"/>
      <point x="371" y="500" type="line"/>
    </contour>
    <contour>
      <point x="192" y="782" type="line"/>
      <point x="57" y="782" type="line"/>
      <point x="57" y="500" type="line"/>
      <point x="170" y="500" type="line"/>
    </contour>
  </outline>
</glyph>
<glyph name="numbersign" format="1">
  <advance width="730"/>
  <unicode hex="0023"/>
  <outline>
    <contour>
      <point x="85" y="367" type="line"/>
      <point x="183" y="367" type="line"/>
      <point x="166" y="244" type="line"/>
      <point x="60" y="244" type="line"/>
      <point x="60" y="141" type="line"/>
      <point x="153" y="141" type="line"/>
      <point x="134" y="0" type="line"/>
      <point x="261" y="0" type="line"/>
      <point x="280" y="141" type="line"/>
      <point x="405" y="141" type="line"/>
      <point x="387" y="0" type="line"/>
      <point x="514" y="0" type="line"/>
      <point x="532" y="141" type="line"/>
      <point x="645" y="141" type="line"/>
      <point x="645" y="244" type="line"/>
      <point x="546" y="244" type="line"/>
      <point x="562" y="367" type="line"/>
      <point x="670" y="367" type="line"/>
      <point x="670" y="470" type="line"/>
      <point x="576" y="470" type="line"/>
      <point x="593" y="600" type="line"/>
      <point x="466" y="600" type="line"/>
      <point x="449" y="470" type="line"/>
      <point x="323" y="470" type="line"/>
      <point x="341" y="600" type="line"/>
      <point x="214" y="600" type="line"/>
      <point x="196" y="470" type="line"/>
      <point x="85" y="470" type="line"/>
    </contour>
    <contour>
      <point x="310" y="367" type="line"/>
      <point x="435" y="367" type="line"/>
      <point x="419" y="244" type="line"/>
      <point x="293" y="244" type="line"/>
    </contour>
  </outline>
</glyph>
<glyph name="dollar" format="1">
  <advance width="552"/>
  <unicode hex="0024"/>
  <outline>
    <contour>
      <point x="332" y="-146" type="line"/>
      <point x="332" y="-5" type="line"/>
      <point x="435" y="17"/>
      <point x="507" y="86"/>
      <point x="507" y="198" type="curve" smooth="yes"/>
      <point x="507" y="415"/>
      <point x="202" y="371"/>
      <point x="202" y="477" type="curve" smooth="yes"/>
      <point x="202" y="513"/>
      <point x="235" y="540"/>
      <point x="299" y="540" type="curve" smooth="yes"/>
      <point x="337" y="540"/>
      <point x="379" y="525"/>
      <point x="379" y="525" type="curve"/>
      <point x="398" y="451" type="line"/>
      <point x="484" y="451" type="line"/>
      <point x="488" y="615" type="line"/>
      <point x="488" y="615"/>
      <point x="418" y="644"/>
      <point x="332" y="651" type="curve"/>
      <point x="332" y="765" type="line"/>
      <point x="225" y="765" type="line"/>
      <point x="225" y="647" type="line"/>
      <point x="125" y="628"/>
      <point x="55" y="564"/>
      <point x="55" y="460" type="curve" smooth="yes"/>
      <point x="55" y="232"/>
      <point x="361" y="283"/>
      <point x="361" y="176" type="curve" smooth="yes"/>
      <point x="361" y="128"/>
      <point x="309" y="105"/>
      <point x="249" y="105" type="curve" smooth="yes"/>
      <point x="196" y="105"/>
      <point x="162" y="123"/>
      <point x="162" y="123" type="curve"/>
      <point x="147" y="198" type="line"/>
      <point x="55" y="198" type="line"/>
      <point x="55" y="21" type="line"/>
      <point x="55" y="21"/>
      <point x="133" y="-6"/>
      <point x="225" y="-11" type="curve"/>
      <point x="225" y="-146" type="line"/>
    </contour>
  </outline>
</glyph>
<glyph name="percent" format="1">
  <advance width="935"/>
  <unicode hex="0025"/>
  <outline>
    <contour>
      <point x="179" y="-8" type="line"/>
      <point x="324" y="-8" type="line"/>
      <point x="742" y="712" type="line"/>
      <point x="597" y="712" type="line"/>
    </contour>
    <contour>
      <point x="55" y="404"/>
      <point x="126" y="350"/>
      <point x="223" y="350" type="curve" smooth="yes"/>
      <point x="326" y="350"/>
      <point x="404" y="423"/>
      <point x="404" y="540" type="curve" smooth="yes"/>
      <point x="404" y="657"/>
      <point x="333" y="717"/>
      <point x="235" y="717" type="curve" smooth="yes"/>
      <point x="134" y="717"/>
      <point x="55" y="648"/>
      <point x="55" y="529" type="curve" smooth="yes"/>
    </contour>
    <contour>
      <point x="170" y="593"/>
      <point x="185" y="631"/>
      <point x="230" y="631" type="curve" smooth="yes"/>
      <point x="275" y="631"/>
      <point x="289" y="595"/>
      <point x="289" y="536" type="curve" smooth="yes"/>
      <point x="289" y="472"/>
      <point x="273" y="437"/>
      <point x="228" y="437" type="curve" smooth="yes"/>
      <point x="184" y="437"/>
      <point x="170" y="473"/>
      <point x="170" y="533" type="curve" smooth="yes"/>
    </contour>
    <contour>
      <point x="519" y="40"/>
      <point x="590" y="-14"/>
      <point x="687" y="-14" type="curve" smooth="yes"/>
      <point x="790" y="-14"/>
      <point x="868" y="59"/>
      <point x="868" y="176" type="curve" smooth="yes"/>
      <point x="868" y="293"/>
      <point x="797" y="353"/>
      <point x="699" y="353" type="curve" smooth="yes"/>
      <point x="598" y="353"/>
      <point x="519" y="284"/>
      <point x="519" y="165" type="curve" smooth="yes"/>
    </contour>
    <contour>
      <point x="634" y="229"/>
      <point x="649" y="267"/>
      <point x="694" y="267" type="curve" smooth="yes"/>
      <point x="739" y="267"/>
      <point x="753" y="231"/>
      <point x="753" y="172" type="curve" smooth="yes"/>
      <point x="753" y="108"/>
      <point x="737" y="73"/>
      <point x="692" y="73" type="curve" smooth="yes"/>
      <point x="648" y="73"/>
      <point x="634" y="109"/>
      <point x="634" y="169" type="curve" smooth="yes"/>
    </contour>
  </outline>
</glyph>
<glyph name="ampersand" format="1">
  <advance width="677"/>
  <unicode hex="0026"/>
  <outline>
    <contour>
      <point x="520" y="517" type="line"/>
      <point x="525" y="675" type="line"/>
      <point x="502" y="686"/>
      <point x="407" y="717"/>
      <point x="328" y="717" type="curve" smooth="yes"/>
      <point x="175" y="717"/>
      <point x="76" y="653"/>
      <point x="76" y="526" type="curve" smooth="yes"/>
      <point x="76" y="427"/>
      <point x="155" y="385"/>
      <point x="182" y="368" type="curve"/>
      <point x="156" y="355"/>
      <point x="55" y="295"/>
      <point x="55" y="188" type="curve" smooth="yes"/>
      <point x="55" y="71"/>
      <point x="132" y="-12"/>
      <point x="308" y="-12" type="curve" smooth="yes"/>
      <point x="473" y="-12"/>
      <point x="577" y="71"/>
      <point x="577" y="211" type="curve" smooth="yes"/>
      <point x="577" y="317" type="line"/>
      <point x="647" y="340" type="line"/>
      <point x="647" y="425" type="line"/>
      <point x="340" y="425" type="line" smooth="yes"/>
      <point x="280" y="425"/>
      <point x="225" y="456"/>
      <point x="225" y="516" type="curve" smooth="yes"/>
      <point x="225" y="557"/>
      <point x="256" y="595"/>
      <point x="320" y="595" type="curve" smooth="yes"/>
      <point x="376" y="595"/>
      <point x="410" y="582"/>
      <point x="410" y="582" type="curve"/>
      <point x="415" y="560"/>
      <point x="420" y="539"/>
      <point x="426" y="517" type="curve"/>
    </contour>
    <contour>
      <point x="432" y="225" type="line"/>
      <point x="432" y="150"/>
      <point x="387" y="110"/>
      <point x="318" y="110" type="curve" smooth="yes"/>
      <point x="252" y="110"/>
      <point x="210" y="145"/>
      <point x="210" y="209" type="curve" smooth="yes"/>
      <point x="210" y="284"/>
      <point x="276" y="317"/>
      <point x="357" y="317" type="curve" smooth="yes"/>
      <point x="432" y="317" type="line"/>
    </contour>
  </outline>
</glyph>
<glyph name="quotesingle" format="1">
  <advance width="240"/>
  <unicode hex="0027"/>
  <outline>
    <contour>
      <point x="190" y="782" type="line"/>
      <point x="55" y="782" type="line"/>
      <point x="55" y="500" type="line"/>
      <point x="168" y="500" type="line"/>
    </contour>
  </outline>
</glyph>
<glyph name="parenleft" format="1">
  <advance width="353"/>
  <unicode hex="0028"/>
  <outline>
    <contour>
      <point x="220" y="770" type="line"/>
      <point x="110" y="610"/>
      <point x="54" y="471"/>
      <point x="54" y="280" type="curve" smooth="yes"/>
      <point x="54" y="76"/>
      <point x="107" y="-70"/>
      <point x="220" y="-230" type="curve"/>
      <point x="349" y="-230" type="line"/>
      <point x="252" y="-90"/>
      <point x="194" y="111"/>
      <point x="194" y="282" type="curve" smooth="yes"/>
      <point x="194" y="441"/>
      <point x="255" y="625"/>
      <point x="350" y="770" type="curve"/>
    </contour>
  </outline>
</glyph>
<glyph name="parenright" format="1">
  <advance width="350"/>
  <unicode hex="0029"/>
  <outline>
    <contour>
      <point x="-1" y="770" type="line"/>
      <point x="94" y="625"/>
      <point x="155" y="441"/>
      <point x="155" y="282" type="curve" smooth="yes"/>
      <point x="155" y="111"/>
      <point x="97" y="-90"/>
      <point x="0" y="-230" type="curve"/>
      <point x="129" y="-230" type="line"/>
      <point x="243" y="-70"/>
      <point x="295" y="76"/>
      <point x="295" y="280" type="curve" smooth="yes"/>
      <point x="295" y="471"/>
      <point x="239" y="610"/>
      <point x="129" y="770" type="curve"/>
    </contour>
  </outline>
</glyph>
<glyph name="asterisk" format="1">
  <advance width="417"/>
  <unicode hex="002A"/>
  <outline>
    <contour>
      <point x="170" y="617" type="line"/>
      <point x="55" y="662" type="line"/>
      <point x="25" y="573" type="line"/>
      <point x="149" y="552" type="line"/>
      <point x="67" y="454" type="line"/>
      <point x="144" y="400" type="line"/>
      <point x="204" y="511" type="line"/>
      <point x="194" y="555" type="line"/>
      <point x="149" y="552" type="line"/>
      <point x="188" y="574" type="line"/>
      <point x="170" y="617" type="line"/>
      <point x="204" y="587" type="line"/>
      <point x="240" y="616" type="line"/>
      <point x="223" y="576" type="line"/>
      <point x="260" y="550" type="line"/>
      <point x="215" y="555" type="line"/>
      <point x="204" y="511" type="line"/>
      <point x="269" y="400" type="line"/>
      <point x="342" y="455" type="line"/>
      <point x="260" y="550" type="line"/>
      <point x="382" y="575" type="line"/>
      <point x="351" y="665" type="line"/>
      <point x="240" y="616" type="line"/>
      <point x="249" y="738" type="line"/>
      <point x="156" y="736" type="line"/>
    </contour>
  </outline>
</glyph>
<glyph name="plus" format="1">
  <advance width="620"/>
  <unicode hex="002B"/>
  <outline>
    <contour>
      <point x="42" y="211" type="line"/>
      <point x="244" y="211" type="line"/>
      <point x="244" y="0" type="line"/>
      <point x="377" y="0" type="line"/>
      <point x="377" y="211" type="line"/>
      <point x="577" y="211" type="line"/>
      <point x="577" y="329" type="line"/>
      <point x="377" y="329" type="line"/>
      <point x="377" y="533" type="line"/>
      <point x="244" y="533" type="line"/>
      <point x="244" y="329" type="line"/>
      <point x="42" y="329" type="line"/>
    </contour>
  </outline>
</glyph>
<glyph name="comma" format="1">
  <advance width="303"/>
  <unicode hex="002C"/>
  <outline>
    <contour>
      <point x="71" y="32"/>
      <point x="100" y="15"/>
      <point x="100" y="-13" type="curve" smooth="yes"/>
      <point x="100" y="-53"/>
      <point x="40" y="-133"/>
      <point x="40" y="-133" type="curve"/>
      <point x="103" y="-185" type="line"/>
      <point x="196" y="-85"/>
      <point x="241" y="0"/>
      <point x="241" y="76" type="curve" smooth="yes"/>
      <point x="241" y="136"/>
      <point x="207" y="168"/>
      <point x="157" y="168" type="curve" smooth="yes"/>
      <point x="108" y="168"/>
      <point x="71" y="133"/>
      <point x="71" y="79" type="curve" smooth="yes"/>
    </contour>
  </outline>
</glyph>
<glyph name="hyphen" format="1">
  <advance width="395"/>
  <unicode hex="002D"/>
  <outline>
    <contour>
      <point x="55" y="210" type="line"/>
      <point x="340" y="210" type="line"/>
      <point x="340" y="335" type="line"/>
      <point x="55" y="335" type="line"/>
    </contour>
  </outline>
</glyph>
<glyph name="period" format="1">
  <advance width="300"/>
  <unicode hex="002E"/>
  <outline>
    <contour>
      <point x="65" y="20"/>
      <point x="94" y="-13"/>
      <point x="149" y="-13" type="curve" smooth="yes"/>
      <point x="194" y="-13"/>
      <point x="235" y="20"/>
      <point x="235" y="78" type="curve" smooth="yes"/>
      <point x="235" y="135"/>
      <point x="206" y="168"/>
      <point x="151" y="168" type="curve" smooth="yes"/>
      <point x="106" y="168"/>
      <point x="65" y="135"/>
      <point x="65" y="78" type="curve" smooth="yes"/>
    </contour>
  </outline>
</glyph>
<glyph name="slash" format="1">
  <advance width="516"/>
  <unicode hex="002F"/>
  <outline>
    <contour>
      <point x="20" y="0" type="line"/>
      <point x="172" y="0" type="line"/>
      <point x="506" y="705" type="line"/>
      <point x="353" y="705" type="line"/>
    </contour>
  </outline>
</glyph>
<glyph name="zero" format="1">
  <advance width="645"/>
  <unicode hex="0030"/>
  <outline>
    <contour>
      <point x="135" y="717"/>
      <point x="60" y="580"/>
      <point x="60" y="347" type="curve" smooth="yes"/>
      <point x="60" y="115"/>
      <point x="135" y="-13"/>
      <point x="322" y="-13" type="curve" smooth="yes"/>
      <point x="510" y="-13"/>
      <point x="590" y="122"/>
      <point x="590" y="362" type="curve" smooth="yes"/>
      <point x="590" y="590"/>
      <point x="530" y="717"/>
      <point x="332" y="717" type="curve" smooth="yes"/>
    </contour>
    <contour>
      <point x="403" y="592"/>
      <point x="427" y="532"/>
      <point x="427" y="357" type="curve" smooth="yes"/>
      <point x="427" y="177"/>
      <point x="400" y="112"/>
      <point x="326" y="112" type="curve" smooth="yes"/>
      <point x="252" y="112"/>
      <point x="222" y="177"/>
      <point x="222" y="352" type="curve" smooth="yes"/>
      <point x="222" y="532"/>
      <point x="250" y="592"/>
      <point x="326" y="592" type="curve" smooth="yes"/>
    </contour>
  </outline>
</glyph>
<glyph name="one" format="1">
  <advance width="538"/>
  <unicode hex="0031"/>
  <outline>
    <contour>
      <point x="516" y="115" type="line"/>
      <point x="381" y="115" type="line"/>
      <point x="381" y="705" type="line"/>
      <point x="253" y="705" type="line"/>
      <point x="15" y="553" type="line"/>
      <point x="73" y="447" type="line"/>
      <point x="226" y="545" type="line"/>
      <point x="226" y="115" type="line"/>
      <point x="86" y="115" type="line"/>
      <point x="86" y="0" type="line"/>
      <point x="516" y="0" type="line"/>
    </contour>
  </outline>
</glyph>
<glyph name="two" format="1">
  <advance width="607"/>
  <unicode hex="0032"/>
  <outline>
    <contour>
      <point x="557" y="122" type="line"/>
      <point x="257" y="122" type="line"/>
      <point x="435" y="275"/>
      <point x="540" y="380"/>
      <point x="540" y="520" type="curve" smooth="yes"/>
      <point x="540" y="670"/>
      <point x="427" y="717"/>
      <point x="267" y="717" type="curve" smooth="yes"/>
      <point x="160" y="717"/>
      <point x="47" y="677"/>
      <point x="47" y="677" type="curve"/>
      <point x="52" y="492" type="line"/>
      <point x="157" y="492" type="line"/>
      <point x="167" y="577" type="line"/>
      <point x="167" y="577"/>
      <point x="207" y="595"/>
      <point x="260" y="595" type="curve" smooth="yes"/>
      <point x="331" y="595"/>
      <point x="377" y="556"/>
      <point x="377" y="495" type="curve" smooth="yes"/>
      <point x="377" y="397"/>
      <point x="254" y="295"/>
      <point x="40" y="122" type="curve"/>
      <point x="40" y="0" type="line"/>
      <point x="557" y="0" type="line"/>
    </contour>
  </outline>
</glyph>
<glyph name="three" format="1">
  <advance width="592"/>
  <unicode hex="0033"/>
  <outline>
    <contour>
      <point x="517" y="660"/>
      <point x="427" y="717"/>
      <point x="260" y="717" type="curve" smooth="yes"/>
      <point x="160" y="717"/>
      <point x="37" y="675"/>
      <point x="37" y="675" type="curve"/>
      <point x="42" y="500" type="line"/>
      <point x="147" y="500" type="line"/>
      <point x="157" y="580" type="line"/>
      <point x="157" y="580"/>
      <point x="205" y="595"/>
      <point x="255" y="595" type="curve" smooth="yes"/>
      <point x="325" y="595"/>
      <point x="365" y="562"/>
      <point x="365" y="512" type="curve" smooth="yes"/>
      <point x="365" y="447"/>
      <point x="317" y="415"/>
      <point x="235" y="415" type="curve" smooth="yes"/>
      <point x="152" y="415" type="line"/>
      <point x="152" y="310" type="line"/>
      <point x="230" y="310" type="line" smooth="yes"/>
      <point x="322" y="310"/>
      <point x="372" y="272"/>
      <point x="372" y="212" type="curve" smooth="yes"/>
      <point x="372" y="145"/>
      <point x="325" y="110"/>
      <point x="245" y="110" type="curve" smooth="yes"/>
      <point x="157" y="110"/>
      <point x="67" y="152"/>
      <point x="67" y="152" type="curve"/>
      <point x="25" y="42" type="line"/>
      <point x="25" y="42"/>
      <point x="117" y="-12"/>
      <point x="245" y="-12" type="curve" smooth="yes"/>
      <point x="387" y="-12"/>
      <point x="532" y="47"/>
      <point x="532" y="210" type="curve" smooth="yes"/>
      <point x="532" y="285"/>
      <point x="477" y="349"/>
      <point x="392" y="368" type="curve"/>
      <point x="474" y="390"/>
      <point x="517" y="452"/>
      <point x="517" y="537" type="curve" smooth="yes"/>
    </contour>
  </outline>
</glyph>
<glyph name="four" format="1">
  <advance width="627"/>
  <unicode hex="0034"/>
  <outline>
    <contour>
      <point x="595" y="265" type="line"/>
      <point x="495" y="265" type="line"/>
      <point x="495" y="705" type="line"/>
      <point x="328" y="720" type="line"/>
      <point x="223" y="567"/>
      <point x="119" y="413"/>
      <point x="15" y="260" type="curve"/>
      <point x="30" y="142" type="line"/>
      <point x="341" y="142" type="line"/>
      <point x="341" y="0" type="line"/>
      <point x="495" y="0" type="line"/>
      <point x="495" y="142" type="line"/>
      <point x="595" y="142" type="line"/>
    </contour>
    <contour>
      <point x="165" y="265" type="line"/>
      <point x="343" y="529" type="line"/>
      <point x="343" y="265" type="line"/>
    </contour>
  </outline>
</glyph>
<glyph name="five" format="1">
  <advance width="560"/>
  <unicode hex="0035"/>
  <outline>
    <contour>
      <point x="17" y="42" type="line"/>
      <point x="17" y="42"/>
      <point x="117" y="-12"/>
      <point x="253" y="-12" type="curve" smooth="yes"/>
      <point x="391" y="-12"/>
      <point x="517" y="72"/>
      <point x="517" y="225" type="curve" smooth="yes"/>
      <point x="517" y="356"/>
      <point x="402" y="432"/>
      <point x="209" y="432" type="curve"/>
      <point x="216" y="582" type="line"/>
      <point x="481" y="582" type="line"/>
      <point x="484" y="705" type="line"/>
      <point x="74" y="705" type="line"/>
      <point x="57" y="317" type="line"/>
      <point x="165" y="317" type="line" smooth="yes"/>
      <point x="287" y="317"/>
      <point x="351" y="286"/>
      <point x="351" y="210" type="curve" smooth="yes"/>
      <point x="351" y="146"/>
      <point x="301" y="110"/>
      <point x="237" y="110" type="curve" smooth="yes"/>
      <point x="150" y="110"/>
      <point x="60" y="152"/>
      <point x="60" y="152" type="curve"/>
    </contour>
  </outline>
</glyph>
<glyph name="six" format="1">
  <advance width="623"/>
  <unicode hex="0036"/>
  <outline>
    <contour>
      <point x="520" y="707" type="line"/>
      <point x="520" y="707"/>
      <point x="489" y="717"/>
      <point x="430" y="717" type="curve" smooth="yes"/>
      <point x="175" y="717"/>
      <point x="55" y="535"/>
      <point x="55" y="295" type="curve" smooth="yes"/>
      <point x="55" y="120"/>
      <point x="148" y="-13"/>
      <point x="325" y="-13" type="curve" smooth="yes"/>
      <point x="475" y="-13"/>
      <point x="588" y="90"/>
      <point x="588" y="230" type="curve" smooth="yes"/>
      <point x="588" y="370"/>
      <point x="490" y="440"/>
      <point x="368" y="440" type="curve" smooth="yes"/>
      <point x="283" y="440"/>
      <point x="212" y="397"/>
      <point x="212" y="397" type="curve"/>
      <point x="212" y="397"/>
      <point x="220" y="595"/>
      <point x="435" y="595" type="curve" smooth="yes"/>
      <point x="483" y="595"/>
      <point x="513" y="590"/>
      <point x="513" y="590" type="curve"/>
    </contour>
    <contour>
      <point x="208" y="287" type="line"/>
      <point x="208" y="287"/>
      <point x="258" y="322"/>
      <point x="322" y="322" type="curve" smooth="yes"/>
      <point x="394" y="322"/>
      <point x="430" y="283"/>
      <point x="430" y="215" type="curve" smooth="yes"/>
      <point x="430" y="150"/>
      <point x="387" y="110"/>
      <point x="324" y="110" type="curve" smooth="yes"/>
      <point x="262" y="110"/>
      <point x="208" y="153"/>
      <point x="208" y="263" type="curve" smooth="yes"/>
    </contour>
  </outline>
</glyph>
<glyph name="seven" format="1">
  <advance width="531"/>
  <unicode hex="0037"/>
  <outline>
    <contour>
      <point x="5" y="705" type="line"/>
      <point x="5" y="487" type="line"/>
      <point x="106" y="487" type="line"/>
      <point x="126" y="580" type="line"/>
      <point x="347" y="580" type="line"/>
      <point x="88" y="0" type="line"/>
      <point x="253" y="0" type="line"/>
      <point x="515" y="597" type="line"/>
      <point x="515" y="705" type="line"/>
    </contour>
  </outline>
</glyph>
<glyph name="eight" format="1">
  <advance width="618"/>
  <unicode hex="0038"/>
  <outline>
    <contour>
      <point x="556" y="638"/>
      <point x="476" y="717"/>
      <point x="321" y="717" type="curve" smooth="yes"/>
      <point x="166" y="717"/>
      <point x="68" y="646"/>
      <point x="68" y="521" type="curve" smooth="yes"/>
      <point x="68" y="439"/>
      <point x="114" y="394"/>
      <point x="173" y="361" type="curve"/>
      <point x="133" y="341"/>
      <point x="45" y="290"/>
      <point x="45" y="192" type="curve" smooth="yes"/>
      <point x="45" y="74"/>
      <point x="131" y="-13"/>
      <point x="298" y="-13" type="curve" smooth="yes"/>
      <point x="463" y="-13"/>
      <point x="573" y="76"/>
      <point x="573" y="206" type="curve" smooth="yes"/>
      <point x="573" y="298"/>
      <point x="515" y="346"/>
      <point x="447" y="378" type="curve"/>
      <point x="488" y="397"/>
      <point x="556" y="441"/>
      <point x="556" y="528" type="curve" smooth="yes"/>
    </contour>
    <contour>
      <point x="415" y="144"/>
      <point x="376" y="110"/>
      <point x="308" y="110" type="curve" smooth="yes"/>
      <point x="241" y="110"/>
      <point x="202" y="141"/>
      <point x="202" y="199" type="curve" smooth="yes"/>
      <point x="202" y="262"/>
      <point x="266" y="295"/>
      <point x="295" y="308" type="curve"/>
      <point x="360" y="283"/>
      <point x="415" y="258"/>
      <point x="415" y="202" type="curve" smooth="yes"/>
    </contour>
    <contour>
      <point x="217" y="565"/>
      <point x="252" y="595"/>
      <point x="311" y="595" type="curve" smooth="yes"/>
      <point x="369" y="595"/>
      <point x="406" y="565"/>
      <point x="406" y="521" type="curve" smooth="yes"/>
      <point x="406" y="467"/>
      <point x="356" y="437"/>
      <point x="325" y="424" type="curve"/>
      <point x="267" y="446"/>
      <point x="217" y="469"/>
      <point x="217" y="521" type="curve" smooth="yes"/>
    </contour>
  </outline>
</glyph>
<glyph name="nine" format="1">
  <advance width="617"/>
  <unicode hex="0039"/>
  <outline>
    <contour>
      <point x="100" y="-3" type="line"/>
      <point x="100" y="-3"/>
      <point x="131" y="-13"/>
      <point x="190" y="-13" type="curve" smooth="yes"/>
      <point x="448" y="-13"/>
      <point x="565" y="170"/>
      <point x="565" y="410" type="curve" smooth="yes"/>
      <point x="565" y="585"/>
      <point x="472" y="717"/>
      <point x="295" y="717" type="curve" smooth="yes"/>
      <point x="145" y="717"/>
      <point x="32" y="617"/>
      <point x="32" y="474" type="curve" smooth="yes"/>
      <point x="32" y="334"/>
      <point x="130" y="265"/>
      <point x="252" y="265" type="curve" smooth="yes"/>
      <point x="337" y="265"/>
      <point x="408" y="306"/>
      <point x="408" y="306" type="curve"/>
      <point x="408" y="306"/>
      <point x="404" y="110"/>
      <point x="185" y="110" type="curve" smooth="yes"/>
      <point x="137" y="110"/>
      <point x="107" y="114"/>
      <point x="107" y="114" type="curve"/>
    </contour>
    <contour>
      <point x="412" y="418" type="line"/>
      <point x="412" y="418"/>
      <point x="362" y="382"/>
      <point x="298" y="382" type="curve" smooth="yes"/>
      <point x="226" y="382"/>
      <point x="190" y="422"/>
      <point x="190" y="489" type="curve" smooth="yes"/>
      <point x="190" y="555"/>
      <point x="233" y="595"/>
      <point x="296" y="595" type="curve" smooth="yes"/>
      <point x="358" y="595"/>
      <point x="412" y="552"/>
      <point x="412" y="445" type="curve" smooth="yes"/>
    </contour>
  </outline>
</glyph>
<glyph name="colon" format="1">
  <advance width="305"/>
  <unicode hex="003A"/>
  <outline>
    <contour>
      <point x="67" y="20"/>
      <point x="96" y="-13"/>
      <point x="151" y="-13" type="curve" smooth="yes"/>
      <point x="196" y="-13"/>
      <point x="237" y="20"/>
      <point x="237" y="78" type="curve" smooth="yes"/>
      <point x="237" y="135"/>
      <point x="209" y="168"/>
      <point x="154" y="168" type="curve" smooth="yes"/>
      <point x="109" y="168"/>
      <point x="67" y="135"/>
      <point x="67" y="78" type="curve" smooth="yes"/>
    </contour>
    <contour>
      <point x="67" y="321"/>
      <point x="96" y="288"/>
      <point x="151" y="288" type="curve" smooth="yes"/>
      <point x="196" y="288"/>
      <point x="237" y="321"/>
      <point x="237" y="378" type="curve" smooth="yes"/>
      <point x="237" y="436"/>
      <point x="209" y="469"/>
      <point x="154" y="469" type="curve" smooth="yes"/>
      <point x="109" y="469"/>
      <point x="67" y="436"/>
      <point x="67" y="378" type="curve" smooth="yes"/>
    </contour>
  </outline>
</glyph>
<glyph name="semicolon" format="1">
  <advance width="311"/>
  <unicode hex="003B"/>
  <outline>
    <contour>
      <point x="106" y="-185" type="line"/>
      <point x="198" y="-85"/>
      <point x="243" y="0"/>
      <point x="243" y="76" type="curve" smooth="yes"/>
      <point x="243" y="136"/>
      <point x="210" y="168"/>
      <point x="160" y="168" type="curve" smooth="yes"/>
      <point x="110" y="168"/>
      <point x="73" y="133"/>
      <point x="73" y="79" type="curve" smooth="yes"/>
      <point x="73" y="32"/>
      <point x="102" y="15"/>
      <point x="102" y="-13" type="curve" smooth="yes"/>
      <point x="102" y="-53"/>
      <point x="42" y="-133"/>
      <point x="42" y="-133" type="curve"/>
    </contour>
    <contour>
      <point x="73" y="321"/>
      <point x="102" y="288"/>
      <point x="157" y="288" type="curve" smooth="yes"/>
      <point x="202" y="288"/>
      <point x="243" y="321"/>
      <point x="243" y="378" type="curve" smooth="yes"/>
      <point x="243" y="436"/>
      <point x="214" y="469"/>
      <point x="159" y="469" type="curve" smooth="yes"/>
      <point x="114" y="469"/>
      <point x="73" y="436"/>
      <point x="73" y="378" type="curve" smooth="yes"/>
    </contour>
  </outline>
</glyph>
<glyph name="less" format="1">
  <advance width="597"/>
  <unicode hex="003C"/>
  <outline>
    <contour>
      <point x="202" y="267" type="line"/>
      <point x="557" y="417" type="line"/>
      <point x="557" y="547" type="line"/>
      <point x="40" y="328" type="line"/>
      <point x="40" y="208" type="line"/>
      <point x="557" y="-10" type="line"/>
      <point x="557" y="122" type="line"/>
    </contour>
  </outline>
</glyph>
<glyph name="equal" format="1">
  <advance width="600"/>
  <unicode hex="003D"/>
  <outline>
    <contour>
      <point x="50" y="107" type="line"/>
      <point x="550" y="107" type="line"/>
      <point x="550" y="222" type="line"/>
      <point x="50" y="222" type="line"/>
    </contour>
    <contour>
      <point x="50" y="322" type="line"/>
      <point x="550" y="322" type="line"/>
      <point x="550" y="437" type="line"/>
      <point x="50" y="437" type="line"/>
    </contour>
  </outline>
</glyph>
<glyph name="question" format="1">
  <advance width="464"/>
  <unicode hex="003F"/>
  <outline>
    <contour>
      <point x="94" y="20"/>
      <point x="122" y="-13"/>
      <point x="177" y="-13" type="curve" smooth="yes"/>
      <point x="222" y="-13"/>
      <point x="264" y="20"/>
      <point x="264" y="78" type="curve" smooth="yes"/>
      <point x="264" y="135"/>
      <point x="235" y="168"/>
      <point x="180" y="168" type="curve" smooth="yes"/>
      <point x="135" y="168"/>
      <point x="94" y="135"/>
      <point x="94" y="78" type="curve" smooth="yes"/>
    </contour>
    <contour>
      <point x="236" y="253" type="line"/>
      <point x="236" y="253"/>
      <point x="234" y="287"/>
      <point x="234" y="311" type="curve" smooth="yes"/>
      <point x="234" y="404"/>
      <point x="414" y="460"/>
      <point x="414" y="614" type="curve" smooth="yes"/>
      <point x="414" y="732"/>
      <point x="314" y="769"/>
      <point x="214" y="769" type="curve" smooth="yes"/>
      <point x="148" y="769"/>
      <point x="65" y="745"/>
      <point x="65" y="745" type="curve"/>
      <point x="84" y="641" type="line"/>
      <point x="84" y="641"/>
      <point x="130" y="652"/>
      <point x="173" y="652" type="curve" smooth="yes"/>
      <point x="232" y="652"/>
      <point x="263" y="631"/>
      <point x="263" y="586" type="curve" smooth="yes"/>
      <point x="263" y="494"/>
      <point x="94" y="442"/>
      <point x="94" y="345" type="curve" smooth="yes"/>
      <point x="94" y="312"/>
      <point x="103" y="247"/>
      <point x="103" y="247" type="curve"/>
    </contour>
  </outline>
</glyph>
<glyph name="at" format="1">
  <advance width="820"/>
  <unicode hex="0040"/>
  <outline>
    <contour>
      <point x="699" y="147"/>
      <point x="780" y="225"/>
      <point x="780" y="366" type="curve" smooth="yes"/>
      <point x="780" y="594"/>
      <point x="641" y="717"/>
      <point x="421" y="717" type="curve" smooth="yes"/>
      <point x="194" y="717"/>
      <point x="47" y="575"/>
      <point x="47" y="345" type="curve" smooth="yes"/>
      <point x="47" y="111"/>
      <point x="168" y="-15"/>
      <point x="386" y="-15" type="curve" smooth="yes"/>
      <point x="492" y="-15"/>
      <point x="559" y="25"/>
      <point x="559" y="25" type="curve"/>
      <point x="518" y="107" type="line"/>
      <point x="518" y="107"/>
      <point x="461" y="82"/>
      <point x="393" y="82" type="curve" smooth="yes"/>
      <point x="232" y="82"/>
      <point x="157" y="180"/>
      <point x="157" y="350" type="curve" smooth="yes"/>
      <point x="157" y="521"/>
      <point x="250" y="620"/>
      <point x="416" y="620" type="curve" smooth="yes"/>
      <point x="582" y="620"/>
      <point x="670" y="522"/>
      <point x="670" y="361" type="curve" smooth="yes"/>
      <point x="670" y="272"/>
      <point x="645" y="226"/>
      <point x="604" y="226" type="curve" smooth="yes"/>
      <point x="582" y="226"/>
      <point x="569" y="239"/>
      <point x="569" y="261" type="curve" smooth="yes"/>
      <point x="569" y="427" type="line" smooth="yes"/>
      <point x="569" y="515"/>
      <point x="524" y="553"/>
      <point x="422" y="553" type="curve" smooth="yes"/>
      <point x="351" y="553"/>
      <point x="271" y="523"/>
      <point x="271" y="523" type="curve"/>
      <point x="290" y="449" type="line"/>
      <point x="290" y="449"/>
      <point x="353" y="466"/>
      <point x="398" y="466" type="curve" smooth="yes"/>
      <point x="438" y="466"/>
      <point x="456" y="451"/>
      <point x="456" y="419" type="curve" smooth="yes"/>
      <point x="456" y="385" type="line"/>
      <point x="410" y="385" type="line" smooth="yes"/>
      <point x="300" y="385"/>
      <point x="242" y="346"/>
      <point x="242" y="266" type="curve" smooth="yes"/>
      <point x="242" y="195"/>
      <point x="284" y="151"/>
      <point x="355" y="151" type="curve" smooth="yes"/>
      <point x="422" y="151"/>
      <point x="473" y="209"/>
      <point x="473" y="209" type="curve"/>
      <point x="485" y="188"/>
      <point x="518" y="147"/>
      <point x="593" y="147" type="curve" smooth="yes"/>
    </contour>
    <contour>
      <point x="347" y="305"/>
      <point x="367" y="319"/>
      <point x="417" y="319" type="curve" smooth="yes"/>
      <point x="456" y="319" type="line"/>
      <point x="456" y="272" type="line"/>
      <point x="449" y="265"/>
      <point x="420" y="238"/>
      <point x="388" y="238" type="curve" smooth="yes"/>
      <point x="363" y="238"/>
      <point x="347" y="252"/>
      <point x="347" y="275" type="curve" smooth="yes"/>
    </contour>
  </outline>
</glyph>
<glyph name="A" format="1">
  <advance width="748"/>
  <unicode hex="0041"/>
  <outline>
    <contour>
      <point x="458" y="705" type="line"/>
      <point x="298" y="702" type="line"/>
      <point x="78" y="113" type="line"/>
      <point x="5" y="85" type="line"/>
      <point x="5" y="0" type="line"/>
      <point x="307" y="0" type="line"/>
      <point x="307" y="85" type="line"/>
      <point x="229" y="113" type="line"/>
      <point x="254" y="185" type="line"/>
      <point x="476" y="185" type="line"/>
      <point x="500" y="112" type="line"/>
      <point x="425" y="85" type="line"/>
      <point x="425" y="0" type="line"/>
      <point x="743" y="0" type="line"/>
      <point x="743" y="85" type="line"/>
      <point x="673" y="113" type="line"/>
    </contour>
    <contour>
      <point x="368" y="529" type="line"/>
      <point x="443" y="292" type="line"/>
      <point x="289" y="292" type="line"/>
    </contour>
  </outline>
</glyph>
<glyph name="B" format="1">
  <advance width="658"/>
  <unicode hex="0042"/>
  <outline>
    <contour>
      <point x="265" y="705" type="line"/>
      <point x="35" y="700" type="line"/>
      <point x="35" y="615" type="line"/>
      <point x="110" y="585" type="line"/>
      <point x="110" y="115" type="line"/>
      <point x="35" y="85" type="line"/>
      <point x="35" y="0" type="line"/>
      <point x="353" y="0" type="line" smooth="yes"/>
      <point x="515" y="0"/>
      <point x="613" y="60"/>
      <point x="613" y="207" type="curve" smooth="yes"/>
      <point x="613" y="284"/>
      <point x="564" y="340"/>
      <point x="470" y="367" type="curve"/>
      <point x="549" y="392"/>
      <point x="590" y="445"/>
      <point x="590" y="532" type="curve" smooth="yes"/>
      <point x="590" y="650"/>
      <point x="500" y="705"/>
      <point x="370" y="705" type="curve" smooth="yes"/>
    </contour>
    <contour>
      <point x="323" y="312" type="line"/>
      <point x="413" y="312"/>
      <point x="455" y="280"/>
      <point x="455" y="207" type="curve" smooth="yes"/>
      <point x="455" y="152"/>
      <point x="418" y="120"/>
      <point x="348" y="120" type="curve" smooth="yes"/>
      <point x="265" y="120" type="line"/>
      <point x="265" y="312" type="line"/>
    </contour>
    <contour>
      <point x="265" y="585" type="line"/>
      <point x="350" y="585" type="line" smooth="yes"/>
      <point x="398" y="585"/>
      <point x="435" y="562"/>
      <point x="435" y="510" type="curve" smooth="yes"/>
      <point x="435" y="448"/>
      <point x="396" y="417"/>
      <point x="323" y="417" type="curve" smooth="yes"/>
      <point x="265" y="417" type="line"/>
    </contour>
  </outline>
</glyph>
<glyph name="C" format="1">
  <advance width="667"/>
  <unicode hex="0043"/>
  <outline>
    <contour>
      <point x="522" y="480" type="line"/>
      <point x="620" y="480" type="line"/>
      <point x="625" y="670" type="line"/>
      <point x="625" y="670"/>
      <point x="513" y="717"/>
      <point x="392" y="717" type="curve" smooth="yes"/>
      <point x="187" y="717"/>
      <point x="55" y="577"/>
      <point x="55" y="342" type="curve" smooth="yes"/>
      <point x="55" y="110"/>
      <point x="172" y="-12"/>
      <point x="375" y="-12" type="curve" smooth="yes"/>
      <point x="532" y="-12"/>
      <point x="637" y="97"/>
      <point x="637" y="97" type="curve"/>
      <point x="582" y="187" type="line"/>
      <point x="582" y="187"/>
      <point x="492" y="117"/>
      <point x="392" y="117" type="curve" smooth="yes"/>
      <point x="287" y="117"/>
      <point x="222" y="185"/>
      <point x="222" y="347" type="curve" smooth="yes"/>
      <point x="222" y="514"/>
      <point x="282" y="592"/>
      <point x="387" y="592" type="curve" smooth="yes"/>
      <point x="452" y="592"/>
      <point x="499" y="576"/>
      <point x="499" y="576" type="curve"/>
    </contour>
  </outline>
</glyph>
<glyph name="D" format="1">
  <advance width="733"/>
  <unicode hex="0044"/>
  <outline>
    <contour>
      <point x="40" y="0" type="line"/>
      <point x="350" y="0" type="line" smooth="yes"/>
      <point x="553" y="0"/>
      <point x="683" y="137"/>
      <point x="683" y="362" type="curve" smooth="yes"/>
      <point x="683" y="587"/>
      <point x="565" y="705"/>
      <point x="365" y="705" type="curve" smooth="yes"/>
      <point x="270" y="705" type="line"/>
      <point x="40" y="700" type="line"/>
      <point x="40" y="615" type="line"/>
      <point x="115" y="585" type="line"/>
      <point x="115" y="115" type="line"/>
      <point x="40" y="85" type="line"/>
    </contour>
    <contour>
      <point x="270" y="585" type="line"/>
      <point x="360" y="585" type="line" smooth="yes"/>
      <point x="458" y="585"/>
      <point x="515" y="525"/>
      <point x="515" y="357" type="curve" smooth="yes"/>
      <point x="515" y="177"/>
      <point x="450" y="120"/>
      <point x="353" y="120" type="curve" smooth="yes"/>
      <point x="270" y="120" type="line"/>
    </contour>
  </outline>
</glyph>
<glyph name="E" format="1">
  <advance width="622"/>
  <unicode hex="0045"/>
  <outline>
    <contour>
      <point x="275" y="585" type="line"/>
      <point x="440" y="585" type="line"/>
      <point x="465" y="512" type="line"/>
      <point x="555" y="512" type="line"/>
      <point x="555" y="705" type="line"/>
      <point x="275" y="705" type="line"/>
      <point x="45" y="700" type="line"/>
      <point x="45" y="615" type="line"/>
      <point x="120" y="585" type="line"/>
      <point x="120" y="115" type="line"/>
      <point x="45" y="85" type="line"/>
      <point x="45" y="0" type="line"/>
      <point x="567" y="0" type="line"/>
      <point x="567" y="202" type="line"/>
      <point x="477" y="202" type="line"/>
      <point x="454" y="120" type="line"/>
      <point x="275" y="120" type="line"/>
      <point x="275" y="310" type="line"/>
      <point x="477" y="310" type="line"/>
      <point x="477" y="420" type="line"/>
      <point x="275" y="420" type="line"/>
    </contour>
  </outline>
</glyph>
<glyph name="F" format="1">
  <advance width="580"/>
  <unicode hex="0046"/>
  <outline>
    <contour>
      <point x="367" y="85" type="line"/>
      <point x="275" y="115" type="line"/>
      <point x="275" y="300" type="line"/>
      <point x="482" y="300" type="line"/>
      <point x="482" y="410" type="line"/>
      <point x="275" y="410" type="line"/>
      <point x="275" y="585" type="line"/>
      <point x="437" y="585" type="line"/>
      <point x="462" y="515" type="line"/>
      <point x="555" y="515" type="line"/>
      <point x="555" y="705" type="line"/>
      <point x="275" y="705" type="line"/>
      <point x="45" y="700" type="line"/>
      <point x="45" y="615" type="line"/>
      <point x="120" y="585" type="line"/>
      <point x="120" y="115" type="line"/>
      <point x="45" y="85" type="line"/>
      <point x="45" y="0" type="line"/>
      <point x="367" y="0" type="line"/>
    </contour>
  </outline>
</glyph>
<glyph name="G" format="1">
  <advance width="750"/>
  <unicode hex="0047"/>
  <outline>
    <contour>
      <point x="527" y="490" type="line"/>
      <point x="620" y="490" type="line"/>
      <point x="625" y="670" type="line"/>
      <point x="625" y="670"/>
      <point x="513" y="717"/>
      <point x="392" y="717" type="curve" smooth="yes"/>
      <point x="187" y="717"/>
      <point x="55" y="577"/>
      <point x="55" y="342" type="curve" smooth="yes"/>
      <point x="55" y="110"/>
      <point x="172" y="-12"/>
      <point x="375" y="-12" type="curve" smooth="yes"/>
      <point x="544" y="-12"/>
      <point x="647" y="55"/>
      <point x="647" y="55" type="curve"/>
      <point x="647" y="259" type="line"/>
      <point x="715" y="282" type="line"/>
      <point x="715" y="369" type="line"/>
      <point x="427" y="364" type="line"/>
      <point x="427" y="282" type="line"/>
      <point x="502" y="259" type="line"/>
      <point x="502" y="133" type="line"/>
      <point x="502" y="133"/>
      <point x="444" y="115"/>
      <point x="392" y="115" type="curve" smooth="yes"/>
      <point x="285" y="115"/>
      <point x="222" y="185"/>
      <point x="222" y="347" type="curve" smooth="yes"/>
      <point x="222" y="514"/>
      <point x="282" y="592"/>
      <point x="389" y="592" type="curve" smooth="yes"/>
      <point x="455" y="592"/>
      <point x="502" y="576"/>
      <point x="502" y="576" type="curve"/>
    </contour>
  </outline>
</glyph>
<glyph name="H" format="1">
  <advance width="792"/>
  <unicode hex="0048"/>
  <outline>
    <contour>
      <point x="345" y="85" type="line"/>
      <point x="265" y="115" type="line"/>
      <point x="265" y="305" type="line"/>
      <point x="527" y="305" type="line"/>
      <point x="527" y="115" type="line"/>
      <point x="447" y="85" type="line"/>
      <point x="447" y="0" type="line"/>
      <point x="757" y="0" type="line"/>
      <point x="757" y="85" type="line"/>
      <point x="682" y="115" type="line"/>
      <point x="682" y="585" type="line"/>
      <point x="757" y="615" type="line"/>
      <point x="757" y="705" type="line"/>
      <point x="447" y="700" type="line"/>
      <point x="447" y="615" type="line"/>
      <point x="527" y="585" type="line"/>
      <point x="527" y="425" type="line"/>
      <point x="265" y="425" type="line"/>
      <point x="265" y="585" type="line"/>
      <point x="345" y="615" type="line"/>
      <point x="345" y="705" type="line"/>
      <point x="35" y="700" type="line"/>
      <point x="35" y="615" type="line"/>
      <point x="110" y="585" type="line"/>
      <point x="110" y="115" type="line"/>
      <point x="35" y="85" type="line"/>
      <point x="35" y="0" type="line"/>
      <point x="345" y="0" type="line"/>
    </contour>
  </outline>
</glyph>
<glyph name="I" format="1">
  <advance width="385"/>
  <unicode hex="0049"/>
  <outline>
    <contour>
      <point x="345" y="85" type="line"/>
      <point x="270" y="115" type="line"/>
      <point x="270" y="585" type="line"/>
      <point x="345" y="615" type="line"/>
      <point x="345" y="705" type="line"/>
      <point x="40" y="700" type="line"/>
      <point x="40" y="615" type="line"/>
      <point x="115" y="585" type="line"/>
      <point x="115" y="115" type="line"/>
      <point x="40" y="85" type="line"/>
      <point x="40" y="0" type="line"/>
      <point x="345" y="0" type="line"/>
    </contour>
  </outline>
</glyph>
<glyph name="J" format="1">
  <advance width="384"/>
  <unicode hex="004A"/>
  <outline>
    <contour>
      <point x="274" y="585" type="line"/>
      <point x="349" y="615" type="line"/>
      <point x="349" y="705" type="line"/>
      <point x="44" y="700" type="line"/>
      <point x="44" y="615" type="line"/>
      <point x="119" y="585" type="line"/>
      <point x="119" y="46" type="line" smooth="yes"/>
      <point x="119" y="-17"/>
      <point x="91" y="-50"/>
      <point x="31" y="-50" type="curve" smooth="yes"/>
      <point x="-17" y="-50" type="line"/>
      <point x="-30" y="-153" type="line"/>
      <point x="-30" y="-153"/>
      <point x="14" y="-160"/>
      <point x="46" y="-160" type="curve" smooth="yes"/>
      <point x="222" y="-160"/>
      <point x="274" y="-68"/>
      <point x="274" y="106" type="curve" smooth="yes"/>
    </contour>
  </outline>
</glyph>
<glyph name="K" format="1">
  <advance width="720"/>
  <unicode hex="004B"/>
  <outline>
    <contour>
      <point x="340" y="85" type="line"/>
      <point x="265" y="115" type="line"/>
      <point x="265" y="305" type="line"/>
      <point x="338" y="305" type="line"/>
      <point x="475" y="115" type="line"/>
      <point x="415" y="85" type="line"/>
      <point x="415" y="0" type="line"/>
      <point x="720" y="0" type="line"/>
      <point x="720" y="85" type="line"/>
      <point x="645" y="115" type="line"/>
      <point x="459" y="371" type="line"/>
      <point x="590" y="589" type="line"/>
      <point x="685" y="617" type="line"/>
      <point x="685" y="705" type="line"/>
      <point x="500" y="700" type="line"/>
      <point x="333" y="415" type="line"/>
      <point x="265" y="415" type="line"/>
      <point x="265" y="587" type="line"/>
      <point x="340" y="617" type="line"/>
      <point x="340" y="705" type="line"/>
      <point x="35" y="700" type="line"/>
      <point x="35" y="617" type="line"/>
      <point x="110" y="587" type="line"/>
      <point x="110" y="115" type="line"/>
      <point x="35" y="85" type="line"/>
      <point x="35" y="0" type="line"/>
      <point x="340" y="0" type="line"/>
    </contour>
  </outline>
</glyph>
<glyph name="L" format="1">
  <advance width="540"/>
  <unicode hex="004C"/>
  <outline>
    <contour>
      <point x="260" y="585" type="line"/>
      <point x="335" y="615" type="line"/>
      <point x="335" y="705" type="line"/>
      <point x="30" y="700" type="line"/>
      <point x="30" y="615" type="line"/>
      <point x="105" y="585" type="line"/>
      <point x="105" y="115" type="line"/>
      <point x="30" y="85" type="line"/>
      <point x="30" y="0" type="line"/>
      <point x="530" y="0" type="line"/>
      <point x="530" y="230" type="line"/>
      <point x="435" y="230" type="line"/>
      <point x="413" y="120" type="line"/>
      <point x="260" y="120" type="line"/>
    </contour>
  </outline>
</glyph>
<glyph name="M" format="1">
  <advance width="878"/>
  <unicode hex="004D"/>
  <outline>
    <contour>
      <point x="320" y="85" type="line"/>
      <point x="243" y="115" type="line"/>
      <point x="243" y="474" type="line"/>
      <point x="260" y="422" type="line"/>
      <point x="375" y="185" type="line"/>
      <point x="483" y="190" type="line"/>
      <point x="596" y="425" type="line"/>
      <point x="623" y="491" type="line"/>
      <point x="623" y="115" type="line"/>
      <point x="545" y="85" type="line"/>
      <point x="545" y="0" type="line"/>
      <point x="843" y="0" type="line"/>
      <point x="843" y="85" type="line"/>
      <point x="768" y="115" type="line"/>
      <point x="768" y="585" type="line"/>
      <point x="840" y="615" type="line"/>
      <point x="840" y="705" type="line"/>
      <point x="600" y="700" type="line"/>
      <point x="443" y="372" type="line"/>
      <point x="293" y="705" type="line"/>
      <point x="35" y="700" type="line"/>
      <point x="35" y="615" type="line"/>
      <point x="110" y="585" type="line"/>
      <point x="110" y="115" type="line"/>
      <point x="35" y="85" type="line"/>
      <point x="35" y="0" type="line"/>
      <point x="320" y="0" type="line"/>
    </contour>
  </outline>
</glyph>
<glyph name="N" format="1">
  <advance width="787"/>
  <unicode hex="004E"/>
  <outline>
    <contour>
      <point x="325" y="85" type="line"/>
      <point x="247" y="115" type="line"/>
      <point x="247" y="453" type="line"/>
      <point x="515" y="0" type="line"/>
      <point x="682" y="0" type="line"/>
      <point x="682" y="585" type="line"/>
      <point x="757" y="615" type="line"/>
      <point x="757" y="705" type="line"/>
      <point x="472" y="700" type="line"/>
      <point x="472" y="615" type="line"/>
      <point x="545" y="585" type="line"/>
      <point x="545" y="243" type="line"/>
      <point x="275" y="705" type="line"/>
      <point x="35" y="700" type="line"/>
      <point x="35" y="615" type="line"/>
      <point x="110" y="585" type="line"/>
      <point x="110" y="115" type="line"/>
      <point x="35" y="85" type="line"/>
      <point x="35" y="0" type="line"/>
      <point x="325" y="0" type="line"/>
    </contour>
  </outline>
</glyph>
<glyph name="O" format="1">
  <advance width="755"/>
  <unicode hex="004F"/>
  <outline>
    <contour>
      <point x="182" y="717"/>
      <point x="55" y="577"/>
      <point x="55" y="347" type="curve" smooth="yes"/>
      <point x="55" y="112"/>
      <point x="165" y="-13"/>
      <point x="365" y="-13" type="curve" smooth="yes"/>
      <point x="565" y="-13"/>
      <point x="700" y="137"/>
      <point x="700" y="362" type="curve" smooth="yes"/>
      <point x="700" y="585"/>
      <point x="585" y="717"/>
      <point x="385" y="717" type="curve" smooth="yes"/>
    </contour>
    <contour>
      <point x="480" y="592"/>
      <point x="530" y="522"/>
      <point x="530" y="357" type="curve" smooth="yes"/>
      <point x="530" y="177"/>
      <point x="470" y="112"/>
      <point x="370" y="112" type="curve" smooth="yes"/>
      <point x="270" y="112"/>
      <point x="225" y="187"/>
      <point x="225" y="352" type="curve" smooth="yes"/>
      <point x="225" y="530"/>
      <point x="280" y="592"/>
      <point x="380" y="592" type="curve" smooth="yes"/>
    </contour>
  </outline>
</glyph>
<glyph name="P" format="1">
  <advance width="623"/>
  <unicode hex="0050"/>
  <outline>
    <contour>
      <point x="340" y="85" type="line"/>
      <point x="265" y="115" type="line"/>
      <point x="265" y="245" type="line"/>
      <point x="318" y="245" type="line" smooth="yes"/>
      <point x="500" y="245"/>
      <point x="603" y="327"/>
      <point x="603" y="495" type="curve" smooth="yes"/>
      <point x="603" y="625"/>
      <point x="513" y="705"/>
      <point x="360" y="705" type="curve" smooth="yes"/>
      <point x="265" y="705" type="line"/>
      <point x="35" y="700" type="line"/>
      <point x="35" y="615" type="line"/>
      <point x="110" y="585" type="line"/>
      <point x="110" y="115" type="line"/>
      <point x="35" y="85" type="line"/>
      <point x="35" y="0" type="line"/>
      <point x="340" y="0" type="line"/>
    </contour>
    <contour>
      <point x="265" y="585" type="line"/>
      <point x="345" y="585" type="line" smooth="yes"/>
      <point x="413" y="585"/>
      <point x="448" y="540"/>
      <point x="448" y="475" type="curve" smooth="yes"/>
      <point x="448" y="401"/>
      <point x="401" y="362"/>
      <point x="318" y="362" type="curve" smooth="yes"/>
      <point x="265" y="362" type="line"/>
    </contour>
  </outline>
</glyph>
<glyph name="Q" format="1">
  <advance width="742"/>
  <unicode hex="0051"/>
  <outline>
    <contour>
      <point x="542" y="-147" type="line"/>
      <point x="586" y="-177"/>
      <point x="627" y="-200"/>
      <point x="670" y="-200" type="curve" smooth="yes"/>
      <point x="735" y="-200"/>
      <point x="840" y="-130"/>
      <point x="840" y="-130" type="curve"/>
      <point x="822" y="-103"/>
      <point x="805" y="-76"/>
      <point x="787" y="-50" type="curve"/>
      <point x="787" y="-50"/>
      <point x="727" y="-85"/>
      <point x="695" y="-85" type="curve" smooth="yes"/>
      <point x="634" y="-85"/>
      <point x="562" y="-27"/>
      <point x="502" y="11" type="curve"/>
      <point x="631" y="61"/>
      <point x="710" y="189"/>
      <point x="710" y="362" type="curve" smooth="yes"/>
      <point x="710" y="585"/>
      <point x="597" y="717"/>
      <point x="392" y="717" type="curve" smooth="yes"/>
      <point x="185" y="717"/>
      <point x="55" y="575"/>
      <point x="55" y="347" type="curve" smooth="yes"/>
      <point x="55" y="124"/>
      <point x="156" y="1"/>
      <point x="340" y="-11" type="curve"/>
    </contour>
    <contour>
      <point x="497" y="592"/>
      <point x="545" y="517"/>
      <point x="545" y="357" type="curve" smooth="yes"/>
      <point x="545" y="190"/>
      <point x="490" y="112"/>
      <point x="377" y="112" type="curve" smooth="yes"/>
      <point x="270" y="112"/>
      <point x="220" y="192"/>
      <point x="220" y="352" type="curve" smooth="yes"/>
      <point x="220" y="520"/>
      <point x="275" y="592"/>
      <point x="387" y="592" type="curve" smooth="yes"/>
    </contour>
  </outline>
</glyph>
<glyph name="R" format="1">
  <advance width="675"/>
  <unicode hex="0052"/>
  <outline>
    <contour>
      <point x="337" y="85" type="line"/>
      <point x="265" y="115" type="line"/>
      <point x="265" y="277" type="line"/>
      <point x="300" y="277" type="line" smooth="yes"/>
      <point x="353" y="277"/>
      <point x="362" y="261"/>
      <point x="396" y="185" type="curve" smooth="yes"/>
      <point x="480" y="0" type="line"/>
      <point x="665" y="0" type="line"/>
      <point x="665" y="85" type="line"/>
      <point x="597" y="110" type="line"/>
      <point x="530" y="247" type="line" smooth="yes"/>
      <point x="514" y="280"/>
      <point x="499" y="299"/>
      <point x="488" y="312" type="curve"/>
      <point x="556" y="346"/>
      <point x="601" y="407"/>
      <point x="601" y="501" type="curve" smooth="yes"/>
      <point x="601" y="637"/>
      <point x="505" y="705"/>
      <point x="341" y="705" type="curve" smooth="yes"/>
      <point x="265" y="705" type="line"/>
      <point x="35" y="700" type="line"/>
      <point x="35" y="615" type="line"/>
      <point x="110" y="585" type="line"/>
      <point x="110" y="115" type="line"/>
      <point x="35" y="85" type="line"/>
      <point x="35" y="0" type="line"/>
      <point x="337" y="0" type="line"/>
    </contour>
    <contour>
      <point x="265" y="585" type="line"/>
      <point x="347" y="585" type="line" smooth="yes"/>
      <point x="409" y="585"/>
      <point x="447" y="544"/>
      <point x="447" y="487" type="curve" smooth="yes"/>
      <point x="447" y="420"/>
      <point x="401" y="382"/>
      <point x="322" y="382" type="curve" smooth="yes"/>
      <point x="265" y="382" type="line"/>
    </contour>
  </outline>
</glyph>
<glyph name="S" format="1">
  <advance width="605"/>
  <unicode hex="0053"/>
  <outline>
    <contour>
      <point x="164" y="217" type="line"/>
      <point x="62" y="217" type="line"/>
      <point x="62" y="25" type="line"/>
      <point x="62" y="25"/>
      <point x="172" y="-13"/>
      <point x="285" y="-13" type="curve" smooth="yes"/>
      <point x="439" y="-13"/>
      <point x="555" y="69"/>
      <point x="555" y="219" type="curve" smooth="yes"/>
      <point x="555" y="454"/>
      <point x="218" y="408"/>
      <point x="218" y="524" type="curve" smooth="yes"/>
      <point x="218" y="564"/>
      <point x="253" y="595"/>
      <point x="324" y="595" type="curve" smooth="yes"/>
      <point x="367" y="595"/>
      <point x="412" y="580"/>
      <point x="412" y="580" type="curve"/>
      <point x="437" y="495" type="line"/>
      <point x="529" y="495" type="line"/>
      <point x="534" y="677" type="line"/>
      <point x="534" y="677"/>
      <point x="427" y="717"/>
      <point x="314" y="717" type="curve" smooth="yes"/>
      <point x="169" y="717"/>
      <point x="60" y="643"/>
      <point x="60" y="505" type="curve" smooth="yes"/>
      <point x="60" y="258"/>
      <point x="398" y="310"/>
      <point x="398" y="193" type="curve" smooth="yes"/>
      <point x="398" y="140"/>
      <point x="341" y="112"/>
      <point x="277" y="112" type="curve" smooth="yes"/>
      <point x="219" y="112"/>
      <point x="179" y="133"/>
      <point x="179" y="133" type="curve"/>
    </contour>
  </outline>
</glyph>
<glyph name="T" format="1">
  <advance width="600"/>
  <unicode hex="0054"/>
  <outline>
    <contour>
      <point x="127" y="0" type="line"/>
      <point x="472" y="0" type="line"/>
      <point x="472" y="85" type="line"/>
      <point x="377" y="115" type="line"/>
      <point x="377" y="585" type="line"/>
      <point x="472" y="585" type="line"/>
      <point x="497" y="490" type="line"/>
      <point x="590" y="490" type="line"/>
      <point x="590" y="705" type="line"/>
      <point x="10" y="705" type="line"/>
      <point x="10" y="490" type="line"/>
      <point x="102" y="490" type="line"/>
      <point x="127" y="585" type="line"/>
      <point x="222" y="585" type="line"/>
      <point x="222" y="115" type="line"/>
      <point x="127" y="85" type="line"/>
    </contour>
  </outline>
</glyph>
<glyph name="U" format="1">
  <advance width="789"/>
  <unicode hex="0055"/>
  <outline>
    <contour>
      <point x="264" y="585" type="line"/>
      <point x="342" y="615" type="line"/>
      <point x="342" y="705" type="line"/>
      <point x="35" y="700" type="line"/>
      <point x="35" y="615" type="line"/>
      <point x="109" y="585" type="line"/>
      <point x="109" y="270" type="line" smooth="yes"/>
      <point x="109" y="77"/>
      <point x="189" y="-12"/>
      <point x="390" y="-12" type="curve" smooth="yes"/>
      <point x="605" y="-12"/>
      <point x="679" y="92"/>
      <point x="679" y="285" type="curve" smooth="yes"/>
      <point x="679" y="585" type="line"/>
      <point x="754" y="615" type="line"/>
      <point x="754" y="705" type="line"/>
      <point x="446" y="700" type="line"/>
      <point x="446" y="615" type="line"/>
      <point x="524" y="585" type="line"/>
      <point x="524" y="285" type="line" smooth="yes"/>
      <point x="524" y="167"/>
      <point x="501" y="110"/>
      <point x="395" y="110" type="curve" smooth="yes"/>
      <point x="297" y="110"/>
      <point x="264" y="155"/>
      <point x="264" y="270" type="curve" smooth="yes"/>
    </contour>
  </outline>
</glyph>
<glyph name="V" format="1">
  <advance width="724"/>
  <unicode hex="0056"/>
  <outline>
    <contour>
      <point x="275" y="0" type="line"/>
      <point x="435" y="0" type="line"/>
      <point x="646" y="585" type="line"/>
      <point x="719" y="615" type="line"/>
      <point x="719" y="705" type="line"/>
      <point x="420" y="700" type="line"/>
      <point x="420" y="615" type="line"/>
      <point x="496" y="585" type="line"/>
      <point x="397" y="294" type="line"/>
      <point x="365" y="176" type="line"/>
      <point x="333" y="299" type="line"/>
      <point x="241" y="586" type="line"/>
      <point x="315" y="615" type="line"/>
      <point x="315" y="705" type="line"/>
      <point x="5" y="700" type="line"/>
      <point x="5" y="615" type="line"/>
      <point x="73" y="587" type="line"/>
    </contour>
  </outline>
</glyph>
<glyph name="W" format="1">
  <advance width="1035"/>
  <unicode hex="0057"/>
  <outline>
    <contour>
      <point x="237" y="0" type="line"/>
      <point x="375" y="0" type="line"/>
      <point x="490" y="380" type="line"/>
      <point x="514" y="475" type="line"/>
      <point x="645" y="0" type="line"/>
      <point x="787" y="0" type="line"/>
      <point x="958" y="585" type="line"/>
      <point x="1030" y="615" type="line"/>
      <point x="1030" y="705" type="line"/>
      <point x="745" y="700" type="line"/>
      <point x="745" y="615" type="line"/>
      <point x="820" y="585" type="line"/>
      <point x="724" y="226" type="line"/>
      <point x="590" y="705" type="line"/>
      <point x="455" y="697" type="line"/>
      <point x="315" y="225" type="line"/>
      <point x="229" y="585" type="line"/>
      <point x="302" y="615" type="line"/>
      <point x="302" y="705" type="line"/>
      <point x="5" y="700" type="line"/>
      <point x="5" y="615" type="line"/>
      <point x="75" y="586" type="line"/>
    </contour>
  </outline>
</glyph>
<glyph name="X" format="1">
  <advance width="740"/>
  <unicode hex="0058"/>
  <outline>
    <contour>
      <point x="307" y="85" type="line"/>
      <point x="244" y="109" type="line"/>
      <point x="356" y="253" type="line"/>
      <point x="466" y="105" type="line"/>
      <point x="420" y="85" type="line"/>
      <point x="420" y="0" type="line"/>
      <point x="730" y="0" type="line"/>
      <point x="730" y="85" type="line"/>
      <point x="660" y="109" type="line"/>
      <point x="465" y="362" type="line"/>
      <point x="649" y="595" type="line"/>
      <point x="715" y="615" type="line"/>
      <point x="715" y="705" type="line"/>
      <point x="427" y="700" type="line"/>
      <point x="427" y="615" type="line"/>
      <point x="481" y="594" type="line"/>
      <point x="383" y="461" type="line"/>
      <point x="280" y="598" type="line"/>
      <point x="330" y="615" type="line"/>
      <point x="330" y="705" type="line"/>
      <point x="30" y="700" type="line"/>
      <point x="30" y="615" type="line"/>
      <point x="88" y="596" type="line"/>
      <point x="274" y="354" type="line"/>
      <point x="72" y="110" type="line"/>
      <point x="10" y="85" type="line"/>
      <point x="10" y="0" type="line"/>
      <point x="307" y="0" type="line"/>
    </contour>
  </outline>
</glyph>
<glyph name="Y" format="1">
  <advance width="667"/>
  <unicode hex="0059"/>
  <outline>
    <contour>
      <point x="485" y="85" type="line"/>
      <point x="410" y="115" type="line"/>
      <point x="410" y="245" type="line"/>
      <point x="591" y="588" type="line"/>
      <point x="660" y="615" type="line"/>
      <point x="660" y="705" type="line"/>
      <point x="390" y="700" type="line"/>
      <point x="390" y="615" type="line"/>
      <point x="445" y="593" type="line"/>
      <point x="339" y="379" type="line"/>
      <point x="239" y="594" type="line"/>
      <point x="290" y="615" type="line"/>
      <point x="290" y="705" type="line"/>
      <point x="7" y="700" type="line"/>
      <point x="7" y="615" type="line"/>
      <point x="72" y="588" type="line"/>
      <point x="255" y="244" type="line"/>
      <point x="255" y="115" type="line"/>
      <point x="180" y="85" type="line"/>
      <point x="180" y="0" type="line"/>
      <point x="485" y="0" type="line"/>
    </contour>
  </outline>
</glyph>
<glyph name="Z" format="1">
  <advance width="615"/>
  <unicode hex="005A"/>
  <outline>
    <contour>
      <point x="582" y="0" type="line"/>
      <point x="582" y="220" type="line"/>
      <point x="487" y="220" type="line"/>
      <point x="465" y="120" type="line"/>
      <point x="237" y="120" type="line"/>
      <point x="585" y="592" type="line"/>
      <point x="585" y="705" type="line"/>
      <point x="55" y="705" type="line"/>
      <point x="55" y="495" type="line"/>
      <point x="150" y="495" type="line"/>
      <point x="175" y="585" type="line"/>
      <point x="385" y="585" type="line"/>
      <point x="30" y="105" type="line"/>
      <point x="30" y="0" type="line"/>
    </contour>
  </outline>
</glyph>
<glyph name="bracketleft" format="1">
  <advance width="352"/>
  <unicode hex="005B"/>
  <outline>
    <contour>
      <point x="317" y="-123" type="line"/>
      <point x="198" y="-112" type="line"/>
      <point x="198" y="651" type="line"/>
      <point x="317" y="662" type="line"/>
      <point x="317" y="765" type="line"/>
      <point x="67" y="770" type="line"/>
      <point x="67" y="-230" type="line"/>
      <point x="317" y="-225" type="line"/>
    </contour>
  </outline>
</glyph>
<glyph name="backslash" format="1">
  <advance width="506"/>
  <unicode hex="005C"/>
  <outline>
    <contour>
      <point x="160" y="705" type="line"/>
      <point x="7" y="705" type="line"/>
      <point x="341" y="0" type="line"/>
      <point x="493" y="0" type="line"/>
    </contour>
  </outline>
</glyph>
<glyph name="bracketright" format="1">
  <advance width="352"/>
  <unicode hex="005D"/>
  <outline>
    <contour>
      <point x="32" y="-225" type="line"/>
      <point x="282" y="-230" type="line"/>
      <point x="282" y="770" type="line"/>
      <point x="32" y="765" type="line"/>
      <point x="32" y="662" type="line"/>
      <point x="152" y="651" type="line"/>
      <point x="152" y="-111" type="line"/>
      <point x="32" y="-122" type="line"/>
    </contour>
  </outline>
</glyph>
<glyph name="asciicircum" format="1">
  <advance width="595"/>
  <unicode hex="005E"/>
  <outline>
    <contour>
      <point x="295" y="565" type="line"/>
      <point x="416" y="320" type="line"/>
      <point x="545" y="320" type="line"/>
      <point x="352" y="705" type="line"/>
      <point x="242" y="705" type="line"/>
      <point x="50" y="320" type="line"/>
      <point x="175" y="320" type="line"/>
    </contour>
  </outline>
</glyph>
<glyph name="underscore" format="1">
  <advance width="496"/>
  <unicode hex="005F"/>
  <outline>
    <contour>
      <point x="-2" y="-180" type="line"/>
      <point x="498" y="-180" type="line"/>
      <point x="498" y="-80" type="line"/>
      <point x="-2" y="-80" type="line"/>
    </contour>
  </outline>
</glyph>
<glyph name="a" format="1">
  <advance width="601"/>
  <unicode hex="0061"/>
  <outline>
    <contour>
      <point x="576" y="7" type="line"/>
      <point x="576" y="87" type="line"/>
      <point x="501" y="105" type="line"/>
      <point x="501" y="352" type="line" smooth="yes"/>
      <point x="501" y="497"/>
      <point x="443" y="550"/>
      <point x="291" y="550" type="curve" smooth="yes"/>
      <point x="195" y="550"/>
      <point x="74" y="510"/>
      <point x="74" y="510" type="curve"/>
      <point x="81" y="362" type="line"/>
      <point x="171" y="362" type="line"/>
      <point x="186" y="425" type="line"/>
      <point x="186" y="425"/>
      <point x="223" y="440"/>
      <point x="274" y="440" type="curve" smooth="yes"/>
      <point x="324" y="440"/>
      <point x="351" y="418"/>
      <point x="351" y="367" type="curve" smooth="yes"/>
      <point x="351" y="312" type="line"/>
      <point x="281" y="312" type="line" smooth="yes"/>
      <point x="129" y="312"/>
      <point x="40" y="265"/>
      <point x="40" y="147" type="curve" smooth="yes"/>
      <point x="40" y="47"/>
      <point x="99" y="-10"/>
      <point x="196" y="-10" type="curve" smooth="yes"/>
      <point x="281" y="-10"/>
      <point x="358" y="65"/>
      <point x="358" y="65" type="curve"/>
      <point x="376" y="0" type="line"/>
    </contour>
    <contour>
      <point x="185" y="207"/>
      <point x="216" y="227"/>
      <point x="294" y="227" type="curve" smooth="yes"/>
      <point x="351" y="227" type="line"/>
      <point x="351" y="160" type="line"/>
      <point x="351" y="160"/>
      <point x="297" y="102"/>
      <point x="244" y="102" type="curve" smooth="yes"/>
      <point x="206" y="102"/>
      <point x="185" y="124"/>
      <point x="185" y="162" type="curve" smooth="yes"/>
    </contour>
  </outline>
</glyph>
<glyph name="b" format="1">
  <advance width="618"/>
  <unicode hex="0062"/>
  <outline>
    <contour>
      <point x="5" y="767" type="line"/>
      <point x="5" y="687" type="line"/>
      <point x="80" y="667" type="line"/>
      <point x="80" y="10" type="line"/>
      <point x="80" y="10"/>
      <point x="178" y="-12"/>
      <point x="288" y="-12" type="curve" smooth="yes"/>
      <point x="480" y="-12"/>
      <point x="578" y="97"/>
      <point x="578" y="285" type="curve" smooth="yes"/>
      <point x="578" y="453"/>
      <point x="507" y="550"/>
      <point x="373" y="550" type="curve" smooth="yes"/>
      <point x="297" y="550"/>
      <point x="247" y="510"/>
      <point x="230" y="497" type="curve"/>
      <point x="230" y="775" type="line"/>
    </contour>
    <contour>
      <point x="230" y="385" type="line"/>
      <point x="230" y="385"/>
      <point x="265" y="430"/>
      <point x="325" y="430" type="curve" smooth="yes"/>
      <point x="395" y="430"/>
      <point x="423" y="375"/>
      <point x="423" y="275" type="curve" smooth="yes"/>
      <point x="423" y="174"/>
      <point x="391" y="108"/>
      <point x="304" y="108" type="curve" smooth="yes"/>
      <point x="253" y="108"/>
      <point x="230" y="116"/>
      <point x="230" y="116" type="curve"/>
    </contour>
  </outline>
</glyph>
<glyph name="d" format="1">
  <advance width="638"/>
  <unicode hex="0064"/>
  <outline>
    <contour>
      <point x="618" y="7" type="line"/>
      <point x="618" y="87" type="line"/>
      <point x="538" y="107" type="line"/>
      <point x="538" y="775" type="line"/>
      <point x="308" y="767" type="line"/>
      <point x="308" y="687" type="line"/>
      <point x="388" y="667" type="line"/>
      <point x="388" y="540" type="line"/>
      <point x="366" y="545"/>
      <point x="337" y="550"/>
      <point x="313" y="550" type="curve" smooth="yes"/>
      <point x="130" y="550"/>
      <point x="40" y="445"/>
      <point x="40" y="257" type="curve" smooth="yes"/>
      <point x="40" y="92"/>
      <point x="105" y="-10"/>
      <point x="245" y="-10" type="curve" smooth="yes"/>
      <point x="331" y="-10"/>
      <point x="382" y="39"/>
      <point x="396" y="53" type="curve"/>
      <point x="405" y="0" type="line"/>
    </contour>
    <contour>
      <point x="388" y="167" type="line"/>
      <point x="388" y="167"/>
      <point x="355" y="110"/>
      <point x="291" y="110" type="curve" smooth="yes"/>
      <point x="223" y="110"/>
      <point x="195" y="164"/>
      <point x="195" y="265" type="curve" smooth="yes"/>
      <point x="195" y="365"/>
      <point x="225" y="430"/>
      <point x="310" y="430" type="curve" smooth="yes"/>
      <point x="339" y="430"/>
      <point x="369" y="424"/>
      <point x="388" y="415" type="curve"/>
    </contour>
  </outline>
</glyph>
<glyph name="e" format="1">
  <advance width="564"/>
  <unicode hex="0065"/>
  <outline>
    <contour>
      <point x="523" y="240" type="line"/>
      <point x="523" y="240"/>
      <point x="529" y="277"/>
      <point x="529" y="315" type="curve" smooth="yes"/>
      <point x="529" y="458"/>
      <point x="451" y="550"/>
      <point x="302" y="550" type="curve" smooth="yes"/>
      <point x="134" y="550"/>
      <point x="35" y="435"/>
      <point x="35" y="260" type="curve" smooth="yes"/>
      <point x="35" y="90"/>
      <point x="123" y="-10"/>
      <point x="295" y="-10" type="curve" smooth="yes"/>
      <point x="423" y="-10"/>
      <point x="523" y="74"/>
      <point x="523" y="74" type="curve"/>
      <point x="480" y="157" type="line"/>
      <point x="480" y="157"/>
      <point x="395" y="110"/>
      <point x="312" y="110" type="curve" smooth="yes"/>
      <point x="243" y="110"/>
      <point x="197" y="157"/>
      <point x="191" y="237" type="curve"/>
    </contour>
    <contour>
      <point x="350" y="430"/>
      <point x="374" y="387"/>
      <point x="374" y="330" type="curve"/>
      <point x="193" y="330" type="line"/>
      <point x="201" y="389"/>
      <point x="236" y="430"/>
      <point x="292" y="430" type="curve" smooth="yes"/>
    </contour>
  </outline>
</glyph>
<glyph name="f" format="1">
  <advance width="462"/>
  <unicode hex="0066"/>
  <outline>
    <contour>
      <point x="130" y="530" type="line"/>
      <point x="40" y="515" type="line"/>
      <point x="40" y="430" type="line"/>
      <point x="130" y="430" type="line"/>
      <point x="130" y="105" type="line"/>
      <point x="50" y="80" type="line"/>
      <point x="50" y="0" type="line"/>
      <point x="380" y="0" type="line"/>
      <point x="380" y="80" type="line"/>
      <point x="280" y="105" type="line"/>
      <point x="280" y="430" type="line"/>
      <point x="407" y="430" type="line"/>
      <point x="410" y="530" type="line"/>
      <point x="280" y="530" type="line"/>
      <point x="280" y="592" type="line" smooth="yes"/>
      <point x="280" y="644"/>
      <point x="302" y="677"/>
      <point x="357" y="677" type="curve" smooth="yes"/>
      <point x="390" y="677"/>
      <point x="414" y="673"/>
      <point x="414" y="673" type="curve"/>
      <point x="429" y="603" type="line"/>
      <point x="519" y="603" type="line"/>
      <point x="522" y="750" type="line"/>
      <point x="522" y="750"/>
      <point x="453" y="787"/>
      <point x="345" y="787" type="curve" smooth="yes"/>
      <point x="203" y="787"/>
      <point x="130" y="702"/>
      <point x="130" y="575" type="curve" smooth="yes"/>
    </contour>
  </outline>
</glyph>
<glyph name="g" format="1">
  <advance width="610"/>
  <unicode hex="0067"/>
  <outline>
    <contour>
      <point x="40" y="-220"/>
      <point x="141" y="-255"/>
      <point x="298" y="-255" type="curve" smooth="yes"/>
      <point x="490" y="-255"/>
      <point x="578" y="-175"/>
      <point x="578" y="-65" type="curve" smooth="yes"/>
      <point x="578" y="35"/>
      <point x="505" y="90"/>
      <point x="378" y="90" type="curve" smooth="yes"/>
      <point x="230" y="90" type="line"/>
      <point x="234" y="157" type="line"/>
      <point x="238" y="157"/>
      <point x="258" y="152"/>
      <point x="285" y="152" type="curve" smooth="yes"/>
      <point x="423" y="152"/>
      <point x="525" y="212"/>
      <point x="525" y="357" type="curve" smooth="yes"/>
      <point x="525" y="400"/>
      <point x="510" y="427"/>
      <point x="508" y="436" type="curve"/>
      <point x="590" y="450" type="line"/>
      <point x="590" y="530" type="line"/>
      <point x="418" y="526" type="line"/>
      <point x="399" y="535"/>
      <point x="358" y="550"/>
      <point x="300" y="550" type="curve" smooth="yes"/>
      <point x="163" y="550"/>
      <point x="60" y="482"/>
      <point x="60" y="345" type="curve" smooth="yes"/>
      <point x="60" y="248"/>
      <point x="113" y="205"/>
      <point x="137" y="189" type="curve"/>
      <point x="125" y="170"/>
      <point x="85" y="105"/>
      <point x="85" y="76" type="curve" smooth="yes"/>
      <point x="85" y="19"/>
      <point x="145" y="10"/>
      <point x="145" y="10" type="curve"/>
      <point x="145" y="10"/>
      <point x="40" y="-24"/>
      <point x="40" y="-110" type="curve" smooth="yes"/>
    </contour>
    <contour>
      <point x="350" y="447"/>
      <point x="375" y="415"/>
      <point x="375" y="352" type="curve" smooth="yes"/>
      <point x="375" y="285"/>
      <point x="353" y="252"/>
      <point x="290" y="252" type="curve" smooth="yes"/>
      <point x="233" y="252"/>
      <point x="210" y="292"/>
      <point x="210" y="352" type="curve" smooth="yes"/>
      <point x="210" y="415"/>
      <point x="235" y="447"/>
      <point x="295" y="447" type="curve" smooth="yes"/>
    </contour>
    <contour>
      <point x="338" y="-20" type="line"/>
      <point x="405" y="-20"/>
      <point x="438" y="-32"/>
      <point x="438" y="-77" type="curve" smooth="yes"/>
      <point x="438" y="-125"/>
      <point x="400" y="-145"/>
      <point x="310" y="-145" type="curve" smooth="yes"/>
      <point x="228" y="-145"/>
      <point x="185" y="-135"/>
      <point x="185" y="-85" type="curve" smooth="yes"/>
      <point x="185" y="-42"/>
      <point x="233" y="-20"/>
      <point x="233" y="-20" type="curve"/>
    </contour>
  </outline>
</glyph>
<glyph name="i" format="1">
  <advance width="365"/>
  <unicode hex="0069"/>
  <outline>
    <contour>
      <point x="35" y="535" type="line"/>
      <point x="35" y="455" type="line"/>
      <point x="115" y="430" type="line"/>
      <point x="115" y="105" type="line"/>
      <point x="35" y="80" type="line"/>
      <point x="35" y="0" type="line"/>
      <point x="335" y="0" type="line"/>
      <point x="335" y="80" type="line"/>
      <point x="265" y="105" type="line"/>
      <point x="265" y="540" type="line"/>
    </contour>
    <contour>
      <point x="97" y="646"/>
      <point x="129" y="614"/>
      <point x="183" y="614" type="curve" smooth="yes"/>
      <point x="224" y="614"/>
      <point x="267" y="646"/>
      <point x="267" y="705" type="curve" smooth="yes"/>
      <point x="267" y="768"/>
      <point x="235" y="795"/>
      <point x="183" y="795" type="curve" smooth="yes"/>
      <point x="138" y="795"/>
      <point x="97" y="762"/>
      <point x="97" y="705" type="curve" smooth="yes"/>
    </contour>
  </outline>
</glyph>
<glyph name="j" format="1">
  <advance width="337"/>
  <unicode hex="006A"/>
  <outline>
    <contour>
      <point x="214" y="-245"/>
      <point x="265" y="-160"/>
      <point x="265" y="13" type="curve" smooth="yes"/>
      <point x="265" y="540" type="line"/>
      <point x="35" y="535" type="line"/>
      <point x="35" y="455" type="line"/>
      <point x="115" y="430" type="line"/>
      <point x="115" y="-41" type="line" smooth="yes"/>
      <point x="115" y="-105"/>
      <point x="93" y="-140"/>
      <point x="33" y="-140" type="curve" smooth="yes"/>
      <point x="-19" y="-140" type="line"/>
      <point x="-31" y="-238" type="line"/>
      <point x="-31" y="-238"/>
      <point x="13" y="-245"/>
      <point x="45" y="-245" type="curve" smooth="yes"/>
    </contour>
    <contour>
      <point x="97" y="646"/>
      <point x="129" y="614"/>
      <point x="183" y="614" type="curve" smooth="yes"/>
      <point x="228" y="614"/>
      <point x="267" y="650"/>
      <point x="267" y="705" type="curve" smooth="yes"/>
      <point x="267" y="766"/>
      <point x="237" y="795"/>
      <point x="183" y="795" type="curve" smooth="yes"/>
      <point x="135" y="795"/>
      <point x="97" y="759"/>
      <point x="97" y="705" type="curve" smooth="yes"/>
    </contour>
  </outline>
</glyph>
<glyph name="k" format="1">
  <advance width="633"/>
  <unicode hex="006B"/>
  <outline>
    <contour>
      <point x="20" y="767" type="line"/>
      <point x="20" y="687" type="line"/>
      <point x="100" y="667" type="line"/>
      <point x="100" y="105" type="line"/>
      <point x="20" y="80" type="line"/>
      <point x="20" y="0" type="line"/>
      <point x="305" y="0" type="line"/>
      <point x="305" y="80" type="line"/>
      <point x="250" y="105" type="line"/>
      <point x="250" y="244" type="line"/>
      <point x="314" y="244" type="line"/>
      <point x="438" y="0" type="line"/>
      <point x="623" y="0" type="line"/>
      <point x="623" y="80" type="line"/>
      <point x="547" y="104" type="line"/>
      <point x="435" y="311" type="line"/>
      <point x="528" y="442" type="line"/>
      <point x="598" y="455" type="line"/>
      <point x="598" y="540" type="line"/>
      <point x="340" y="535" type="line"/>
      <point x="340" y="455" type="line"/>
      <point x="384" y="441" type="line"/>
      <point x="316" y="339" type="line"/>
      <point x="250" y="339" type="line"/>
      <point x="250" y="775" type="line"/>
    </contour>
  </outline>
</glyph>
<glyph name="l" format="1">
  <advance width="346"/>
  <unicode hex="006C"/>
  <outline>
    <contour>
      <point x="20" y="767" type="line"/>
      <point x="20" y="687" type="line"/>
      <point x="100" y="667" type="line"/>
      <point x="100" y="105" type="line"/>
      <point x="20" y="80" type="line"/>
      <point x="20" y="0" type="line"/>
      <point x="341" y="0" type="line"/>
      <point x="341" y="80" type="line"/>
      <point x="251" y="105" type="line"/>
      <point x="251" y="775" type="line"/>
    </contour>
  </outline>
</glyph>
<glyph name="m" format="1">
  <advance width="993"/>
  <unicode hex="006D"/>
  <outline>
    <contour>
      <point x="900" y="370" type="line"/>
      <point x="900" y="482"/>
      <point x="851" y="550"/>
      <point x="746" y="550" type="curve" smooth="yes"/>
      <point x="657" y="550"/>
      <point x="582" y="481"/>
      <point x="565" y="464" type="curve"/>
      <point x="542" y="517"/>
      <point x="498" y="550"/>
      <point x="427" y="550" type="curve" smooth="yes"/>
      <point x="339" y="550"/>
      <point x="252" y="469"/>
      <point x="252" y="469" type="curve"/>
      <point x="245" y="540" type="line"/>
      <point x="36" y="535" type="line"/>
      <point x="36" y="455" type="line"/>
      <point x="112" y="430" type="line"/>
      <point x="112" y="105" type="line"/>
      <point x="35" y="80" type="line"/>
      <point x="35" y="0" type="line"/>
      <point x="315" y="0" type="line"/>
      <point x="315" y="80" type="line"/>
      <point x="262" y="105" type="line"/>
      <point x="262" y="373" type="line"/>
      <point x="262" y="373"/>
      <point x="309" y="425"/>
      <point x="374" y="425" type="curve" smooth="yes"/>
      <point x="417" y="425"/>
      <point x="431" y="398"/>
      <point x="431" y="343" type="curve" smooth="yes"/>
      <point x="431" y="105" type="line"/>
      <point x="379" y="80" type="line"/>
      <point x="379" y="0" type="line"/>
      <point x="633" y="0" type="line"/>
      <point x="633" y="80" type="line"/>
      <point x="581" y="105" type="line"/>
      <point x="581" y="373" type="line"/>
      <point x="581" y="373"/>
      <point x="627" y="425"/>
      <point x="692" y="425" type="curve" smooth="yes"/>
      <point x="734" y="425"/>
      <point x="750" y="398"/>
      <point x="750" y="343" type="curve" smooth="yes"/>
      <point x="750" y="105" type="line"/>
      <point x="697" y="80" type="line"/>
      <point x="697" y="0" type="line"/>
      <point x="968" y="0" type="line"/>
      <point x="968" y="80" type="line"/>
      <point x="900" y="105" type="line"/>
    </contour>
  </outline>
</glyph>
<glyph name="n" format="1">
  <advance width="685"/>
  <unicode hex="006E"/>
  <outline>
    <contour>
      <point x="35" y="535" type="line"/>
      <point x="35" y="455" type="line"/>
      <point x="115" y="430" type="line"/>
      <point x="115" y="105" type="line"/>
      <point x="35" y="80" type="line"/>
      <point x="35" y="0" type="line"/>
      <point x="320" y="0" type="line"/>
      <point x="320" y="80" type="line"/>
      <point x="265" y="105" type="line"/>
      <point x="265" y="366" type="line"/>
      <point x="265" y="366"/>
      <point x="310" y="423"/>
      <point x="372" y="423" type="curve" smooth="yes"/>
      <point x="414" y="423"/>
      <point x="440" y="389"/>
      <point x="440" y="343" type="curve" smooth="yes"/>
      <point x="440" y="105" type="line"/>
      <point x="385" y="80" type="line"/>
      <point x="385" y="0" type="line"/>
      <point x="660" y="0" type="line"/>
      <point x="660" y="80" type="line"/>
      <point x="590" y="105" type="line"/>
      <point x="590" y="370" type="line" smooth="yes"/>
      <point x="590" y="479"/>
      <point x="535" y="548"/>
      <point x="438" y="548" type="curve" smooth="yes"/>
      <point x="349" y="548"/>
      <point x="254" y="471"/>
      <point x="254" y="471" type="curve"/>
      <point x="247" y="540" type="line"/>
    </contour>
  </outline>
</glyph>
<glyph name="o" format="1">
  <advance width="592"/>
  <unicode hex="006F"/>
  <outline>
    <contour>
      <point x="142" y="550"/>
      <point x="35" y="445"/>
      <point x="35" y="265" type="curve" smooth="yes"/>
      <point x="35" y="75"/>
      <point x="127" y="-10"/>
      <point x="290" y="-10" type="curve" smooth="yes"/>
      <point x="452" y="-10"/>
      <point x="557" y="100"/>
      <point x="557" y="280" type="curve" smooth="yes"/>
      <point x="557" y="452"/>
      <point x="467" y="550"/>
      <point x="305" y="550" type="curve" smooth="yes"/>
    </contour>
    <contour>
      <point x="372" y="430"/>
      <point x="402" y="377"/>
      <point x="402" y="275" type="curve" smooth="yes"/>
      <point x="402" y="155"/>
      <point x="367" y="110"/>
      <point x="295" y="110" type="curve" smooth="yes"/>
      <point x="222" y="110"/>
      <point x="190" y="160"/>
      <point x="190" y="270" type="curve" smooth="yes"/>
      <point x="190" y="390"/>
      <point x="227" y="430"/>
      <point x="300" y="430" type="curve" smooth="yes"/>
    </contour>
  </outline>
</glyph>
<glyph name="p" format="1">
  <advance width="638"/>
  <unicode hex="0070"/>
  <outline>
    <contour>
      <point x="100" y="430" type="line"/>
      <point x="100" y="-127" type="line"/>
      <point x="22" y="-150" type="line"/>
      <point x="22" y="-230" type="line"/>
      <point x="345" y="-230" type="line"/>
      <point x="345" y="-150" type="line"/>
      <point x="250" y="-127" type="line"/>
      <point x="250" y="0" type="line"/>
      <point x="276" y="-6"/>
      <point x="306" y="-10"/>
      <point x="335" y="-10" type="curve" smooth="yes"/>
      <point x="510" y="-10"/>
      <point x="598" y="100"/>
      <point x="598" y="285" type="curve" smooth="yes"/>
      <point x="598" y="447"/>
      <point x="529" y="550"/>
      <point x="390" y="550" type="curve" smooth="yes"/>
      <point x="310" y="550"/>
      <point x="242" y="484"/>
      <point x="242" y="484" type="curve"/>
      <point x="233" y="540" type="line"/>
      <point x="20" y="535" type="line"/>
      <point x="20" y="455" type="line"/>
    </contour>
    <contour>
      <point x="250" y="375" type="line"/>
      <point x="250" y="375"/>
      <point x="278" y="430"/>
      <point x="343" y="430" type="curve" smooth="yes"/>
      <point x="416" y="430"/>
      <point x="443" y="368"/>
      <point x="443" y="267" type="curve" smooth="yes"/>
      <point x="443" y="165"/>
      <point x="414" y="105"/>
      <point x="328" y="105" type="curve" smooth="yes"/>
      <point x="290" y="105"/>
      <point x="266" y="113"/>
      <point x="250" y="120" type="curve"/>
    </contour>
  </outline>
</glyph>
<glyph name="q" format="1">
  <advance width="598"/>
  <unicode hex="0071"/>
  <outline>
    <contour>
      <point x="533" y="-125" type="line"/>
      <point x="533" y="526" type="line"/>
      <point x="533" y="526"/>
      <point x="435" y="550"/>
      <point x="325" y="550" type="curve" smooth="yes"/>
      <point x="133" y="550"/>
      <point x="35" y="437"/>
      <point x="35" y="255" type="curve" smooth="yes"/>
      <point x="35" y="95"/>
      <point x="100" y="-10"/>
      <point x="240" y="-10" type="curve" smooth="yes"/>
      <point x="317" y="-10"/>
      <point x="383" y="44"/>
      <point x="383" y="44" type="curve"/>
      <point x="383" y="-125" type="line"/>
      <point x="288" y="-150" type="line"/>
      <point x="288" y="-230" type="line"/>
      <point x="608" y="-230" type="line"/>
      <point x="608" y="-150" type="line"/>
    </contour>
    <contour>
      <point x="383" y="155" type="line"/>
      <point x="383" y="155"/>
      <point x="351" y="110"/>
      <point x="289" y="110" type="curve" smooth="yes"/>
      <point x="218" y="110"/>
      <point x="190" y="165"/>
      <point x="190" y="265" type="curve" smooth="yes"/>
      <point x="190" y="365"/>
      <point x="222" y="435"/>
      <point x="305" y="435" type="curve" smooth="yes"/>
      <point x="355" y="435"/>
      <point x="383" y="427"/>
      <point x="383" y="427" type="curve"/>
    </contour>
  </outline>
</glyph>
<glyph name="r" format="1">
  <advance width="491"/>
  <unicode hex="0072"/>
  <outline>
    <contour>
      <point x="35" y="535" type="line"/>
      <point x="35" y="455" type="line"/>
      <point x="115" y="430" type="line"/>
      <point x="115" y="105" type="line"/>
      <point x="35" y="80" type="line"/>
      <point x="35" y="0" type="line"/>
      <point x="365" y="0" type="line"/>
      <point x="365" y="80" type="line"/>
      <point x="265" y="105" type="line"/>
      <point x="265" y="369" type="line"/>
      <point x="265" y="369"/>
      <point x="315" y="425"/>
      <point x="373" y="425" type="curve"/>
      <point x="388" y="340" type="line"/>
      <point x="478" y="340" type="line"/>
      <point x="486" y="532" type="line"/>
      <point x="486" y="532"/>
      <point x="448" y="550"/>
      <point x="393" y="550" type="curve" smooth="yes"/>
      <point x="326" y="550"/>
      <point x="254" y="471"/>
      <point x="254" y="471" type="curve"/>
      <point x="245" y="540" type="line"/>
    </contour>
  </outline>
</glyph>
<glyph name="s" format="1">
  <advance width="487"/>
  <unicode hex="0073"/>
  <outline>
    <contour>
      <point x="128" y="175" type="line"/>
      <point x="38" y="175" type="line"/>
      <point x="38" y="12" type="line"/>
      <point x="38" y="12"/>
      <point x="127" y="-10"/>
      <point x="222" y="-10" type="curve" smooth="yes"/>
      <point x="359" y="-10"/>
      <point x="452" y="55"/>
      <point x="452" y="170" type="curve" smooth="yes"/>
      <point x="452" y="343"/>
      <point x="185" y="308"/>
      <point x="185" y="389" type="curve" smooth="yes"/>
      <point x="185" y="422"/>
      <point x="211" y="440"/>
      <point x="254" y="440" type="curve" smooth="yes"/>
      <point x="294" y="440"/>
      <point x="323" y="430"/>
      <point x="323" y="430" type="curve"/>
      <point x="338" y="370" type="line"/>
      <point x="423" y="370" type="line"/>
      <point x="427" y="520" type="line"/>
      <point x="427" y="520"/>
      <point x="331" y="550"/>
      <point x="241" y="550" type="curve" smooth="yes"/>
      <point x="135" y="550"/>
      <point x="35" y="504"/>
      <point x="35" y="379" type="curve" smooth="yes"/>
      <point x="35" y="201"/>
      <point x="302" y="231"/>
      <point x="302" y="149" type="curve" smooth="yes"/>
      <point x="302" y="117"/>
      <point x="275" y="100"/>
      <point x="220" y="100" type="curve" smooth="yes"/>
      <point x="171" y="100"/>
      <point x="136" y="110"/>
      <point x="136" y="110" type="curve"/>
    </contour>
  </outline>
</glyph>
<glyph name="t" format="1">
  <advance width="436"/>
  <unicode hex="0074"/>
  <outline>
    <contour>
      <point x="321" y="-10"/>
      <point x="377" y="16"/>
      <point x="426" y="52" type="curve"/>
      <point x="390" y="128" type="line"/>
      <point x="377" y="121"/>
      <point x="338" y="105"/>
      <point x="311" y="105" type="curve" smooth="yes"/>
      <point x="269" y="105"/>
      <point x="258" y="131"/>
      <point x="258" y="195" type="curve" smooth="yes"/>
      <point x="258" y="415" type="line"/>
      <point x="398" y="415" type="line"/>
      <point x="398" y="525" type="line"/>
      <point x="258" y="525" type="line"/>
      <point x="258" y="690" type="line"/>
      <point x="108" y="663" type="line"/>
      <point x="108" y="525" type="line"/>
      <point x="15" y="512" type="line"/>
      <point x="15" y="415" type="line"/>
      <point x="108" y="415" type="line"/>
      <point x="108" y="185" type="line" smooth="yes"/>
      <point x="108" y="70"/>
      <point x="141" y="-10"/>
      <point x="256" y="-10" type="curve" smooth="yes"/>
    </contour>
  </outline>
</glyph>
<glyph name="u" format="1">
  <advance width="669"/>
  <unicode hex="0075"/>
  <outline>
    <contour>
      <point x="95" y="169" type="line"/>
      <point x="95" y="57"/>
      <point x="153" y="-10"/>
      <point x="253" y="-10" type="curve" smooth="yes"/>
      <point x="348" y="-10"/>
      <point x="428" y="70"/>
      <point x="428" y="70" type="curve"/>
      <point x="438" y="0" type="line"/>
      <point x="649" y="7" type="line"/>
      <point x="649" y="85" type="line"/>
      <point x="569" y="105" type="line"/>
      <point x="569" y="540" type="line"/>
      <point x="339" y="535" type="line"/>
      <point x="339" y="455" type="line"/>
      <point x="419" y="430" type="line"/>
      <point x="419" y="169" type="line"/>
      <point x="419" y="169"/>
      <point x="371" y="115"/>
      <point x="306" y="115" type="curve" smooth="yes"/>
      <point x="261" y="115"/>
      <point x="245" y="140"/>
      <point x="245" y="195" type="curve" smooth="yes"/>
      <point x="245" y="540" type="line"/>
      <point x="15" y="535" type="line"/>
      <point x="15" y="455" type="line"/>
      <point x="95" y="430" type="line"/>
    </contour>
  </outline>
</glyph>
<glyph name="v" format="1">
  <advance width="599"/>
  <unicode hex="0076"/>
  <outline>
    <contour>
      <point x="302" y="150" type="line"/>
      <point x="211" y="445" type="line"/>
      <point x="267" y="455" type="line"/>
      <point x="267" y="540" type="line"/>
      <point x="5" y="535" type="line"/>
      <point x="5" y="455" type="line"/>
      <point x="53" y="439" type="line"/>
      <point x="211" y="0" type="line"/>
      <point x="376" y="0" type="line"/>
      <point x="537" y="442" type="line"/>
      <point x="594" y="455" type="line"/>
      <point x="594" y="540" type="line"/>
      <point x="332" y="535" type="line"/>
      <point x="332" y="455" type="line"/>
      <point x="390" y="442" type="line"/>
    </contour>
  </outline>
</glyph>
<glyph name="w" format="1">
  <advance width="876"/>
  <unicode hex="0077"/>
  <outline>
    <contour>
      <point x="508" y="545" type="line"/>
      <point x="376" y="523" type="line"/>
      <point x="270" y="162" type="line"/>
      <point x="204" y="443" type="line"/>
      <point x="267" y="455" type="line"/>
      <point x="267" y="540" type="line"/>
      <point x="5" y="535" type="line"/>
      <point x="5" y="455" type="line"/>
      <point x="49" y="441" type="line"/>
      <point x="185" y="0" type="line"/>
      <point x="337" y="0" type="line"/>
      <point x="410" y="224" type="line"/>
      <point x="435" y="333" type="line"/>
      <point x="453" y="255" type="line"/>
      <point x="532" y="0" type="line"/>
      <point x="685" y="0" type="line"/>
      <point x="818" y="443" type="line"/>
      <point x="871" y="455" type="line"/>
      <point x="871" y="540" type="line"/>
      <point x="615" y="535" type="line"/>
      <point x="615" y="455" type="line"/>
      <point x="676" y="440" type="line"/>
      <point x="617" y="162" type="line"/>
    </contour>
  </outline>
</glyph>
<glyph name="x" format="1">
  <advance width="582"/>
  <unicode hex="0078"/>
  <outline>
    <contour>
      <point x="400" y="535" type="line"/>
      <point x="296" y="361" type="line"/>
      <point x="244" y="449" type="line"/>
      <point x="274" y="455" type="line"/>
      <point x="274" y="540" type="line"/>
      <point x="15" y="535" type="line"/>
      <point x="15" y="455" type="line"/>
      <point x="69" y="442" type="line"/>
      <point x="190" y="265" type="line"/>
      <point x="80" y="100" type="line"/>
      <point x="5" y="80" type="line"/>
      <point x="5" y="0" type="line"/>
      <point x="175" y="0" type="line"/>
      <point x="283" y="179" type="line"/>
      <point x="336" y="91" type="line"/>
      <point x="305" y="80" type="line"/>
      <point x="305" y="0" type="line"/>
      <point x="577" y="0" type="line"/>
      <point x="577" y="80" type="line"/>
      <point x="503" y="100" type="line"/>
      <point x="390" y="270" type="line"/>
      <point x="505" y="442" type="line"/>
      <point x="567" y="455" type="line"/>
      <point x="567" y="540" type="line"/>
    </contour>
  </outline>
</glyph>
<glyph name="y" format="1">
  <advance width="601"/>
  <unicode hex="0079"/>
  <outline>
    <contour>
      <point x="236" y="-1" type="line"/>
      <point x="219" y="-40"/>
      <point x="182" y="-125"/>
      <point x="102" y="-125" type="curve" smooth="yes"/>
      <point x="37" y="-125" type="line"/>
      <point x="23" y="-232" type="line"/>
      <point x="23" y="-232"/>
      <point x="86" y="-240"/>
      <point x="120" y="-240" type="curve" smooth="yes"/>
      <point x="279" y="-240"/>
      <point x="344" y="-100"/>
      <point x="392" y="32" type="curve" smooth="yes"/>
      <point x="539" y="442" type="line"/>
      <point x="601" y="455" type="line"/>
      <point x="601" y="540" type="line"/>
      <point x="332" y="535" type="line"/>
      <point x="332" y="455" type="line"/>
      <point x="390" y="442" type="line"/>
      <point x="305" y="165" type="line"/>
      <point x="216" y="445" type="line"/>
      <point x="272" y="455" type="line"/>
      <point x="272" y="540" type="line"/>
      <point x="5" y="535" type="line"/>
      <point x="5" y="455" type="line"/>
      <point x="58" y="439" type="line"/>
    </contour>
  </outline>
</glyph>
<glyph name="z" format="1">
  <advance width="505"/>
  <unicode hex="007A"/>
  <outline>
    <contour>
      <point x="52" y="540" type="line"/>
      <point x="52" y="357" type="line"/>
      <point x="142" y="357" type="line"/>
      <point x="157" y="430" type="line"/>
      <point x="294" y="430" type="line"/>
      <point x="40" y="92" type="line"/>
      <point x="40" y="0" type="line"/>
      <point x="475" y="0" type="line"/>
      <point x="475" y="195" type="line"/>
      <point x="385" y="195" type="line"/>
      <point x="368" y="110" type="line"/>
      <point x="222" y="110" type="line"/>
      <point x="472" y="447" type="line"/>
      <point x="472" y="540" type="line"/>
    </contour>
  </outline>
</glyph>
<glyph name="braceleft" format="1">
  <advance width="404"/>
  <unicode hex="007B"/>
  <outline>
    <contour>
      <point x="253" y="570" type="line"/>
      <point x="253" y="650"/>
      <point x="279" y="672"/>
      <point x="374" y="672" type="curve"/>
      <point x="374" y="775" type="line"/>
      <point x="307" y="775" type="line" smooth="yes"/>
      <point x="187" y="775"/>
      <point x="125" y="721"/>
      <point x="125" y="590" type="curve" smooth="yes"/>
      <point x="125" y="449" type="line" smooth="yes"/>
      <point x="125" y="389"/>
      <point x="105" y="345"/>
      <point x="30" y="345" type="curve"/>
      <point x="30" y="245" type="line"/>
      <point x="105" y="245"/>
      <point x="125" y="201"/>
      <point x="125" y="141" type="curve" smooth="yes"/>
      <point x="125" y="-13" type="line" smooth="yes"/>
      <point x="125" y="-164"/>
      <point x="173" y="-225"/>
      <point x="307" y="-225" type="curve" smooth="yes"/>
      <point x="374" y="-225" type="line"/>
      <point x="374" y="-122" type="line"/>
      <point x="279" y="-122"/>
      <point x="253" y="-100"/>
      <point x="253" y="-20" type="curve" smooth="yes"/>
      <point x="253" y="153" type="line" smooth="yes"/>
      <point x="253" y="225"/>
      <point x="220" y="272"/>
      <point x="161" y="295" type="curve"/>
      <point x="232" y="322"/>
      <point x="253" y="377"/>
      <point x="253" y="465" type="curve" smooth="yes"/>
    </contour>
  </outline>
</glyph>
<glyph name="bar" format="1">
  <advance width="278"/>
  <unicode hex="007C"/>
  <outline>
    <contour>
      <point x="198" y="-230" type="line"/>
      <point x="198" y="755" type="line"/>
      <point x="80" y="755" type="line"/>
      <point x="80" y="-230" type="line"/>
    </contour>
  </outline>
</glyph>
<glyph name="braceright" format="1">
  <advance width="409"/>
  <unicode hex="007D"/>
  <outline>
    <contour>
      <point x="160" y="436" type="line"/>
      <point x="160" y="364"/>
      <point x="194" y="318"/>
      <point x="253" y="295" type="curve"/>
      <point x="194" y="272"/>
      <point x="160" y="225"/>
      <point x="160" y="153" type="curve" smooth="yes"/>
      <point x="160" y="-20" type="line" smooth="yes"/>
      <point x="160" y="-100"/>
      <point x="135" y="-122"/>
      <point x="40" y="-122" type="curve"/>
      <point x="40" y="-225" type="line"/>
      <point x="106" y="-225" type="line" smooth="yes"/>
      <point x="239" y="-225"/>
      <point x="289" y="-164"/>
      <point x="289" y="-13" type="curve" smooth="yes"/>
      <point x="289" y="141" type="line" smooth="yes"/>
      <point x="289" y="201"/>
      <point x="309" y="245"/>
      <point x="384" y="245" type="curve"/>
      <point x="384" y="345" type="line"/>
      <point x="309" y="345"/>
      <point x="289" y="389"/>
      <point x="289" y="449" type="curve" smooth="yes"/>
      <point x="289" y="590" type="line" smooth="yes"/>
      <point x="289" y="720"/>
      <point x="229" y="775"/>
      <point x="107" y="775" type="curve" smooth="yes"/>
      <point x="40" y="775" type="line"/>
      <point x="40" y="672" type="line"/>
      <point x="135" y="672"/>
      <point x="160" y="650"/>
      <point x="160" y="570" type="curve" smooth="yes"/>
    </contour>
  </outline>
</glyph>
<glyph name="asciitilde" format="1">
  <advance width="626"/>
  <unicode hex="007E"/>
  <outline>
    <contour>
      <point x="105" y="209" type="line"/>
      <point x="105" y="209"/>
      <point x="145" y="263"/>
      <point x="198" y="263" type="curve" smooth="yes"/>
      <point x="271" y="263"/>
      <point x="331" y="196"/>
      <point x="415" y="196" type="curve" smooth="yes"/>
      <point x="515" y="196"/>
      <point x="573" y="316"/>
      <point x="573" y="316" type="curve"/>
      <point x="507" y="366" type="line"/>
      <point x="507" y="366"/>
      <point x="466" y="311"/>
      <point x="411" y="311" type="curve" smooth="yes"/>
      <point x="339" y="311"/>
      <point x="289" y="378"/>
      <point x="204" y="378" type="curve" smooth="yes"/>
      <point x="96" y="378"/>
      <point x="43" y="260"/>
      <point x="43" y="260" type="curve"/>
    </contour>
  </outline>
</glyph>
<glyph name="exclamdown" format="1">
  <advance width="337"/>
  <unicode hex="00A1"/>
  <outline>
    <contour>
      <point x="252" y="524"/>
      <point x="224" y="557"/>
      <point x="169" y="557" type="curve" smooth="yes"/>
      <point x="124" y="557"/>
      <point x="82" y="524"/>
      <point x="82" y="466" type="curve" smooth="yes"/>
      <point x="82" y="409"/>
      <point x="111" y="376"/>
      <point x="166" y="376" type="curve" smooth="yes"/>
      <point x="211" y="376"/>
      <point x="252" y="409"/>
      <point x="252" y="466" type="curve" smooth="yes"/>
    </contour>
    <contour>
      <point x="92" y="-221" type="line"/>
      <point x="249" y="-221" type="line"/>
      <point x="230" y="288" type="line"/>
      <point x="110" y="283" type="line"/>
    </contour>
  </outline>
</glyph>
<glyph name="cent" format="1">
  <advance width="510"/>
  <unicode hex="00A2"/>
  <outline>
    <contour>
      <point x="331" y="0" type="line"/>
      <point x="331" y="108" type="line"/>
      <point x="408" y="120"/>
      <point x="468" y="168"/>
      <point x="485" y="183" type="curve"/>
      <point x="436" y="261" type="line"/>
      <point x="408" y="245"/>
      <point x="367" y="215"/>
      <point x="304" y="215" type="curve" smooth="yes"/>
      <point x="222" y="215"/>
      <point x="185" y="271"/>
      <point x="185" y="372" type="curve" smooth="yes"/>
      <point x="185" y="466"/>
      <point x="227" y="505"/>
      <point x="297" y="505" type="curve" smooth="yes"/>
      <point x="332" y="505"/>
      <point x="361" y="497"/>
      <point x="361" y="497" type="curve"/>
      <point x="375" y="428" type="line"/>
      <point x="460" y="428" type="line"/>
      <point x="465" y="580" type="line"/>
      <point x="465" y="580"/>
      <point x="402" y="608"/>
      <point x="331" y="614" type="curve"/>
      <point x="331" y="705" type="line"/>
      <point x="223" y="705" type="line"/>
      <point x="223" y="608" type="line"/>
      <point x="101" y="582"/>
      <point x="38" y="487"/>
      <point x="38" y="353" type="curve" smooth="yes"/>
      <point x="38" y="222"/>
      <point x="103" y="132"/>
      <point x="223" y="110" type="curve"/>
      <point x="223" y="0" type="line"/>
    </contour>
  </outline>
</glyph>
<glyph name="sterling" format="1">
  <advance width="625"/>
  <unicode hex="00A3"/>
  <outline>
    <contour>
      <point x="60" y="0" type="line"/>
      <point x="570" y="0" type="line"/>
      <point x="570" y="220" type="line"/>
      <point x="477" y="220" type="line"/>
      <point x="454" y="120" type="line"/>
      <point x="268" y="120" type="line"/>
      <point x="277" y="120"/>
      <point x="305" y="157"/>
      <point x="305" y="222" type="curve" smooth="yes"/>
      <point x="305" y="251"/>
      <point x="303" y="285"/>
      <point x="300" y="320" type="curve"/>
      <point x="436" y="320" type="line"/>
      <point x="436" y="430" type="line"/>
      <point x="292" y="430" type="line"/>
      <point x="291" y="450"/>
      <point x="290" y="471"/>
      <point x="290" y="512" type="curve" smooth="yes"/>
      <point x="290" y="564"/>
      <point x="313" y="600"/>
      <point x="372" y="600" type="curve" smooth="yes"/>
      <point x="420" y="600"/>
      <point x="457" y="594"/>
      <point x="457" y="594" type="curve"/>
      <point x="477" y="520" type="line"/>
      <point x="567" y="520" type="line"/>
      <point x="567" y="682" type="line"/>
      <point x="567" y="682"/>
      <point x="483" y="717"/>
      <point x="355" y="717" type="curve" smooth="yes"/>
      <point x="205" y="717"/>
      <point x="142" y="635"/>
      <point x="142" y="510" type="curve" smooth="yes"/>
      <point x="142" y="482"/>
      <point x="143" y="455"/>
      <point x="145" y="427" type="curve"/>
      <point x="60" y="413" type="line"/>
      <point x="60" y="320" type="line"/>
      <point x="152" y="320" type="line"/>
      <point x="154" y="279"/>
      <point x="157" y="241"/>
      <point x="157" y="207" type="curve" smooth="yes"/>
      <point x="157" y="145"/>
      <point x="150" y="121"/>
      <point x="110" y="105" type="curve" smooth="yes"/>
      <point x="60" y="85" type="line"/>
    </contour>
  </outline>
</glyph>
<glyph name="currency" format="1">
  <advance width="624"/>
  <unicode hex="00A4"/>
  <outline>
    <contour>
      <point x="105" y="257"/>
      <point x="113" y="222"/>
      <point x="127" y="192" type="curve"/>
      <point x="51" y="117" type="line"/>
      <point x="126" y="37" type="line"/>
      <point x="201" y="112" type="line"/>
      <point x="231" y="94"/>
      <point x="269" y="85"/>
      <point x="312" y="85" type="curve" smooth="yes"/>
      <point x="352" y="85"/>
      <point x="388" y="95"/>
      <point x="419" y="113" type="curve"/>
      <point x="498" y="35" type="line"/>
      <point x="573" y="114" type="line"/>
      <point x="495" y="191" type="line"/>
      <point x="513" y="223"/>
      <point x="523" y="260"/>
      <point x="523" y="302" type="curve" smooth="yes"/>
      <point x="523" y="342"/>
      <point x="514" y="377"/>
      <point x="498" y="407" type="curve"/>
      <point x="572" y="481" type="line"/>
      <point x="498" y="561" type="line"/>
      <point x="421" y="485" type="line"/>
      <point x="392" y="500"/>
      <point x="356" y="510"/>
      <point x="317" y="510" type="curve" smooth="yes"/>
      <point x="275" y="510"/>
      <point x="238" y="498"/>
      <point x="206" y="480" type="curve"/>
      <point x="126" y="560" type="line"/>
      <point x="52" y="480" type="line"/>
      <point x="131" y="400" type="line"/>
      <point x="114" y="370"/>
      <point x="105" y="335"/>
      <point x="105" y="296" type="curve" smooth="yes"/>
    </contour>
    <contour>
      <point x="227" y="365"/>
      <point x="255" y="403"/>
      <point x="314" y="403" type="curve" smooth="yes"/>
      <point x="374" y="403"/>
      <point x="402" y="365"/>
      <point x="402" y="298" type="curve" smooth="yes"/>
      <point x="402" y="229"/>
      <point x="375" y="189"/>
      <point x="314" y="189" type="curve" smooth="yes"/>
      <point x="253" y="189"/>
      <point x="227" y="229"/>
      <point x="227" y="298" type="curve" smooth="yes"/>
    </contour>
  </outline>
</glyph>
<glyph name="yen" format="1">
  <advance width="672"/>
  <unicode hex="00A5"/>
  <outline>
    <contour>
      <point x="84" y="313" type="line"/>
      <point x="584" y="313" type="line"/>
      <point x="584" y="403" type="line"/>
      <point x="489" y="403" type="line"/>
      <point x="592" y="588" type="line"/>
      <point x="662" y="615" type="line"/>
      <point x="662" y="705" type="line"/>
      <point x="392" y="700" type="line"/>
      <point x="392" y="615" type="line"/>
      <point x="448" y="593" type="line"/>
      <point x="342" y="385" type="line"/>
      <point x="241" y="594" type="line"/>
      <point x="292" y="615" type="line"/>
      <point x="292" y="705" type="line"/>
      <point x="10" y="700" type="line"/>
      <point x="10" y="615" type="line"/>
      <point x="76" y="587" type="line"/>
      <point x="178" y="403" type="line"/>
      <point x="84" y="403" type="line"/>
    </contour>
    <contour>
      <point x="182" y="0" type="line"/>
      <point x="487" y="0" type="line"/>
      <point x="487" y="85" type="line"/>
      <point x="412" y="110" type="line"/>
      <point x="412" y="163" type="line"/>
      <point x="584" y="163" type="line"/>
      <point x="584" y="253" type="line"/>
      <point x="84" y="253" type="line"/>
      <point x="84" y="163" type="line"/>
      <point x="257" y="163" type="line"/>
      <point x="257" y="110" type="line"/>
      <point x="182" y="85" type="line"/>
    </contour>
  </outline>
</glyph>
<glyph name="brokenbar" format="1">
  <advance width="297"/>
  <unicode hex="00A6"/>
  <outline>
    <contour>
      <point x="205" y="365" type="line"/>
      <point x="205" y="765" type="line"/>
      <point x="87" y="765" type="line"/>
      <point x="87" y="365" type="line"/>
    </contour>
    <contour>
      <point x="205" y="-265" type="line"/>
      <point x="205" y="145" type="line"/>
      <point x="87" y="145" type="line"/>
      <point x="87" y="-265" type="line"/>
    </contour>
  </outline>
</glyph>
<glyph name="section" format="1">
  <advance width="534"/>
  <unicode hex="00A7"/>
  <outline>
    <contour>
      <point x="172" y="52" type="line"/>
      <point x="90" y="52" type="line"/>
      <point x="88" y="-119" type="line"/>
      <point x="88" y="-119"/>
      <point x="159" y="-148"/>
      <point x="243" y="-148" type="curve" smooth="yes"/>
      <point x="360" y="-148"/>
      <point x="444" y="-74"/>
      <point x="444" y="40" type="curve" smooth="yes"/>
      <point x="444" y="80"/>
      <point x="432" y="114"/>
      <point x="414" y="142" type="curve"/>
      <point x="448" y="167"/>
      <point x="484" y="215"/>
      <point x="484" y="288" type="curve" smooth="yes"/>
      <point x="484" y="471"/>
      <point x="233" y="495"/>
      <point x="233" y="615" type="curve" smooth="yes"/>
      <point x="233" y="654"/>
      <point x="261" y="683"/>
      <point x="311" y="683" type="curve" smooth="yes"/>
      <point x="333" y="683"/>
      <point x="358" y="677"/>
      <point x="358" y="677" type="curve"/>
      <point x="375" y="591" type="line"/>
      <point x="454" y="591" type="line"/>
      <point x="458" y="756" type="line"/>
      <point x="458" y="756"/>
      <point x="391" y="787"/>
      <point x="303" y="787" type="curve" smooth="yes"/>
      <point x="186" y="787"/>
      <point x="102" y="712"/>
      <point x="102" y="604" type="curve" smooth="yes"/>
      <point x="102" y="561"/>
      <point x="114" y="526"/>
      <point x="132" y="497" type="curve"/>
      <point x="96" y="471"/>
      <point x="62" y="424"/>
      <point x="62" y="349" type="curve" smooth="yes"/>
      <point x="62" y="164"/>
      <point x="314" y="142"/>
      <point x="314" y="25" type="curve" smooth="yes"/>
      <point x="314" y="-16"/>
      <point x="285" y="-42"/>
      <point x="237" y="-42" type="curve" smooth="yes"/>
      <point x="207" y="-42"/>
      <point x="186" y="-36"/>
      <point x="186" y="-36" type="curve"/>
    </contour>
    <contour>
      <point x="188" y="393"/>
      <point x="197" y="410"/>
      <point x="205" y="421" type="curve"/>
      <point x="274" y="367"/>
      <point x="359" y="334"/>
      <point x="359" y="272" type="curve" smooth="yes"/>
      <point x="359" y="243"/>
      <point x="349" y="226"/>
      <point x="341" y="216" type="curve"/>
      <point x="272" y="271"/>
      <point x="188" y="304"/>
      <point x="188" y="366" type="curve" smooth="yes"/>
    </contour>
  </outline>
</glyph>
<glyph name="dieresis" format="1">
  <advance width="544"/>
  <unicode hex="00A8"/>
  <outline>
    <contour>
      <point x="90" y="662"/>
      <point x="115" y="634"/>
      <point x="162" y="634" type="curve" smooth="yes"/>
      <point x="201" y="634"/>
      <point x="236" y="662"/>
      <point x="236" y="712" type="curve" smooth="yes"/>
      <point x="236" y="761"/>
      <point x="211" y="790"/>
      <point x="164" y="790" type="curve" smooth="yes"/>
      <point x="125" y="790"/>
      <point x="90" y="761"/>
      <point x="90" y="712" type="curve" smooth="yes"/>
    </contour>
    <contour>
      <point x="308" y="662"/>
      <point x="333" y="634"/>
      <point x="380" y="634" type="curve" smooth="yes"/>
      <point x="419" y="634"/>
      <point x="454" y="662"/>
      <point x="454" y="712" type="curve" smooth="yes"/>
      <point x="454" y="761"/>
      <point x="430" y="790"/>
      <point x="382" y="790" type="curve" smooth="yes"/>
      <point x="344" y="790"/>
      <point x="308" y="761"/>
      <point x="308" y="712" type="curve" smooth="yes"/>
    </contour>
  </outline>
</glyph>
<glyph name="copyright" format="1">
  <advance width="823"/>
  <unicode hex="00A9"/>
  <outline>
    <contour>
      <point x="37" y="129"/>
      <point x="186" y="-19"/>
      <point x="401" y="-19" type="curve" smooth="yes"/>
      <point x="616" y="-19"/>
      <point x="785" y="140"/>
      <point x="785" y="355" type="curve" smooth="yes"/>
      <point x="785" y="570"/>
      <point x="626" y="719"/>
      <point x="411" y="719" type="curve" smooth="yes"/>
      <point x="196" y="719"/>
      <point x="37" y="560"/>
      <point x="37" y="345" type="curve" smooth="yes"/>
    </contour>
    <contour>
      <point x="139" y="512"/>
      <point x="244" y="625"/>
      <point x="406" y="625" type="curve" smooth="yes"/>
      <point x="568" y="625"/>
      <point x="683" y="512"/>
      <point x="683" y="350" type="curve" smooth="yes"/>
      <point x="683" y="187"/>
      <point x="568" y="75"/>
      <point x="406" y="75" type="curve" smooth="yes"/>
      <point x="244" y="75"/>
      <point x="139" y="187"/>
      <point x="139" y="350" type="curve" smooth="yes"/>
    </contour>
    <contour>
      <point x="523" y="273" type="line"/>
      <point x="508" y="261"/>
      <point x="463" y="235"/>
      <point x="421" y="235" type="curve" smooth="yes"/>
      <point x="363" y="235"/>
      <point x="334" y="273"/>
      <point x="334" y="355" type="curve" smooth="yes"/>
      <point x="334" y="434"/>
      <point x="362" y="472"/>
      <point x="417" y="472" type="curve" smooth="yes"/>
      <point x="440" y="472"/>
      <point x="465" y="466"/>
      <point x="465" y="466" type="curve"/>
      <point x="476" y="411" type="line"/>
      <point x="545" y="411" type="line"/>
      <point x="548" y="523" type="line"/>
      <point x="548" y="523"/>
      <point x="481" y="553"/>
      <point x="419" y="553" type="curve" smooth="yes"/>
      <point x="294" y="553"/>
      <point x="224" y="469"/>
      <point x="224" y="342" type="curve" smooth="yes"/>
      <point x="224" y="219"/>
      <point x="296" y="152"/>
      <point x="408" y="152" type="curve" smooth="yes"/>
      <point x="484" y="152"/>
      <point x="542" y="201"/>
      <point x="560" y="216" type="curve"/>
    </contour>
  </outline>
</glyph>
<glyph name="ordfeminine" format="1">
  <advance width="488"/>
  <unicode hex="00AA"/>
  <outline>
    <contour>
      <point x="55" y="135" type="line"/>
      <point x="428" y="135" type="line"/>
      <point x="428" y="235" type="line"/>
      <point x="55" y="235" type="line"/>
    </contour>
    <contour>
      <point x="428" y="328" type="line"/>
      <point x="428" y="394" type="line"/>
      <point x="375" y="406" type="line"/>
      <point x="375" y="574" type="line" smooth="yes"/>
      <point x="375" y="674"/>
      <point x="338" y="717"/>
      <point x="227" y="717" type="curve" smooth="yes"/>
      <point x="159" y="717"/>
      <point x="64" y="688"/>
      <point x="64" y="688" type="curve"/>
      <point x="70" y="579" type="line"/>
      <point x="141" y="579" type="line"/>
      <point x="150" y="622" type="line"/>
      <point x="150" y="622"/>
      <point x="178" y="631"/>
      <point x="212" y="631" type="curve" smooth="yes"/>
      <point x="243" y="631"/>
      <point x="262" y="614"/>
      <point x="262" y="585" type="curve" smooth="yes"/>
      <point x="262" y="549" type="line"/>
      <point x="216" y="549" type="line" smooth="yes"/>
      <point x="106" y="549"/>
      <point x="45" y="514"/>
      <point x="45" y="431" type="curve" smooth="yes"/>
      <point x="45" y="356"/>
      <point x="86" y="315"/>
      <point x="158" y="315" type="curve" smooth="yes"/>
      <point x="225" y="315"/>
      <point x="275" y="372"/>
      <point x="275" y="372" type="curve"/>
      <point x="289" y="322" type="line"/>
    </contour>
    <contour>
      <point x="153" y="471"/>
      <point x="175" y="484"/>
      <point x="223" y="484" type="curve" smooth="yes"/>
      <point x="262" y="484" type="line"/>
      <point x="262" y="437" type="line"/>
      <point x="262" y="437"/>
      <point x="229" y="403"/>
      <point x="193" y="403" type="curve" smooth="yes"/>
      <point x="169" y="403"/>
      <point x="153" y="417"/>
      <point x="153" y="439" type="curve" smooth="yes"/>
    </contour>
  </outline>
</glyph>
<glyph name="guillemotleft" format="1">
  <advance width="599"/>
  <unicode hex="00AB"/>
  <outline>
    <contour>
      <point x="431" y="265" type="line"/>
      <point x="544" y="425" type="line"/>
      <point x="461" y="480" type="line"/>
      <point x="305" y="303" type="line"/>
      <point x="305" y="226" type="line"/>
      <point x="461" y="49" type="line"/>
      <point x="544" y="105" type="line"/>
    </contour>
    <contour>
      <point x="181" y="265" type="line"/>
      <point x="290" y="425" type="line"/>
      <point x="207" y="480" type="line"/>
      <point x="55" y="303" type="line"/>
      <point x="55" y="226" type="line"/>
      <point x="207" y="49" type="line"/>
      <point x="290" y="105" type="line"/>
    </contour>
  </outline>
</glyph>
<glyph name="logicalnot" format="1">
  <advance width="642"/>
  <unicode hex="00AC"/>
  <outline>
    <contour>
      <point x="60" y="260" type="line"/>
      <point x="460" y="260" type="line"/>
      <point x="460" y="80" type="line"/>
      <point x="587" y="80" type="line"/>
      <point x="587" y="375" type="line"/>
      <point x="60" y="375" type="line"/>
    </contour>
  </outline>
</glyph>
<glyph name="softhyphen" format="1">
  <advance width="395"/>
  <unicode hex="00AD"/>
  <outline>
    <contour>
      <point x="55" y="210" type="line"/>
      <point x="340" y="210" type="line"/>
      <point x="340" y="335" type="line"/>
      <point x="55" y="335" type="line"/>
    </contour>
  </outline>
</glyph>
<glyph name="registered" format="1">
  <advance width="723"/>
  <unicode hex="00AE"/>
  <outline>
    <contour>
      <point x="45" y="268"/>
      <point x="171" y="143"/>
      <point x="351" y="143" type="curve" smooth="yes"/>
      <point x="533" y="143"/>
      <point x="678" y="278"/>
      <point x="678" y="460" type="curve" smooth="yes"/>
      <point x="678" y="642"/>
      <point x="541" y="766"/>
      <point x="362" y="766" type="curve" smooth="yes"/>
      <point x="180" y="766"/>
      <point x="45" y="631"/>
      <point x="45" y="449" type="curve" smooth="yes"/>
    </contour>
    <contour>
      <point x="143" y="588"/>
      <point x="224" y="678"/>
      <point x="357" y="678" type="curve" smooth="yes"/>
      <point x="490" y="678"/>
      <point x="581" y="588"/>
      <point x="581" y="455" type="curve" smooth="yes"/>
      <point x="581" y="322"/>
      <point x="490" y="231"/>
      <point x="357" y="231" type="curve" smooth="yes"/>
      <point x="224" y="231"/>
      <point x="143" y="322"/>
      <point x="143" y="455" type="curve" smooth="yes"/>
    </contour>
    <contour>
      <point x="366" y="347" type="line"/>
      <point x="333" y="359" type="line"/>
      <point x="333" y="423" type="line"/>
      <point x="356" y="423" type="line" smooth="yes"/>
      <point x="368" y="423"/>
      <point x="374" y="418"/>
      <point x="385" y="393" type="curve" smooth="yes"/>
      <point x="426" y="302" type="line"/>
      <point x="516" y="302" type="line"/>
      <point x="516" y="347" type="line"/>
      <point x="483" y="359" type="line"/>
      <point x="452" y="418" type="line" smooth="yes"/>
      <point x="443" y="435"/>
      <point x="435" y="440"/>
      <point x="435" y="440" type="curve"/>
      <point x="468" y="456"/>
      <point x="488" y="483"/>
      <point x="488" y="524" type="curve" smooth="yes"/>
      <point x="488" y="585"/>
      <point x="437" y="616"/>
      <point x="365" y="615" type="curve" smooth="yes"/>
      <point x="222" y="613" type="line"/>
      <point x="222" y="571" type="line"/>
      <point x="256" y="557" type="line"/>
      <point x="256" y="359" type="line"/>
      <point x="222" y="347" type="line"/>
      <point x="222" y="302" type="line"/>
      <point x="366" y="302" type="line"/>
    </contour>
    <contour>
      <point x="333" y="556" type="line"/>
      <point x="366" y="556" type="line" smooth="yes"/>
      <point x="394" y="556"/>
      <point x="410" y="541"/>
      <point x="410" y="516" type="curve" smooth="yes"/>
      <point x="410" y="491"/>
      <point x="385" y="476"/>
      <point x="359" y="476" type="curve" smooth="yes"/>
      <point x="333" y="476" type="line"/>
    </contour>
  </outline>
</glyph>
<glyph name="macron" format="1">
  <advance width="310"/>
  <unicode hex="00AF"/>
  <outline>
    <contour>
      <point x="5" y="642" type="line"/>
      <point x="305" y="642" type="line"/>
      <point x="305" y="747" type="line"/>
      <point x="5" y="747" type="line"/>
    </contour>
  </outline>
</glyph>
<glyph name="degree" format="1">
  <advance width="426"/>
  <unicode hex="00B0"/>
  <outline>
    <contour>
      <point x="45" y="478"/>
      <point x="115" y="419"/>
      <point x="213" y="419" type="curve" smooth="yes"/>
      <point x="311" y="419"/>
      <point x="381" y="483"/>
      <point x="381" y="585" type="curve" smooth="yes"/>
      <point x="381" y="681"/>
      <point x="311" y="741"/>
      <point x="213" y="741" type="curve" smooth="yes"/>
      <point x="115" y="741"/>
      <point x="45" y="676"/>
      <point x="45" y="580" type="curve" smooth="yes"/>
    </contour>
    <contour>
      <point x="145" y="628"/>
      <point x="173" y="652"/>
      <point x="213" y="652" type="curve" smooth="yes"/>
      <point x="253" y="652"/>
      <point x="281" y="628"/>
      <point x="281" y="584" type="curve" smooth="yes"/>
      <point x="281" y="536"/>
      <point x="257" y="508"/>
      <point x="213" y="508" type="curve" smooth="yes"/>
      <point x="169" y="508"/>
      <point x="145" y="536"/>
      <point x="145" y="584" type="curve" smooth="yes"/>
    </contour>
  </outline>
</glyph>
<glyph name="plusminus" format="1">
  <advance width="622"/>
  <unicode hex="00B1"/>
  <outline>
    <contour>
      <point x="52" y="288" type="line"/>
      <point x="245" y="288" type="line"/>
      <point x="245" y="137" type="line"/>
      <point x="378" y="137" type="line"/>
      <point x="378" y="288" type="line"/>
      <point x="570" y="288" type="line"/>
      <point x="570" y="405" type="line"/>
      <point x="378" y="405" type="line"/>
      <point x="378" y="552" type="line"/>
      <point x="245" y="552" type="line"/>
      <point x="245" y="405" type="line"/>
      <point x="52" y="405" type="line"/>
    </contour>
    <contour>
      <point x="52" y="-36" type="line"/>
      <point x="570" y="-36" type="line"/>
      <point x="570" y="78" type="line"/>
      <point x="52" y="78" type="line"/>
    </contour>
  </outline>
</glyph>
<glyph name="twosuperior" format="1">
  <advance width="404"/>
  <unicode hex="00B2"/>
  <outline>
    <contour>
      <point x="33" y="280" type="line"/>
      <point x="365" y="280" type="line"/>
      <point x="365" y="385" type="line"/>
      <point x="204" y="385" type="line"/>
      <point x="313" y="469"/>
      <point x="361" y="515"/>
      <point x="361" y="595" type="curve" smooth="yes"/>
      <point x="361" y="680"/>
      <point x="288" y="715"/>
      <point x="184" y="715" type="curve" smooth="yes"/>
      <point x="113" y="715"/>
      <point x="36" y="690"/>
      <point x="36" y="690" type="curve"/>
      <point x="39" y="558" type="line"/>
      <point x="124" y="558" type="line"/>
      <point x="131" y="611" type="line"/>
      <point x="131" y="611"/>
      <point x="150" y="618"/>
      <point x="174" y="618" type="curve" smooth="yes"/>
      <point x="209" y="618"/>
      <point x="225" y="605"/>
      <point x="225" y="579" type="curve" smooth="yes"/>
      <point x="225" y="523"/>
      <point x="160" y="477"/>
      <point x="33" y="380" type="curve"/>
    </contour>
  </outline>
</glyph>
<glyph name="threesuperior" format="1">
  <advance width="395"/>
  <unicode hex="00B3"/>
  <outline>
    <contour>
      <point x="352" y="676"/>
      <point x="292" y="715"/>
      <point x="184" y="715" type="curve" smooth="yes"/>
      <point x="115" y="715"/>
      <point x="29" y="692"/>
      <point x="29" y="692" type="curve"/>
      <point x="32" y="574" type="line"/>
      <point x="114" y="574" type="line"/>
      <point x="119" y="616" type="line"/>
      <point x="119" y="616"/>
      <point x="143" y="622"/>
      <point x="172" y="622" type="curve" smooth="yes"/>
      <point x="210" y="622"/>
      <point x="227" y="608"/>
      <point x="227" y="582" type="curve" smooth="yes"/>
      <point x="227" y="550"/>
      <point x="203" y="534"/>
      <point x="159" y="534" type="curve" smooth="yes"/>
      <point x="104" y="534" type="line"/>
      <point x="104" y="459" type="line"/>
      <point x="158" y="459" type="line" smooth="yes"/>
      <point x="209" y="459"/>
      <point x="231" y="444"/>
      <point x="231" y="414" type="curve" smooth="yes"/>
      <point x="231" y="393"/>
      <point x="208" y="367"/>
      <point x="163" y="367" type="curve" smooth="yes"/>
      <point x="106" y="367"/>
      <point x="44" y="394"/>
      <point x="44" y="394" type="curve"/>
      <point x="17" y="310" type="line"/>
      <point x="17" y="310"/>
      <point x="94" y="272"/>
      <point x="172" y="272" type="curve" smooth="yes"/>
      <point x="275" y="272"/>
      <point x="362" y="311"/>
      <point x="362" y="407" type="curve" smooth="yes"/>
      <point x="362" y="459"/>
      <point x="318" y="495"/>
      <point x="271" y="504" type="curve"/>
      <point x="318" y="517"/>
      <point x="352" y="550"/>
      <point x="352" y="604" type="curve" smooth="yes"/>
    </contour>
  </outline>
</glyph>
<glyph name="acute" format="1">
  <advance width="291"/>
  <unicode hex="00B4"/>
  <outline>
    <contour>
      <point x="0" y="673" type="line"/>
      <point x="223" y="851" type="line"/>
      <point x="291" y="747" type="line"/>
      <point x="49" y="600" type="line"/>
    </contour>
  </outline>
</glyph>
<glyph name="paragraph" format="1">
  <advance width="721"/>
  <unicode hex="00B6"/>
  <outline>
    <contour>
      <point x="154" y="-170" type="line"/>
      <point x="355" y="-170" type="line"/>
      <point x="355" y="597" type="line"/>
      <point x="460" y="597" type="line"/>
      <point x="460" y="-170" type="line"/>
      <point x="586" y="-170" type="line"/>
      <point x="586" y="597" type="line"/>
      <point x="666" y="617" type="line"/>
      <point x="666" y="697" type="line"/>
      <point x="460" y="705" type="line"/>
      <point x="275" y="705" type="line" smooth="yes"/>
      <point x="132" y="705"/>
      <point x="50" y="611"/>
      <point x="50" y="491" type="curve" smooth="yes"/>
      <point x="50" y="373"/>
      <point x="131" y="284"/>
      <point x="236" y="273" type="curve"/>
      <point x="236" y="-65" type="line"/>
      <point x="154" y="-87" type="line"/>
    </contour>
  </outline>
</glyph>
<glyph name="periodcentered" format="1">
  <advance width="299"/>
  <unicode hex="00B7"/>
  <outline>
    <contour>
      <point x="61" y="245"/>
      <point x="90" y="213"/>
      <point x="148" y="213" type="curve" smooth="yes"/>
      <point x="199" y="213"/>
      <point x="237" y="245"/>
      <point x="237" y="306" type="curve" smooth="yes"/>
      <point x="237" y="367"/>
      <point x="209" y="400"/>
      <point x="151" y="400" type="curve" smooth="yes"/>
      <point x="100" y="400"/>
      <point x="61" y="367"/>
      <point x="61" y="306" type="curve" smooth="yes"/>
    </contour>
  </outline>
</glyph>
<glyph name="cedilla" format="1">
  <advance width="431"/>
  <unicode hex="00B8"/>
  <outline>
    <contour>
      <point x="166" y="-167"/>
      <point x="126" y="-146"/>
      <point x="126" y="-146" type="curve"/>
      <point x="95" y="-201" type="line"/>
      <point x="95" y="-201"/>
      <point x="150" y="-233"/>
      <point x="217" y="-233" type="curve" smooth="yes"/>
      <point x="292" y="-233"/>
      <point x="343" y="-192"/>
      <point x="343" y="-132" type="curve" smooth="yes"/>
      <point x="343" y="-85"/>
      <point x="309" y="-53"/>
      <point x="257" y="-43" type="curve"/>
      <point x="257" y="0" type="line"/>
      <point x="172" y="0" type="line"/>
      <point x="172" y="-86" type="line"/>
      <point x="221" y="-86"/>
      <point x="254" y="-100"/>
      <point x="254" y="-129" type="curve" smooth="yes"/>
      <point x="254" y="-151"/>
      <point x="236" y="-167"/>
      <point x="204" y="-167" type="curve" smooth="yes"/>
    </contour>
  </outline>
</glyph>
<glyph name="onesuperior" format="1">
  <advance width="393"/>
  <unicode hex="00B9"/>
  <outline>
    <contour>
      <point x="373" y="369" type="line"/>
      <point x="282" y="369" type="line"/>
      <point x="282" y="705" type="line"/>
      <point x="173" y="705" type="line"/>
      <point x="15" y="606" type="line"/>
      <point x="64" y="523" type="line"/>
      <point x="155" y="578" type="line"/>
      <point x="155" y="369" type="line"/>
      <point x="59" y="369" type="line"/>
      <point x="59" y="280" type="line"/>
      <point x="373" y="280" type="line"/>
    </contour>
  </outline>
</glyph>
<glyph name="ordmasculine" format="1">
  <advance width="504"/>
  <unicode hex="00BA"/>
  <outline>
    <contour>
      <point x="132" y="717"/>
      <point x="45" y="638"/>
      <point x="45" y="510" type="curve" smooth="yes"/>
      <point x="45" y="378"/>
      <point x="121" y="315"/>
      <point x="237" y="315" type="curve" smooth="yes"/>
      <point x="356" y="315"/>
      <point x="439" y="401"/>
      <point x="439" y="524" type="curve" smooth="yes"/>
      <point x="439" y="647"/>
      <point x="366" y="717"/>
      <point x="249" y="717" type="curve" smooth="yes"/>
    </contour>
    <contour>
      <point x="293" y="625"/>
      <point x="314" y="588"/>
      <point x="314" y="520" type="curve" smooth="yes"/>
      <point x="314" y="443"/>
      <point x="290" y="407"/>
      <point x="242" y="407" type="curve" smooth="yes"/>
      <point x="194" y="407"/>
      <point x="170" y="445"/>
      <point x="170" y="514" type="curve" smooth="yes"/>
      <point x="170" y="589"/>
      <point x="196" y="625"/>
      <point x="244" y="625" type="curve" smooth="yes"/>
    </contour>
    <contour>
      <point x="53" y="135" type="line"/>
      <point x="431" y="135" type="line"/>
      <point x="431" y="235" type="line"/>
      <point x="53" y="235" type="line"/>
    </contour>
  </outline>
</glyph>
<glyph name="guillemotright" format="1">
  <advance width="599"/>
  <unicode hex="00BB"/>
  <outline>
    <contour>
      <point x="55" y="105" type="line"/>
      <point x="138" y="49" type="line"/>
      <point x="294" y="226" type="line"/>
      <point x="294" y="303" type="line"/>
      <point x="138" y="480" type="line"/>
      <point x="55" y="425" type="line"/>
      <point x="168" y="265" type="line"/>
    </contour>
    <contour>
      <point x="309" y="105" type="line"/>
      <point x="392" y="49" type="line"/>
      <point x="544" y="226" type="line"/>
      <point x="544" y="303" type="line"/>
      <point x="392" y="480" type="line"/>
      <point x="309" y="425" type="line"/>
      <point x="418" y="265" type="line"/>
    </contour>
  </outline>
</glyph>
<glyph name="onequarter" format="1">
  <advance width="1072"/>
  <unicode hex="00BC"/>
  <outline>
    <contour>
      <point x="255" y="0" type="line"/>
      <point x="400" y="0" type="line"/>
      <point x="808" y="705" type="line"/>
      <point x="663" y="705" type="line"/>
    </contour>
    <contour>
      <point x="815" y="430" type="line"/>
      <point x="618" y="161" type="line"/>
      <point x="632" y="77" type="line"/>
      <point x="832" y="77" type="line"/>
      <point x="832" y="0" type="line"/>
      <point x="959" y="0" type="line"/>
      <point x="959" y="77" type="line"/>
      <point x="1017" y="77" type="line"/>
      <point x="1017" y="170" type="line"/>
      <point x="959" y="170" type="line"/>
      <point x="959" y="413" type="line"/>
    </contour>
    <contour>
      <point x="392" y="369" type="line"/>
      <point x="312" y="369" type="line"/>
      <point x="312" y="705" type="line"/>
      <point x="203" y="705" type="line"/>
      <point x="45" y="606" type="line"/>
      <point x="94" y="523" type="line"/>
      <point x="185" y="578" type="line"/>
      <point x="185" y="369" type="line"/>
      <point x="89" y="369" type="line"/>
      <point x="89" y="280" type="line"/>
      <point x="392" y="280" type="line"/>
    </contour>
    <contour>
      <point x="832" y="297" type="line"/>
      <point x="832" y="170" type="line"/>
      <point x="737" y="170" type="line"/>
    </contour>
  </outline>
</glyph>
<glyph name="onehalf" format="1">
  <advance width="1075"/>
  <unicode hex="00BD"/>
  <outline>
    <contour>
      <point x="256" y="0" type="line"/>
      <point x="401" y="0" type="line"/>
      <point x="809" y="705" type="line"/>
      <point x="664" y="705" type="line"/>
    </contour>
    <contour>
      <point x="683" y="0" type="line"/>
      <point x="1015" y="0" type="line"/>
      <point x="1015" y="105" type="line"/>
      <point x="854" y="105" type="line"/>
      <point x="963" y="189"/>
      <point x="1011" y="235"/>
      <point x="1011" y="315" type="curve" smooth="yes"/>
      <point x="1011" y="400"/>
      <point x="938" y="435"/>
      <point x="833" y="435" type="curve" smooth="yes"/>
      <point x="762" y="435"/>
      <point x="686" y="410"/>
      <point x="686" y="410" type="curve"/>
      <point x="689" y="278" type="line"/>
      <point x="774" y="278" type="line"/>
      <point x="780" y="331" type="line"/>
      <point x="780" y="331"/>
      <point x="799" y="338"/>
      <point x="823" y="338" type="curve" smooth="yes"/>
      <point x="857" y="338"/>
      <point x="875" y="325"/>
      <point x="875" y="300" type="curve" smooth="yes"/>
      <point x="875" y="243"/>
      <point x="811" y="199"/>
      <point x="683" y="100" type="curve"/>
    </contour>
    <contour>
      <point x="392" y="369" type="line"/>
      <point x="312" y="369" type="line"/>
      <point x="312" y="705" type="line"/>
      <point x="203" y="705" type="line"/>
      <point x="45" y="606" type="line"/>
      <point x="94" y="523" type="line"/>
      <point x="185" y="578" type="line"/>
      <point x="185" y="369" type="line"/>
      <point x="89" y="369" type="line"/>
      <point x="89" y="280" type="line"/>
      <point x="392" y="280" type="line"/>
    </contour>
  </outline>
</glyph>
<glyph name="threequarters" format="1">
  <advance width="1054"/>
  <unicode hex="00BE"/>
  <outline>
    <contour>
      <point x="238" y="0" type="line"/>
      <point x="383" y="0" type="line"/>
      <point x="791" y="705" type="line"/>
      <point x="646" y="705" type="line"/>
    </contour>
    <contour>
      <point x="615" y="77" type="line"/>
      <point x="814" y="77" type="line"/>
      <point x="814" y="0" type="line"/>
      <point x="941" y="0" type="line"/>
      <point x="941" y="77" type="line"/>
      <point x="999" y="77" type="line"/>
      <point x="999" y="170" type="line"/>
      <point x="941" y="170" type="line"/>
      <point x="941" y="413" type="line"/>
      <point x="797" y="430" type="line"/>
      <point x="601" y="161" type="line"/>
    </contour>
    <contour>
      <point x="374" y="667"/>
      <point x="315" y="706"/>
      <point x="207" y="706" type="curve" smooth="yes"/>
      <point x="138" y="706"/>
      <point x="51" y="683"/>
      <point x="51" y="683" type="curve"/>
      <point x="55" y="566" type="line"/>
      <point x="136" y="566" type="line"/>
      <point x="141" y="607" type="line"/>
      <point x="141" y="607"/>
      <point x="166" y="614"/>
      <point x="195" y="614" type="curve" smooth="yes"/>
      <point x="232" y="614"/>
      <point x="249" y="598"/>
      <point x="249" y="575" type="curve" smooth="yes"/>
      <point x="249" y="543"/>
      <point x="228" y="525"/>
      <point x="182" y="525" type="curve" smooth="yes"/>
      <point x="127" y="525" type="line"/>
      <point x="127" y="451" type="line"/>
      <point x="180" y="451" type="line" smooth="yes"/>
      <point x="232" y="451"/>
      <point x="254" y="435"/>
      <point x="254" y="406" type="curve" smooth="yes"/>
      <point x="254" y="374"/>
      <point x="216" y="359"/>
      <point x="185" y="359" type="curve" smooth="yes"/>
      <point x="128" y="359"/>
      <point x="67" y="385"/>
      <point x="67" y="385" type="curve"/>
      <point x="40" y="301" type="line"/>
      <point x="40" y="301"/>
      <point x="116" y="264"/>
      <point x="195" y="264" type="curve" smooth="yes"/>
      <point x="297" y="264"/>
      <point x="385" y="303"/>
      <point x="385" y="398" type="curve" smooth="yes"/>
      <point x="385" y="450"/>
      <point x="340" y="487"/>
      <point x="293" y="495" type="curve"/>
      <point x="340" y="508"/>
      <point x="374" y="541"/>
      <point x="374" y="596" type="curve" smooth="yes"/>
    </contour>
    <contour>
      <point x="814" y="302" type="line"/>
      <point x="814" y="170" type="line"/>
      <point x="717" y="170" type="line"/>
    </contour>
  </outline>
</glyph>
<glyph name="questiondown" format="1">
  <advance width="461"/>
  <unicode hex="00BF"/>
  <outline>
    <contour>
      <point x="370" y="524"/>
      <point x="341" y="557"/>
      <point x="286" y="557" type="curve" smooth="yes"/>
      <point x="241" y="557"/>
      <point x="200" y="524"/>
      <point x="200" y="466" type="curve" smooth="yes"/>
      <point x="200" y="409"/>
      <point x="229" y="376"/>
      <point x="284" y="376" type="curve" smooth="yes"/>
      <point x="329" y="376"/>
      <point x="370" y="409"/>
      <point x="370" y="466" type="curve" smooth="yes"/>
    </contour>
    <contour>
      <point x="228" y="291" type="line"/>
      <point x="228" y="291"/>
      <point x="230" y="257"/>
      <point x="230" y="233" type="curve" smooth="yes"/>
      <point x="230" y="140"/>
      <point x="50" y="84"/>
      <point x="50" y="-70" type="curve" smooth="yes"/>
      <point x="50" y="-188"/>
      <point x="150" y="-225"/>
      <point x="250" y="-225" type="curve" smooth="yes"/>
      <point x="315" y="-225"/>
      <point x="399" y="-201"/>
      <point x="399" y="-201" type="curve"/>
      <point x="380" y="-97" type="line"/>
      <point x="380" y="-97"/>
      <point x="333" y="-108"/>
      <point x="291" y="-108" type="curve" smooth="yes"/>
      <point x="231" y="-108"/>
      <point x="201" y="-87"/>
      <point x="201" y="-42" type="curve" smooth="yes"/>
      <point x="201" y="50"/>
      <point x="369" y="102"/>
      <point x="369" y="199" type="curve" smooth="yes"/>
      <point x="369" y="232"/>
      <point x="360" y="297"/>
      <point x="360" y="297" type="curve"/>
    </contour>
  </outline>
</glyph>
<glyph name="Acircumflex" format="1">
  <advance width="758"/>
  <unicode hex="00C2"/>
  <outline>
    <contour>
      <point x="385" y="840" type="line"/>
      <point x="536" y="742" type="line"/>
      <point x="584" y="808" type="line"/>
      <point x="422" y="947" type="line"/>
      <point x="333" y="939" type="line"/>
      <point x="180" y="808" type="line"/>
      <point x="228" y="742" type="line"/>
    </contour>
    <component base="A"/>
  </outline>
</glyph>
<glyph name="Atilde" format="1">
  <advance width="758"/>
  <unicode hex="00C3"/>
  <outline>
    <contour>
      <point x="228" y="777" type="line"/>
      <point x="228" y="777"/>
      <point x="258" y="815"/>
      <point x="300" y="815" type="curve" smooth="yes"/>
      <point x="360" y="815"/>
      <point x="398" y="776"/>
      <point x="468" y="776" type="curve" smooth="yes"/>
      <point x="551" y="776"/>
      <point x="603" y="880"/>
      <point x="603" y="880" type="curve"/>
      <point x="548" y="922" type="line"/>
      <point x="548" y="922"/>
      <point x="518" y="880"/>
      <point x="479" y="880" type="curve" smooth="yes"/>
      <point x="419" y="880"/>
      <point x="375" y="926"/>
      <point x="305" y="926" type="curve" smooth="yes"/>
      <point x="222" y="926"/>
      <point x="180" y="816"/>
      <point x="180" y="816" type="curve"/>
    </contour>
    <component base="A"/>
  </outline>
</glyph>
<glyph name="AE" format="1">
  <advance width="971"/>
  <unicode hex="00C6"/>
  <outline>
    <contour>
      <point x="629" y="585" type="line"/>
      <point x="791" y="585" type="line"/>
      <point x="816" y="510" type="line"/>
      <point x="909" y="510" type="line"/>
      <point x="909" y="705" type="line"/>
      <point x="424" y="705" type="line"/>
      <point x="233" y="700" type="line"/>
      <point x="233" y="615" type="line"/>
      <point x="318" y="585" type="line"/>
      <point x="89" y="115" type="line"/>
      <point x="5" y="85" type="line"/>
      <point x="5" y="0" type="line"/>
      <point x="303" y="0" type="line"/>
      <point x="303" y="85" type="line"/>
      <point x="242" y="111" type="line"/>
      <point x="281" y="192" type="line"/>
      <point x="474" y="192" type="line"/>
      <point x="474" y="115" type="line"/>
      <point x="400" y="85" type="line"/>
      <point x="400" y="0" type="line"/>
      <point x="921" y="0" type="line"/>
      <point x="921" y="202" type="line"/>
      <point x="829" y="202" type="line"/>
      <point x="806" y="120" type="line"/>
      <point x="629" y="120" type="line"/>
      <point x="629" y="310" type="line"/>
      <point x="831" y="310" type="line"/>
      <point x="831" y="420" type="line"/>
      <point x="629" y="420" type="line"/>
    </contour>
    <contour>
      <point x="474" y="300" type="line"/>
      <point x="328" y="300" type="line"/>
      <point x="460" y="585" type="line"/>
      <point x="474" y="585" type="line"/>
    </contour>
  </outline>
</glyph>
<glyph name="Ccedilla" format="1">
  <advance width="667"/>
  <unicode hex="00C7"/>
  <outline>
    <contour>
      <point x="582" y="187" type="line"/>
      <point x="582" y="187"/>
      <point x="492" y="117"/>
      <point x="392" y="117" type="curve" smooth="yes"/>
      <point x="287" y="117"/>
      <point x="222" y="185"/>
      <point x="222" y="347" type="curve" smooth="yes"/>
      <point x="222" y="514"/>
      <point x="282" y="592"/>
      <point x="387" y="592" type="curve" smooth="yes"/>
      <point x="452" y="592"/>
      <point x="499" y="576"/>
      <point x="499" y="576" type="curve"/>
      <point x="522" y="480" type="line"/>
      <point x="620" y="480" type="line"/>
      <point x="625" y="670" type="line"/>
      <point x="625" y="670"/>
      <point x="513" y="717"/>
      <point x="392" y="717" type="curve" smooth="yes"/>
      <point x="187" y="717"/>
      <point x="55" y="577"/>
      <point x="55" y="342" type="curve" smooth="yes"/>
      <point x="55" y="123"/>
      <point x="159" y="2"/>
      <point x="340" y="-10" type="curve"/>
      <point x="340" y="-87" type="line"/>
      <point x="389" y="-87"/>
      <point x="422" y="-101"/>
      <point x="422" y="-130" type="curve" smooth="yes"/>
      <point x="422" y="-152"/>
      <point x="404" y="-167"/>
      <point x="376" y="-167" type="curve" smooth="yes"/>
      <point x="336" y="-167"/>
      <point x="294" y="-144"/>
      <point x="294" y="-144" type="curve"/>
      <point x="262" y="-200" type="line"/>
      <point x="262" y="-200"/>
      <point x="319" y="-234"/>
      <point x="387" y="-234" type="curve" smooth="yes"/>
      <point x="459" y="-234"/>
      <point x="513" y="-193"/>
      <point x="513" y="-134" type="curve" smooth="yes"/>
      <point x="513" y="-84"/>
      <point x="479" y="-54"/>
      <point x="428" y="-44" type="curve"/>
      <point x="428" y="-8" type="line"/>
      <point x="555" y="12"/>
      <point x="637" y="97"/>
      <point x="637" y="97" type="curve"/>
    </contour>
  </outline>
</glyph>
<glyph name="Idieresis" format="1">
  <advance width="404"/>
  <unicode hex="00CF"/>
  <outline>
    <contour>
      <point x="26" y="797"/>
      <point x="51" y="769"/>
      <point x="98" y="769" type="curve" smooth="yes"/>
      <point x="137" y="769"/>
      <point x="172" y="797"/>
      <point x="172" y="847" type="curve" smooth="yes"/>
      <point x="172" y="896"/>
      <point x="147" y="925"/>
      <point x="100" y="925" type="curve" smooth="yes"/>
      <point x="61" y="925"/>
      <point x="26" y="896"/>
      <point x="26" y="847" type="curve" smooth="yes"/>
    </contour>
    <contour>
      <point x="234" y="797"/>
      <point x="259" y="769"/>
      <point x="306" y="769" type="curve" smooth="yes"/>
      <point x="345" y="769"/>
      <point x="380" y="797"/>
      <point x="380" y="847" type="curve" smooth="yes"/>
      <point x="380" y="896"/>
      <point x="356" y="925"/>
      <point x="308" y="925" type="curve" smooth="yes"/>
      <point x="270" y="925"/>
      <point x="234" y="896"/>
      <point x="234" y="847" type="curve" smooth="yes"/>
    </contour>
    <component base="I" xOffset="14"/>
  </outline>
</glyph>
<glyph name="Eth" format="1">
  <advance width="741"/>
  <unicode hex="00D0"/>
  <outline>
    <contour>
      <point x="47" y="312" type="line"/>
      <point x="115" y="312" type="line"/>
      <point x="115" y="115" type="line"/>
      <point x="40" y="85" type="line"/>
      <point x="40" y="0" type="line"/>
      <point x="354" y="0" type="line" smooth="yes"/>
      <point x="556" y="0"/>
      <point x="686" y="137"/>
      <point x="686" y="362" type="curve" smooth="yes"/>
      <point x="686" y="587"/>
      <point x="569" y="705"/>
      <point x="369" y="705" type="curve" smooth="yes"/>
      <point x="270" y="705" type="line"/>
      <point x="40" y="700" type="line"/>
      <point x="40" y="615" type="line"/>
      <point x="115" y="585" type="line"/>
      <point x="115" y="422" type="line"/>
      <point x="47" y="422" type="line"/>
    </contour>
    <contour>
      <point x="269" y="585" type="line"/>
      <point x="364" y="585" type="line" smooth="yes"/>
      <point x="461" y="585"/>
      <point x="519" y="525"/>
      <point x="519" y="357" type="curve" smooth="yes"/>
      <point x="519" y="177"/>
      <point x="454" y="120"/>
      <point x="356" y="120" type="curve" smooth="yes"/>
      <point x="269" y="120" type="line"/>
      <point x="269" y="312" type="line"/>
      <point x="390" y="312" type="line"/>
      <point x="390" y="422" type="line"/>
      <point x="269" y="422" type="line"/>
    </contour>
  </outline>
</glyph>
<glyph name="Ntilde" format="1">
  <advance width="785"/>
  <unicode hex="00D1"/>
  <outline>
    <contour>
      <point x="230" y="777" type="line"/>
      <point x="230" y="777"/>
      <point x="260" y="815"/>
      <point x="302" y="815" type="curve" smooth="yes"/>
      <point x="362" y="815"/>
      <point x="400" y="776"/>
      <point x="470" y="776" type="curve" smooth="yes"/>
      <point x="553" y="776"/>
      <point x="605" y="880"/>
      <point x="605" y="880" type="curve"/>
      <point x="550" y="922" type="line"/>
      <point x="550" y="922"/>
      <point x="520" y="880"/>
      <point x="481" y="880" type="curve" smooth="yes"/>
      <point x="421" y="880"/>
      <point x="377" y="926"/>
      <point x="307" y="926" type="curve" smooth="yes"/>
      <point x="224" y="926"/>
      <point x="182" y="816"/>
      <point x="182" y="816" type="curve"/>
    </contour>
    <component base="N"/>
  </outline>
</glyph>
<glyph name="Otilde" format="1">
  <advance width="755"/>
  <unicode hex="00D5"/>
  <outline>
    <contour>
      <point x="212" y="777" type="line"/>
      <point x="212" y="777"/>
      <point x="242" y="815"/>
      <point x="284" y="815" type="curve" smooth="yes"/>
      <point x="344" y="815"/>
      <point x="382" y="776"/>
      <point x="452" y="776" type="curve" smooth="yes"/>
      <point x="535" y="776"/>
      <point x="587" y="880"/>
      <point x="587" y="880" type="curve"/>
      <point x="532" y="922" type="line"/>
      <point x="532" y="922"/>
      <point x="502" y="880"/>
      <point x="463" y="880" type="curve" smooth="yes"/>
      <point x="403" y="880"/>
      <point x="359" y="926"/>
      <point x="289" y="926" type="curve" smooth="yes"/>
      <point x="206" y="926"/>
      <point x="164" y="816"/>
      <point x="164" y="816" type="curve"/>
    </contour>
    <component base="O"/>
  </outline>
</glyph>
<glyph name="multiply" format="1">
  <advance width="613"/>
  <unicode hex="00D7"/>
  <outline>
    <contour>
      <point x="53" y="439" type="line"/>
      <point x="222" y="270" type="line"/>
      <point x="53" y="101" type="line"/>
      <point x="137" y="16" type="line"/>
      <point x="306" y="186" type="line"/>
      <point x="476" y="16" type="line"/>
      <point x="560" y="101" type="line"/>
      <point x="391" y="270" type="line"/>
      <point x="560" y="439" type="line"/>
      <point x="476" y="524" type="line"/>
      <point x="306" y="354" type="line"/>
      <point x="137" y="524" type="line"/>
    </contour>
  </outline>
</glyph>
<glyph name="Oslash" format="1">
  <advance width="765"/>
  <unicode hex="00D8"/>
  <outline>
    <contour>
      <point x="161" y="-110" type="line"/>
      <point x="235" y="12" type="line"/>
      <point x="274" y="-4"/>
      <point x="319" y="-12"/>
      <point x="370" y="-12" type="curve" smooth="yes"/>
      <point x="570" y="-12"/>
      <point x="705" y="137"/>
      <point x="705" y="362" type="curve" smooth="yes"/>
      <point x="705" y="479"/>
      <point x="673" y="572"/>
      <point x="613" y="633" type="curve"/>
      <point x="680" y="742" type="line"/>
      <point x="591" y="793" type="line"/>
      <point x="529" y="690" type="line"/>
      <point x="488" y="708"/>
      <point x="442" y="717"/>
      <point x="390" y="717" type="curve" smooth="yes"/>
      <point x="188" y="717"/>
      <point x="60" y="577"/>
      <point x="60" y="347" type="curve" smooth="yes"/>
      <point x="60" y="223"/>
      <point x="91" y="129"/>
      <point x="150" y="69" type="curve"/>
      <point x="72" y="-59" type="line"/>
    </contour>
    <contour>
      <point x="413" y="592"/>
      <point x="437" y="586"/>
      <point x="458" y="575" type="curve"/>
      <point x="388" y="460"/>
      <point x="318" y="346"/>
      <point x="249" y="231" type="curve"/>
      <point x="234" y="264"/>
      <point x="228" y="311"/>
      <point x="228" y="363" type="curve" smooth="yes"/>
      <point x="228" y="530"/>
      <point x="286" y="592"/>
      <point x="385" y="592" type="curve" smooth="yes"/>
    </contour>
    <contour>
      <point x="538" y="181"/>
      <point x="475" y="112"/>
      <point x="375" y="112" type="curve" smooth="yes"/>
      <point x="348" y="112"/>
      <point x="325" y="118"/>
      <point x="306" y="129" type="curve"/>
      <point x="516" y="473" type="line"/>
      <point x="530" y="444"/>
      <point x="538" y="406"/>
      <point x="538" y="357" type="curve" smooth="yes"/>
    </contour>
  </outline>
</glyph>
<glyph name="Thorn" format="1">
  <advance width="629"/>
  <unicode hex="00DE"/>
  <outline>
    <contour>
      <point x="350" y="85" type="line"/>
      <point x="265" y="115" type="line"/>
      <point x="265" y="160" type="line"/>
      <point x="319" y="160" type="line" smooth="yes"/>
      <point x="490" y="160"/>
      <point x="604" y="221"/>
      <point x="604" y="370" type="curve" smooth="yes"/>
      <point x="604" y="490"/>
      <point x="514" y="555"/>
      <point x="364" y="555" type="curve" smooth="yes"/>
      <point x="265" y="555" type="line"/>
      <point x="265" y="585" type="line"/>
      <point x="350" y="615" type="line"/>
      <point x="350" y="705" type="line"/>
      <point x="35" y="700" type="line"/>
      <point x="35" y="615" type="line"/>
      <point x="110" y="585" type="line"/>
      <point x="110" y="115" type="line"/>
      <point x="35" y="85" type="line"/>
      <point x="35" y="0" type="line"/>
      <point x="350" y="0" type="line"/>
    </contour>
    <contour>
      <point x="346" y="445" type="line"/>
      <point x="409" y="445"/>
      <point x="451" y="415"/>
      <point x="451" y="360" type="curve" smooth="yes"/>
      <point x="451" y="297"/>
      <point x="404" y="267"/>
      <point x="329" y="267" type="curve" smooth="yes"/>
      <point x="265" y="267" type="line"/>
      <point x="265" y="445" type="line"/>
    </contour>
  </outline>
</glyph>
<glyph name="germandbls" format="1">
  <advance width="753"/>
  <unicode hex="00DF"/>
  <outline>
    <contour>
      <point x="133" y="530" type="line"/>
      <point x="35" y="515" type="line"/>
      <point x="35" y="430" type="line"/>
      <point x="133" y="430" type="line"/>
      <point x="133" y="105" type="line"/>
      <point x="53" y="80" type="line"/>
      <point x="53" y="0" type="line"/>
      <point x="283" y="0" type="line"/>
      <point x="283" y="577" type="line" smooth="yes"/>
      <point x="283" y="639"/>
      <point x="319" y="677"/>
      <point x="380" y="677" type="curve" smooth="yes"/>
      <point x="431" y="677"/>
      <point x="483" y="650"/>
      <point x="483" y="597" type="curve" smooth="yes"/>
      <point x="483" y="515"/>
      <point x="365" y="508"/>
      <point x="365" y="391" type="curve" smooth="yes"/>
      <point x="365" y="214"/>
      <point x="596" y="237"/>
      <point x="596" y="149" type="curve" smooth="yes"/>
      <point x="596" y="116"/>
      <point x="572" y="95"/>
      <point x="524" y="95" type="curve" smooth="yes"/>
      <point x="485" y="95"/>
      <point x="458" y="106"/>
      <point x="458" y="106" type="curve"/>
      <point x="448" y="173" type="line"/>
      <point x="358" y="173" type="line"/>
      <point x="358" y="12" type="line"/>
      <point x="358" y="12"/>
      <point x="449" y="-10"/>
      <point x="529" y="-10" type="curve" smooth="yes"/>
      <point x="657" y="-10"/>
      <point x="748" y="62"/>
      <point x="748" y="172" type="curve" smooth="yes"/>
      <point x="748" y="342"/>
      <point x="517" y="317"/>
      <point x="517" y="410" type="curve" smooth="yes"/>
      <point x="517" y="479"/>
      <point x="630" y="500"/>
      <point x="630" y="618" type="curve" smooth="yes"/>
      <point x="630" y="720"/>
      <point x="541" y="787"/>
      <point x="378" y="787" type="curve" smooth="yes"/>
      <point x="232" y="787"/>
      <point x="133" y="701"/>
      <point x="133" y="570" type="curve" smooth="yes"/>
    </contour>
  </outline>
</glyph>
<glyph name="ae" format="1">
  <advance width="866"/>
  <unicode hex="00E6"/>
  <outline>
    <contour>
      <point x="830" y="238" type="line"/>
      <point x="830" y="238"/>
      <point x="836" y="278"/>
      <point x="836" y="316" type="curve" smooth="yes"/>
      <point x="836" y="462"/>
      <point x="755" y="550"/>
      <point x="610" y="550" type="curve" smooth="yes"/>
      <point x="543" y="550"/>
      <point x="487" y="529"/>
      <point x="444" y="491" type="curve"/>
      <point x="413" y="532"/>
      <point x="361" y="549"/>
      <point x="288" y="549" type="curve" smooth="yes"/>
      <point x="195" y="549"/>
      <point x="73" y="512"/>
      <point x="73" y="510" type="curve" smooth="yes"/>
      <point x="80" y="362" type="line"/>
      <point x="170" y="362" type="line"/>
      <point x="185" y="424" type="line"/>
      <point x="185" y="424"/>
      <point x="223" y="439"/>
      <point x="273" y="439" type="curve" smooth="yes"/>
      <point x="323" y="439"/>
      <point x="350" y="417"/>
      <point x="350" y="367" type="curve" smooth="yes"/>
      <point x="350" y="312" type="line"/>
      <point x="280" y="312" type="line" smooth="yes"/>
      <point x="128" y="312"/>
      <point x="40" y="265"/>
      <point x="40" y="147" type="curve" smooth="yes"/>
      <point x="40" y="50"/>
      <point x="100" y="-10"/>
      <point x="195" y="-10" type="curve" smooth="yes"/>
      <point x="287" y="-10"/>
      <point x="353" y="44"/>
      <point x="392" y="90" type="curve"/>
      <point x="432" y="25"/>
      <point x="500" y="-10"/>
      <point x="600" y="-10" type="curve" smooth="yes"/>
      <point x="723" y="-10"/>
      <point x="830" y="74"/>
      <point x="830" y="74" type="curve"/>
      <point x="786" y="157" type="line"/>
      <point x="786" y="157"/>
      <point x="703" y="110"/>
      <point x="620" y="110" type="curve" smooth="yes"/>
      <point x="552" y="110"/>
      <point x="505" y="155"/>
      <point x="499" y="235" type="curve"/>
    </contour>
    <contour>
      <point x="183" y="207"/>
      <point x="215" y="227"/>
      <point x="293" y="227" type="curve" smooth="yes"/>
      <point x="350" y="227" type="line"/>
      <point x="350" y="162" type="line"/>
      <point x="350" y="162"/>
      <point x="295" y="102"/>
      <point x="243" y="102" type="curve" smooth="yes"/>
      <point x="205" y="102"/>
      <point x="183" y="124"/>
      <point x="183" y="162" type="curve" smooth="yes"/>
    </contour>
    <contour>
      <point x="658" y="430"/>
      <point x="682" y="387"/>
      <point x="682" y="325" type="curve"/>
      <point x="499" y="325" type="line"/>
      <point x="507" y="390"/>
      <point x="544" y="430"/>
      <point x="600" y="430" type="curve" smooth="yes"/>
    </contour>
  </outline>
</glyph>
<glyph name="ccedilla" format="1">
  <advance width="525"/>
  <unicode hex="00E7"/>
  <outline>
    <contour>
      <point x="460" y="163" type="line"/>
      <point x="429" y="145"/>
      <point x="385" y="110"/>
      <point x="315" y="110" type="curve" smooth="yes"/>
      <point x="232" y="110"/>
      <point x="190" y="173"/>
      <point x="190" y="282" type="curve" smooth="yes"/>
      <point x="190" y="383"/>
      <point x="235" y="430"/>
      <point x="307" y="430" type="curve" smooth="yes"/>
      <point x="347" y="430"/>
      <point x="376" y="422"/>
      <point x="376" y="422" type="curve"/>
      <point x="390" y="352" type="line"/>
      <point x="480" y="352" type="line"/>
      <point x="485" y="515" type="line"/>
      <point x="485" y="515"/>
      <point x="396" y="550"/>
      <point x="310" y="550" type="curve" smooth="yes"/>
      <point x="135" y="550"/>
      <point x="35" y="440"/>
      <point x="35" y="262" type="curve" smooth="yes"/>
      <point x="35" y="107"/>
      <point x="114" y="8"/>
      <point x="253" y="-7" type="curve"/>
      <point x="253" y="-82" type="line"/>
      <point x="302" y="-82"/>
      <point x="336" y="-97"/>
      <point x="336" y="-126" type="curve" smooth="yes"/>
      <point x="336" y="-148"/>
      <point x="318" y="-163"/>
      <point x="289" y="-163" type="curve" smooth="yes"/>
      <point x="249" y="-163"/>
      <point x="207" y="-142"/>
      <point x="207" y="-142" type="curve"/>
      <point x="176" y="-197" type="line"/>
      <point x="176" y="-197"/>
      <point x="232" y="-229"/>
      <point x="300" y="-229" type="curve" smooth="yes"/>
      <point x="370" y="-229"/>
      <point x="425" y="-188"/>
      <point x="425" y="-130" type="curve" smooth="yes"/>
      <point x="425" y="-82"/>
      <point x="390" y="-50"/>
      <point x="339" y="-40" type="curve"/>
      <point x="339" y="-6" type="line"/>
      <point x="427" y="6"/>
      <point x="488" y="56"/>
      <point x="510" y="75" type="curve"/>
    </contour>
  </outline>
</glyph>
<glyph name="icircumflex" format="1">
  <advance width="363"/>
  <unicode hex="00EE"/>
  <outline>
    <contour>
      <point x="180" y="718" type="line"/>
      <point x="334" y="598" type="line"/>
      <point x="383" y="664" type="line"/>
      <point x="217" y="825" type="line"/>
      <point x="128" y="817" type="line"/>
      <point x="-28" y="664" type="line"/>
      <point x="21" y="598" type="line"/>
    </contour>
    <component base="dotlessi"/>
  </outline>
</glyph>
<glyph name="idieresis" format="1">
  <advance width="362"/>
  <unicode hex="00EF"/>
  <outline>
    <contour>
      <point x="-1" y="648"/>
      <point x="24" y="620"/>
      <point x="71" y="620" type="curve" smooth="yes"/>
      <point x="110" y="620"/>
      <point x="145" y="648"/>
      <point x="145" y="698" type="curve" smooth="yes"/>
      <point x="145" y="747"/>
      <point x="120" y="776"/>
      <point x="73" y="776" type="curve" smooth="yes"/>
      <point x="34" y="776"/>
      <point x="-1" y="747"/>
      <point x="-1" y="698" type="curve" smooth="yes"/>
    </contour>
    <contour>
      <point x="207" y="648"/>
      <point x="232" y="620"/>
      <point x="279" y="620" type="curve" smooth="yes"/>
      <point x="318" y="620"/>
      <point x="353" y="648"/>
      <point x="353" y="698" type="curve" smooth="yes"/>
      <point x="353" y="747"/>
      <point x="329" y="776"/>
      <point x="281" y="776" type="curve" smooth="yes"/>
      <point x="243" y="776"/>
      <point x="207" y="747"/>
      <point x="207" y="698" type="curve" smooth="yes"/>
    </contour>
    <component base="dotlessi"/>
  </outline>
</glyph>
<glyph name="eth" format="1">
  <advance width="578"/>
  <unicode hex="00F0"/>
  <outline>
    <contour>
      <point x="118" y="702" type="line"/>
      <point x="149" y="691"/>
      <point x="178" y="678"/>
      <point x="203" y="665" type="curve"/>
      <point x="115" y="615" type="line"/>
      <point x="173" y="536" type="line"/>
      <point x="290" y="603" type="line"/>
      <point x="326" y="569"/>
      <point x="351" y="528"/>
      <point x="368" y="483" type="curve"/>
      <point x="347" y="495"/>
      <point x="321" y="505"/>
      <point x="290" y="505" type="curve" smooth="yes"/>
      <point x="141" y="505"/>
      <point x="35" y="406"/>
      <point x="35" y="240" type="curve" smooth="yes"/>
      <point x="35" y="71"/>
      <point x="131" y="-12"/>
      <point x="280" y="-12" type="curve" smooth="yes"/>
      <point x="438" y="-12"/>
      <point x="538" y="100"/>
      <point x="538" y="272" type="curve" smooth="yes"/>
      <point x="538" y="439"/>
      <point x="486" y="572"/>
      <point x="393" y="664" type="curve"/>
      <point x="474" y="710" type="line"/>
      <point x="416" y="789" type="line"/>
      <point x="311" y="728" type="line"/>
      <point x="267" y="755"/>
      <point x="218" y="776"/>
      <point x="164" y="789" type="curve"/>
    </contour>
    <contour>
      <point x="363" y="390"/>
      <point x="383" y="337"/>
      <point x="383" y="250" type="curve" smooth="yes"/>
      <point x="383" y="158"/>
      <point x="358" y="103"/>
      <point x="285" y="103" type="curve" smooth="yes"/>
      <point x="215" y="103"/>
      <point x="190" y="163"/>
      <point x="190" y="245" type="curve" smooth="yes"/>
      <point x="190" y="338"/>
      <point x="218" y="390"/>
      <point x="290" y="390" type="curve" smooth="yes"/>
    </contour>
  </outline>
</glyph>
<glyph name="divide" format="1">
  <advance width="630"/>
  <unicode hex="00F7"/>
  <outline>
    <contour>
      <point x="228" y="-9"/>
      <point x="257" y="-42"/>
      <point x="314" y="-42" type="curve" smooth="yes"/>
      <point x="364" y="-42"/>
      <point x="402" y="-9"/>
      <point x="402" y="51" type="curve" smooth="yes"/>
      <point x="402" y="111"/>
      <point x="374" y="143"/>
      <point x="317" y="143" type="curve" smooth="yes"/>
      <point x="267" y="143"/>
      <point x="228" y="111"/>
      <point x="228" y="51" type="curve" smooth="yes"/>
    </contour>
    <contour>
      <point x="228" y="421"/>
      <point x="257" y="388"/>
      <point x="314" y="388" type="curve" smooth="yes"/>
      <point x="364" y="388"/>
      <point x="402" y="421"/>
      <point x="402" y="481" type="curve" smooth="yes"/>
      <point x="402" y="541"/>
      <point x="374" y="573"/>
      <point x="317" y="573" type="curve" smooth="yes"/>
      <point x="267" y="573"/>
      <point x="228" y="541"/>
      <point x="228" y="481" type="curve" smooth="yes"/>
    </contour>
    <contour>
      <point x="52" y="208" type="line"/>
      <point x="577" y="208" type="line"/>
      <point x="577" y="323" type="line"/>
      <point x="52" y="323" type="line"/>
    </contour>
  </outline>
</glyph>
<glyph name="oslash" format="1">
  <advance width="602"/>
  <unicode hex="00F8"/>
  <outline>
    <contour>
      <point x="119" y="-117" type="line"/>
      <point x="192" y="4" type="line"/>
      <point x="222" y="-4"/>
      <point x="257" y="-10"/>
      <point x="295" y="-10" type="curve" smooth="yes"/>
      <point x="457" y="-10"/>
      <point x="562" y="100"/>
      <point x="562" y="280" type="curve" smooth="yes"/>
      <point x="562" y="374"/>
      <point x="535" y="446"/>
      <point x="484" y="492" type="curve"/>
      <point x="549" y="601" type="line"/>
      <point x="474" y="643" type="line"/>
      <point x="409" y="534" type="line"/>
      <point x="379" y="544"/>
      <point x="346" y="550"/>
      <point x="310" y="550" type="curve" smooth="yes"/>
      <point x="147" y="550"/>
      <point x="40" y="445"/>
      <point x="40" y="265" type="curve" smooth="yes"/>
      <point x="40" y="162"/>
      <point x="66" y="90"/>
      <point x="116" y="46" type="curve"/>
      <point x="44" y="-75" type="line"/>
    </contour>
    <contour>
      <point x="407" y="154"/>
      <point x="374" y="105"/>
      <point x="300" y="105" type="curve" smooth="yes"/>
      <point x="283" y="105"/>
      <point x="269" y="107"/>
      <point x="257" y="113" type="curve"/>
      <point x="396" y="345" type="line"/>
      <point x="404" y="326"/>
      <point x="407" y="302"/>
      <point x="407" y="275" type="curve" smooth="yes"/>
    </contour>
    <contour>
      <point x="320" y="435"/>
      <point x="333" y="432"/>
      <point x="344" y="427" type="curve"/>
      <point x="206" y="196" type="line"/>
      <point x="199" y="216"/>
      <point x="195" y="239"/>
      <point x="195" y="269" type="curve" smooth="yes"/>
      <point x="195" y="391"/>
      <point x="229" y="435"/>
      <point x="305" y="435" type="curve" smooth="yes"/>
    </contour>
  </outline>
</glyph>
<glyph name="thorn" format="1">
  <advance width="630"/>
  <unicode hex="00FE"/>
  <outline>
    <contour>
      <point x="20" y="767" type="line"/>
      <point x="20" y="687" type="line"/>
      <point x="100" y="667" type="line"/>
      <point x="100" y="-132" type="line"/>
      <point x="22" y="-155" type="line"/>
      <point x="22" y="-235" type="line"/>
      <point x="355" y="-235" type="line"/>
      <point x="355" y="-155" type="line"/>
      <point x="250" y="-132" type="line"/>
      <point x="250" y="-2" type="line"/>
      <point x="250" y="-2"/>
      <point x="284" y="-10"/>
      <point x="310" y="-10" type="curve" smooth="yes"/>
      <point x="502" y="-10"/>
      <point x="595" y="100"/>
      <point x="595" y="285" type="curve" smooth="yes"/>
      <point x="595" y="445"/>
      <point x="525" y="550"/>
      <point x="392" y="550" type="curve" smooth="yes"/>
      <point x="305" y="550"/>
      <point x="250" y="492"/>
      <point x="250" y="492" type="curve"/>
      <point x="250" y="775" type="line"/>
    </contour>
    <contour>
      <point x="250" y="383" type="line"/>
      <point x="250" y="383"/>
      <point x="282" y="430"/>
      <point x="342" y="430" type="curve" smooth="yes"/>
      <point x="410" y="430"/>
      <point x="440" y="375"/>
      <point x="440" y="275" type="curve" smooth="yes"/>
      <point x="440" y="174"/>
      <point x="411" y="105"/>
      <point x="326" y="105" type="curve" smooth="yes"/>
      <point x="275" y="105"/>
      <point x="250" y="118"/>
      <point x="250" y="118" type="curve"/>
    </contour>
  </outline>
</glyph>
<glyph name="Aogonek" format="1">
  <advance width="758"/>
  <unicode hex="0104"/>
  <outline>
    <contour>
      <point x="590" y="-51"/>
      <point x="743" y="0"/>
      <point x="743" y="0" type="curve"/>
      <point x="611" y="3" type="line"/>
      <point x="611" y="3"/>
      <point x="475" y="-46"/>
      <point x="475" y="-135" type="curve" smooth="yes"/>
      <point x="475" y="-203"/>
      <point x="525" y="-235"/>
      <point x="585" y="-235" type="curve" smooth="yes"/>
      <point x="640" y="-235"/>
      <point x="687" y="-210"/>
      <point x="687" y="-210" type="curve"/>
      <point x="670" y="-140" type="line"/>
      <point x="670" y="-140"/>
      <point x="644" y="-146"/>
      <point x="627" y="-146" type="curve" smooth="yes"/>
      <point x="606" y="-146"/>
      <point x="590" y="-134"/>
      <point x="590" y="-110" type="curve" smooth="yes"/>
    </contour>
    <component base="A"/>
  </outline>
</glyph>
<glyph name="aogonek" format="1">
  <advance width="601"/>
  <unicode hex="0105"/>
  <outline>
    <contour>
      <point x="576" y="87" type="line"/>
      <point x="501" y="105" type="line"/>
      <point x="501" y="352" type="line" smooth="yes"/>
      <point x="501" y="497"/>
      <point x="443" y="550"/>
      <point x="291" y="550" type="curve" smooth="yes"/>
      <point x="195" y="550"/>
      <point x="74" y="510"/>
      <point x="74" y="510" type="curve"/>
      <point x="81" y="362" type="line"/>
      <point x="171" y="362" type="line"/>
      <point x="186" y="425" type="line"/>
      <point x="186" y="425"/>
      <point x="223" y="440"/>
      <point x="274" y="440" type="curve" smooth="yes"/>
      <point x="324" y="440"/>
      <point x="351" y="418"/>
      <point x="351" y="367" type="curve" smooth="yes"/>
      <point x="351" y="312" type="line"/>
      <point x="281" y="312" type="line" smooth="yes"/>
      <point x="129" y="312"/>
      <point x="40" y="265"/>
      <point x="40" y="147" type="curve" smooth="yes"/>
      <point x="40" y="47"/>
      <point x="99" y="-10"/>
      <point x="196" y="-10" type="curve" smooth="yes"/>
      <point x="281" y="-10"/>
      <point x="358" y="65"/>
      <point x="358" y="65" type="curve"/>
      <point x="376" y="0" type="line"/>
      <point x="445" y="2" type="line"/>
      <point x="424" y="-7"/>
      <point x="342" y="-58"/>
      <point x="342" y="-135" type="curve" smooth="yes"/>
      <point x="342" y="-203"/>
      <point x="393" y="-235"/>
      <point x="452" y="-235" type="curve" smooth="yes"/>
      <point x="507" y="-235"/>
      <point x="555" y="-210"/>
      <point x="555" y="-210" type="curve"/>
      <point x="538" y="-140" type="line"/>
      <point x="538" y="-140"/>
      <point x="511" y="-146"/>
      <point x="495" y="-146" type="curve" smooth="yes"/>
      <point x="474" y="-146"/>
      <point x="457" y="-134"/>
      <point x="457" y="-110" type="curve" smooth="yes"/>
      <point x="457" y="-58"/>
      <point x="576" y="7"/>
      <point x="576" y="7" type="curve"/>
    </contour>
    <contour>
      <point x="185" y="207"/>
      <point x="216" y="227"/>
      <point x="294" y="227" type="curve" smooth="yes"/>
      <point x="351" y="227" type="line"/>
      <point x="351" y="160" type="line"/>
      <point x="351" y="160"/>
      <point x="297" y="102"/>
      <point x="244" y="102" type="curve" smooth="yes"/>
      <point x="206" y="102"/>
      <point x="185" y="124"/>
      <point x="185" y="162" type="curve" smooth="yes"/>
    </contour>
  </outline>
</glyph>
<glyph name="dcaron" format="1">
  <advance width="741"/>
  <unicode hex="010F"/>
  <outline>
    <contour>
      <point x="450" y="528" type="move"/>
    </contour>
    <component base="d"/>
    <component base="caron.x" xOffset="580"/>
  </outline>
</glyph>
<glyph name="eogonek" format="1">
  <advance width="559"/>
  <unicode hex="0119"/>
  <outline>
    <contour>
      <point x="357" y="-49"/>
      <point x="492" y="52"/>
      <point x="523" y="74" type="curve"/>
      <point x="480" y="157" type="line"/>
      <point x="445" y="139"/>
      <point x="389" y="110"/>
      <point x="312" y="110" type="curve" smooth="yes"/>
      <point x="244" y="110"/>
      <point x="198" y="157"/>
      <point x="192" y="237" type="curve"/>
      <point x="524" y="240" type="line"/>
      <point x="524" y="240"/>
      <point x="529" y="277"/>
      <point x="529" y="315" type="curve" smooth="yes"/>
      <point x="529" y="458"/>
      <point x="451" y="550"/>
      <point x="302" y="550" type="curve" smooth="yes"/>
      <point x="134" y="550"/>
      <point x="35" y="435"/>
      <point x="35" y="260" type="curve" smooth="yes"/>
      <point x="35" y="90"/>
      <point x="123" y="-10"/>
      <point x="295" y="-10" type="curve" smooth="yes"/>
      <point x="304" y="-10"/>
      <point x="313" y="-9"/>
      <point x="322" y="-8" type="curve"/>
      <point x="287" y="-36"/>
      <point x="242" y="-81"/>
      <point x="242" y="-137" type="curve" smooth="yes"/>
      <point x="242" y="-203"/>
      <point x="292" y="-235"/>
      <point x="352" y="-235" type="curve" smooth="yes"/>
      <point x="407" y="-235"/>
      <point x="454" y="-210"/>
      <point x="454" y="-210" type="curve"/>
      <point x="437" y="-140" type="line"/>
      <point x="437" y="-140"/>
      <point x="411" y="-146"/>
      <point x="395" y="-146" type="curve" smooth="yes"/>
      <point x="373" y="-146"/>
      <point x="357" y="-132"/>
      <point x="357" y="-107" type="curve" smooth="yes"/>
    </contour>
    <contour>
      <point x="350" y="430"/>
      <point x="374" y="387"/>
      <point x="374" y="330" type="curve"/>
      <point x="194" y="330" type="line"/>
      <point x="202" y="389"/>
      <point x="237" y="430"/>
      <point x="292" y="430" type="curve" smooth="yes"/>
    </contour>
  </outline>
</glyph>
<glyph name="Hbar" format="1">
  <advance width="792"/>
  <unicode hex="0126"/>
  <outline>
    <contour>
      <point x="342" y="85" type="line"/>
      <point x="265" y="115" type="line"/>
      <point x="265" y="295" type="line"/>
      <point x="527" y="295" type="line"/>
      <point x="527" y="115" type="line"/>
      <point x="450" y="85" type="line"/>
      <point x="450" y="0" type="line"/>
      <point x="757" y="0" type="line"/>
      <point x="757" y="85" type="line"/>
      <point x="682" y="115" type="line"/>
      <point x="682" y="585" type="line"/>
      <point x="757" y="615" type="line"/>
      <point x="757" y="705" type="line"/>
      <point x="450" y="700" type="line"/>
      <point x="450" y="617" type="line"/>
      <point x="527" y="587" type="line"/>
      <point x="527" y="412" type="line"/>
      <point x="265" y="412" type="line"/>
      <point x="265" y="587" type="line"/>
      <point x="342" y="617" type="line"/>
      <point x="342" y="705" type="line"/>
      <point x="35" y="700" type="line"/>
      <point x="35" y="615" type="line"/>
      <point x="110" y="585" type="line"/>
      <point x="110" y="115" type="line"/>
      <point x="35" y="85" type="line"/>
      <point x="35" y="0" type="line"/>
      <point x="342" y="0" type="line"/>
    </contour>
    <contour>
      <point x="35" y="465" type="line"/>
      <point x="757" y="465" type="line"/>
      <point x="757" y="555" type="line"/>
      <point x="35" y="555" type="line"/>
    </contour>
  </outline>
</glyph>
<glyph name="hbar" format="1">
  <advance width="670"/>
  <unicode hex="0127"/>
  <outline>
    <contour>
      <point x="20" y="560" type="line"/>
      <point x="327" y="560" type="line"/>
      <point x="327" y="640" type="line"/>
      <point x="20" y="640" type="line"/>
    </contour>
    <contour>
      <point x="20" y="767" type="line"/>
      <point x="20" y="687" type="line"/>
      <point x="100" y="667" type="line"/>
      <point x="100" y="105" type="line"/>
      <point x="20" y="80" type="line"/>
      <point x="20" y="0" type="line"/>
      <point x="303" y="0" type="line"/>
      <point x="303" y="80" type="line"/>
      <point x="250" y="105" type="line"/>
      <point x="250" y="373" type="line"/>
      <point x="250" y="373"/>
      <point x="303" y="426"/>
      <point x="359" y="426" type="curve" smooth="yes"/>
      <point x="405" y="426"/>
      <point x="425" y="396"/>
      <point x="425" y="346" type="curve" smooth="yes"/>
      <point x="425" y="104" type="line"/>
      <point x="373" y="80" type="line"/>
      <point x="373" y="0" type="line"/>
      <point x="645" y="0" type="line"/>
      <point x="645" y="80" type="line"/>
      <point x="575" y="105" type="line"/>
      <point x="575" y="370" type="line" smooth="yes"/>
      <point x="575" y="482"/>
      <point x="520" y="550"/>
      <point x="418" y="550" type="curve" smooth="yes"/>
      <point x="344" y="550"/>
      <point x="279" y="506"/>
      <point x="250" y="482" type="curve"/>
      <point x="250" y="775" type="line"/>
    </contour>
  </outline>
</glyph>
<glyph name="Itilde" format="1">
  <advance width="375"/>
  <unicode hex="0128"/>
  <outline>
    <contour>
      <point x="25" y="777" type="line"/>
      <point x="25" y="777"/>
      <point x="55" y="815"/>
      <point x="97" y="815" type="curve" smooth="yes"/>
      <point x="157" y="815"/>
      <point x="195" y="776"/>
      <point x="265" y="776" type="curve" smooth="yes"/>
      <point x="348" y="776"/>
      <point x="400" y="880"/>
      <point x="400" y="880" type="curve"/>
      <point x="345" y="922" type="line"/>
      <point x="345" y="922"/>
      <point x="315" y="880"/>
      <point x="276" y="880" type="curve" smooth="yes"/>
      <point x="216" y="880"/>
      <point x="172" y="926"/>
      <point x="102" y="926" type="curve" smooth="yes"/>
      <point x="19" y="926"/>
      <point x="-23" y="816"/>
      <point x="-23" y="816" type="curve"/>
    </contour>
    <component base="I"/>
  </outline>
</glyph>
<glyph name="itilde" format="1">
  <advance width="361"/>
  <unicode hex="0129"/>
  <outline>
    <contour>
      <point x="15" y="630" type="line"/>
      <point x="15" y="630"/>
      <point x="46" y="671"/>
      <point x="85" y="671" type="curve" smooth="yes"/>
      <point x="140" y="671"/>
      <point x="179" y="627"/>
      <point x="239" y="627" type="curve" smooth="yes"/>
      <point x="318" y="627"/>
      <point x="361" y="736"/>
      <point x="361" y="736" type="curve"/>
      <point x="308" y="782" type="line"/>
      <point x="308" y="782"/>
      <point x="278" y="740"/>
      <point x="242" y="740" type="curve" smooth="yes"/>
      <point x="192" y="740"/>
      <point x="155" y="786"/>
      <point x="90" y="786" type="curve" smooth="yes"/>
      <point x="10" y="786"/>
      <point x="-32" y="676"/>
      <point x="-32" y="676" type="curve"/>
    </contour>
    <component base="dotlessi"/>
  </outline>
</glyph>
<glyph name="Iogonek" format="1">
  <advance width="375"/>
  <unicode hex="012E"/>
  <outline>
    <contour>
      <point x="199" y="-66"/>
      <point x="292" y="-23"/>
      <point x="345" y="0" type="curve"/>
      <point x="207" y="3" type="line"/>
      <point x="207" y="3"/>
      <point x="84" y="-46"/>
      <point x="84" y="-135" type="curve" smooth="yes"/>
      <point x="84" y="-203"/>
      <point x="134" y="-235"/>
      <point x="194" y="-235" type="curve" smooth="yes"/>
      <point x="249" y="-235"/>
      <point x="296" y="-210"/>
      <point x="296" y="-210" type="curve"/>
      <point x="279" y="-140" type="line"/>
      <point x="279" y="-140"/>
      <point x="253" y="-146"/>
      <point x="236" y="-146" type="curve" smooth="yes"/>
      <point x="215" y="-146"/>
      <point x="199" y="-134"/>
      <point x="199" y="-110" type="curve" smooth="yes"/>
    </contour>
    <component base="I"/>
  </outline>
</glyph>
<glyph name="iogonek" format="1">
  <advance width="365"/>
  <unicode hex="012F"/>
  <outline>
    <contour>
      <point x="186" y="-61"/>
      <point x="332" y="0"/>
      <point x="332" y="0" type="curve"/>
      <point x="192" y="0" type="line"/>
      <point x="192" y="0"/>
      <point x="71" y="-49"/>
      <point x="71" y="-135" type="curve" smooth="yes"/>
      <point x="71" y="-203"/>
      <point x="121" y="-235"/>
      <point x="181" y="-235" type="curve" smooth="yes"/>
      <point x="236" y="-235"/>
      <point x="283" y="-210"/>
      <point x="283" y="-210" type="curve"/>
      <point x="266" y="-140" type="line"/>
      <point x="266" y="-140"/>
      <point x="239" y="-146"/>
      <point x="223" y="-146" type="curve" smooth="yes"/>
      <point x="202" y="-146"/>
      <point x="186" y="-134"/>
      <point x="186" y="-110" type="curve" smooth="yes"/>
    </contour>
    <component base="i"/>
  </outline>
</glyph>
<glyph name="dotlessi" format="1">
  <advance width="362"/>
  <unicode hex="0131"/>
  <outline>
    <contour>
      <point x="35" y="532" type="line"/>
      <point x="35" y="452" type="line"/>
      <point x="115" y="432" type="line"/>
      <point x="115" y="105" type="line"/>
      <point x="35" y="80" type="line"/>
      <point x="35" y="0" type="line"/>
      <point x="332" y="0" type="line"/>
      <point x="332" y="80" type="line"/>
      <point x="262" y="105" type="line"/>
      <point x="262" y="540" type="line"/>
    </contour>
  </outline>
</glyph>
<glyph name="kgreenlandic" format="1">
  <advance width="648"/>
  <unicode hex="0138"/>
  <outline>
    <contour>
      <point x="35" y="535" type="line"/>
      <point x="35" y="455" type="line"/>
      <point x="115" y="430" type="line"/>
      <point x="115" y="105" type="line"/>
      <point x="35" y="80" type="line"/>
      <point x="35" y="0" type="line"/>
      <point x="320" y="0" type="line"/>
      <point x="320" y="80" type="line"/>
      <point x="265" y="105" type="line"/>
      <point x="265" y="244" type="line"/>
      <point x="329" y="244" type="line"/>
      <point x="453" y="0" type="line"/>
      <point x="638" y="0" type="line"/>
      <point x="638" y="80" type="line"/>
      <point x="562" y="104" type="line"/>
      <point x="450" y="311" type="line"/>
      <point x="543" y="441" type="line"/>
      <point x="613" y="457" type="line"/>
      <point x="613" y="542" type="line"/>
      <point x="355" y="535" type="line"/>
      <point x="355" y="455" type="line"/>
      <point x="399" y="440" type="line"/>
      <point x="330" y="339" type="line"/>
      <point x="265" y="339" type="line"/>
      <point x="265" y="542" type="line"/>
    </contour>
  </outline>
</glyph>
<glyph name="Lcaron" format="1">
  <advance width="545"/>
  <unicode hex="013D"/>
  <outline>
    <contour>
      <point x="451" y="420" type="line"/>
      <point x="503" y="524"/>
      <point x="534" y="630"/>
      <point x="535" y="705" type="curve"/>
      <point x="404" y="700" type="line"/>
      <point x="407" y="626"/>
      <point x="399" y="546"/>
      <point x="371" y="448" type="curve"/>
    </contour>
    <component base="L"/>
  </outline>
</glyph>
<glyph name="lcaron" format="1">
  <advance width="464"/>
  <unicode hex="013E"/>
  <outline>
    <contour>
      <point x="189" y="568" type="move"/>
    </contour>
    <component base="l"/>
    <component base="caron.x" xOffset="308"/>
  </outline>
</glyph>
<glyph name="ldot" format="1">
  <advance width="507"/>
  <unicode hex="0140"/>
  <outline>
    <contour>
      <point x="187" y="654" type="move"/>
    </contour>
    <component base="l"/>
    <component base="periodcentered" xOffset="265" yOffset="7"/>
  </outline>
</glyph>
<glyph name="Lslash" format="1">
  <advance width="564"/>
  <unicode hex="0141"/>
  <outline>
    <contour>
      <point x="284" y="585" type="line"/>
      <point x="359" y="615" type="line"/>
      <point x="359" y="705" type="line"/>
      <point x="54" y="700" type="line"/>
      <point x="54" y="615" type="line"/>
      <point x="129" y="585" type="line"/>
      <point x="129" y="375" type="line"/>
      <point x="20" y="327" type="line"/>
      <point x="52" y="220" type="line"/>
      <point x="129" y="254" type="line"/>
      <point x="129" y="115" type="line"/>
      <point x="54" y="85" type="line"/>
      <point x="54" y="0" type="line"/>
      <point x="554" y="0" type="line"/>
      <point x="554" y="230" type="line"/>
      <point x="459" y="230" type="line"/>
      <point x="437" y="120" type="line"/>
      <point x="284" y="120" type="line"/>
      <point x="284" y="317" type="line"/>
      <point x="453" y="392" type="line"/>
      <point x="421" y="499" type="line"/>
      <point x="284" y="438" type="line"/>
    </contour>
  </outline>
</glyph>
<glyph name="lslash" format="1">
  <advance width="431"/>
  <unicode hex="0142"/>
  <outline>
    <contour>
      <point x="67" y="767" type="line"/>
      <point x="67" y="687" type="line"/>
      <point x="147" y="667" type="line"/>
      <point x="147" y="406" type="line"/>
      <point x="25" y="352" type="line"/>
      <point x="56" y="246" type="line"/>
      <point x="147" y="286" type="line"/>
      <point x="147" y="105" type="line"/>
      <point x="67" y="80" type="line"/>
      <point x="67" y="0" type="line"/>
      <point x="393" y="0" type="line"/>
      <point x="393" y="80" type="line"/>
      <point x="298" y="105" type="line"/>
      <point x="298" y="347" type="line"/>
      <point x="421" y="401" type="line"/>
      <point x="398" y="512" type="line"/>
      <point x="298" y="468" type="line"/>
      <point x="298" y="775" type="line"/>
    </contour>
  </outline>
</glyph>
<glyph name="napostrophe" format="1">
  <advance width="685"/>
  <unicode hex="0149"/>
  <outline>
    <contour>
      <point x="31" y="570" type="line"/>
      <point x="87" y="617"/>
      <point x="146" y="680"/>
      <point x="146" y="750" type="curve" smooth="yes"/>
      <point x="146" y="794"/>
      <point x="115" y="829"/>
      <point x="70" y="829" type="curve" smooth="yes"/>
      <point x="25" y="829"/>
      <point x="-9" y="799"/>
      <point x="-9" y="759" type="curve" smooth="yes"/>
      <point x="-9" y="730"/>
      <point x="12" y="709"/>
      <point x="12" y="691" type="curve" smooth="yes"/>
      <point x="12" y="673"/>
      <point x="-20" y="639"/>
      <point x="-33" y="618" type="curve"/>
    </contour>
    <component base="n"/>
  </outline>
</glyph>
<glyph name="Eng" format="1">
  <advance width="792"/>
  <unicode hex="014A"/>
  <outline>
    <contour>
      <point x="472" y="700" type="line"/>
      <point x="472" y="615" type="line"/>
      <point x="545" y="585" type="line"/>
      <point x="545" y="236" type="line"/>
      <point x="275" y="705" type="line"/>
      <point x="35" y="700" type="line"/>
      <point x="35" y="615" type="line"/>
      <point x="110" y="585" type="line"/>
      <point x="110" y="115" type="line"/>
      <point x="35" y="85" type="line"/>
      <point x="35" y="0" type="line"/>
      <point x="325" y="0" type="line"/>
      <point x="325" y="85" type="line"/>
      <point x="247" y="115" type="line"/>
      <point x="247" y="453" type="line"/>
      <point x="534" y="-13" type="line"/>
      <point x="520" y="-38"/>
      <point x="492.688" y="-50"/>
      <point x="446" y="-50" type="curve" smooth="yes"/>
      <point x="391" y="-50" type="line"/>
      <point x="378" y="-150" type="line"/>
      <point x="378" y="-150"/>
      <point x="422" y="-157"/>
      <point x="454" y="-157" type="curve" smooth="yes"/>
      <point x="630" y="-157"/>
      <point x="682" y="-68"/>
      <point x="682" y="106" type="curve" smooth="yes"/>
      <point x="682" y="585" type="line"/>
      <point x="757" y="615" type="line"/>
      <point x="757" y="705" type="line"/>
    </contour>
  </outline>
</glyph>
<glyph name="eng" format="1">
  <advance width="660"/>
  <unicode hex="014B"/>
  <outline>
    <contour>
      <point x="247" y="540" type="line"/>
      <point x="35" y="535" type="line"/>
      <point x="35" y="455" type="line"/>
      <point x="115" y="430" type="line"/>
      <point x="115" y="105" type="line"/>
      <point x="35" y="80" type="line"/>
      <point x="35" y="0" type="line"/>
      <point x="317" y="0" type="line"/>
      <point x="317" y="80" type="line"/>
      <point x="265" y="105" type="line"/>
      <point x="265" y="370" type="line"/>
      <point x="265" y="370"/>
      <point x="310" y="427"/>
      <point x="372" y="427" type="curve" smooth="yes"/>
      <point x="414" y="427"/>
      <point x="440" y="393"/>
      <point x="440" y="347" type="curve" smooth="yes"/>
      <point x="440" y="-40" type="line" smooth="yes"/>
      <point x="440" y="-106"/>
      <point x="417" y="-145"/>
      <point x="357" y="-145" type="curve" smooth="yes"/>
      <point x="305" y="-145" type="line"/>
      <point x="293" y="-238" type="line"/>
      <point x="293" y="-238"/>
      <point x="337" y="-245"/>
      <point x="369" y="-245" type="curve" smooth="yes"/>
      <point x="541" y="-245"/>
      <point x="590" y="-157"/>
      <point x="590" y="18" type="curve" smooth="yes"/>
      <point x="590" y="370" type="line" smooth="yes"/>
      <point x="590" y="479"/>
      <point x="538" y="548"/>
      <point x="438" y="548" type="curve" smooth="yes"/>
      <point x="349" y="548"/>
      <point x="254" y="471"/>
      <point x="254" y="471" type="curve"/>
    </contour>
  </outline>
</glyph>
<glyph name="OE" format="1">
  <advance width="964"/>
  <unicode hex="0152"/>
  <outline>
    <contour>
      <point x="617" y="310" type="line"/>
      <point x="819" y="310" type="line"/>
      <point x="819" y="420" type="line"/>
      <point x="617" y="420" type="line"/>
      <point x="617" y="585" type="line"/>
      <point x="779" y="585" type="line"/>
      <point x="804" y="510" type="line"/>
      <point x="897" y="510" type="line"/>
      <point x="897" y="705" type="line"/>
      <point x="562" y="705" type="line" smooth="yes"/>
      <point x="509" y="705"/>
      <point x="443" y="715"/>
      <point x="385" y="715" type="curve" smooth="yes"/>
      <point x="183" y="715"/>
      <point x="55" y="577"/>
      <point x="55" y="347" type="curve" smooth="yes"/>
      <point x="55" y="112"/>
      <point x="165" y="-10"/>
      <point x="365" y="-10" type="curve" smooth="yes"/>
      <point x="427" y="-10"/>
      <point x="500" y="0"/>
      <point x="549" y="0" type="curve" smooth="yes"/>
      <point x="909" y="0" type="line"/>
      <point x="909" y="200" type="line"/>
      <point x="817" y="200" type="line"/>
      <point x="794" y="120" type="line"/>
      <point x="617" y="120" type="line"/>
    </contour>
    <contour>
      <point x="462" y="120" type="line"/>
      <point x="449" y="120"/>
      <point x="408" y="115"/>
      <point x="373" y="115" type="curve" smooth="yes"/>
      <point x="271" y="115"/>
      <point x="223" y="187"/>
      <point x="223" y="352" type="curve" smooth="yes"/>
      <point x="223" y="538"/>
      <point x="283" y="589"/>
      <point x="391" y="589" type="curve" smooth="yes"/>
      <point x="413" y="589"/>
      <point x="455" y="586"/>
      <point x="462" y="585" type="curve"/>
    </contour>
  </outline>
</glyph>
<glyph name="oe" format="1">
  <advance width="928"/>
  <unicode hex="0153"/>
  <outline>
    <contour>
      <point x="143" y="550"/>
      <point x="35" y="445"/>
      <point x="35" y="265" type="curve" smooth="yes"/>
      <point x="35" y="75"/>
      <point x="128" y="-10"/>
      <point x="288" y="-10" type="curve" smooth="yes"/>
      <point x="370" y="-10"/>
      <point x="434" y="24"/>
      <point x="478" y="77" type="curve"/>
      <point x="518" y="22"/>
      <point x="580" y="-10"/>
      <point x="666" y="-10" type="curve" smooth="yes"/>
      <point x="791" y="-10"/>
      <point x="891" y="74"/>
      <point x="891" y="74" type="curve"/>
      <point x="848" y="157" type="line"/>
      <point x="814" y="141"/>
      <point x="760" y="110"/>
      <point x="680" y="110" type="curve" smooth="yes"/>
      <point x="612" y="110"/>
      <point x="566" y="157"/>
      <point x="560" y="237" type="curve"/>
      <point x="892" y="240" type="line"/>
      <point x="892" y="240"/>
      <point x="898" y="277"/>
      <point x="898" y="315" type="curve" smooth="yes"/>
      <point x="898" y="458"/>
      <point x="819" y="550"/>
      <point x="673" y="550" type="curve" smooth="yes"/>
      <point x="594" y="550"/>
      <point x="531" y="518"/>
      <point x="489" y="464" type="curve"/>
      <point x="447" y="518"/>
      <point x="383" y="550"/>
      <point x="303" y="550" type="curve" smooth="yes"/>
    </contour>
    <contour>
      <point x="373" y="430"/>
      <point x="405" y="377"/>
      <point x="405" y="275" type="curve" smooth="yes"/>
      <point x="405" y="155"/>
      <point x="368" y="110"/>
      <point x="295" y="110" type="curve" smooth="yes"/>
      <point x="223" y="110"/>
      <point x="190" y="160"/>
      <point x="190" y="270" type="curve" smooth="yes"/>
      <point x="190" y="390"/>
      <point x="228" y="430"/>
      <point x="300" y="430" type="curve" smooth="yes"/>
    </contour>
    <contour>
      <point x="718" y="430"/>
      <point x="742" y="387"/>
      <point x="742" y="330" type="curve"/>
      <point x="562" y="330" type="line"/>
      <point x="570" y="389"/>
      <point x="605" y="430"/>
      <point x="660" y="430" type="curve" smooth="yes"/>
    </contour>
  </outline>
</glyph>
<glyph name="Tbar" format="1">
  <advance width="600"/>
  <unicode hex="0166"/>
  <outline>
    <contour>
      <point x="87" y="300" type="line"/>
      <point x="512" y="300" type="line"/>
      <point x="512" y="395" type="line"/>
      <point x="87" y="395" type="line"/>
    </contour>
    <component base="T"/>
  </outline>
</glyph>
<glyph name="tbar" format="1">
  <advance width="446"/>
  <unicode hex="0167"/>
  <outline>
    <contour>
      <point x="22" y="257" type="line"/>
      <point x="402" y="257" type="line"/>
      <point x="402" y="337" type="line"/>
      <point x="22" y="337" type="line"/>
    </contour>
    <component base="t" xOffset="5"/>
  </outline>
</glyph>
<glyph name="Uogonek" format="1">
  <advance width="785"/>
  <unicode hex="0172"/>
  <outline>
    <contour>
      <point x="442" y="700" type="line"/>
      <point x="442" y="615" type="line"/>
      <point x="520" y="585" type="line"/>
      <point x="520" y="285" type="line" smooth="yes"/>
      <point x="520" y="167"/>
      <point x="498" y="110"/>
      <point x="392" y="110" type="curve" smooth="yes"/>
      <point x="295" y="110"/>
      <point x="262" y="155"/>
      <point x="262" y="270" type="curve" smooth="yes"/>
      <point x="262" y="585" type="line"/>
      <point x="340" y="615" type="line"/>
      <point x="340" y="705" type="line"/>
      <point x="32" y="700" type="line"/>
      <point x="32" y="615" type="line"/>
      <point x="107" y="585" type="line"/>
      <point x="107" y="270" type="line" smooth="yes"/>
      <point x="107" y="75"/>
      <point x="195" y="-11"/>
      <point x="366" y="-11" type="curve"/>
      <point x="337" y="-30"/>
      <point x="282" y="-74"/>
      <point x="282" y="-135" type="curve" smooth="yes"/>
      <point x="282" y="-203"/>
      <point x="332" y="-235"/>
      <point x="392" y="-235" type="curve" smooth="yes"/>
      <point x="447" y="-235"/>
      <point x="494" y="-210"/>
      <point x="494" y="-210" type="curve"/>
      <point x="477" y="-140" type="line"/>
      <point x="477" y="-140"/>
      <point x="450" y="-146"/>
      <point x="434" y="-146" type="curve" smooth="yes"/>
      <point x="413" y="-146"/>
      <point x="397" y="-134"/>
      <point x="397" y="-110" type="curve" smooth="yes"/>
      <point x="397" y="-74"/>
      <point x="450" y="-32"/>
      <point x="533" y="12" type="curve" smooth="yes"/>
      <point x="637" y="67"/>
      <point x="675" y="139"/>
      <point x="675" y="285" type="curve" smooth="yes"/>
      <point x="675" y="585" type="line"/>
      <point x="750" y="615" type="line"/>
      <point x="750" y="705" type="line"/>
    </contour>
  </outline>
</glyph>
